<svg width="200" height="200" viewBox="0 0 200 200" fill="none" xmlns="http://www.w3.org/2000/svg">
<g clip-path="url(#clip0_859_14)">
<mask id="mask0_859_14" style="mask-type:luminance" maskUnits="userSpaceOnUse" x="0" y="0" width="200" height="200">
<path d="M200 0H0V200H200V0Z" fill="white"/>
</mask>
<g mask="url(#mask0_859_14)">
<path d="M159.114 65.5137C159.764 66.1637 160.614 66.4873 161.464 66.4873C162.313 66.4873 163.165 66.1621 163.815 65.5137L186.974 42.3537C193.609 35.7179 193.609 24.9192 186.974 18.2832C180.338 11.6456 169.538 11.6487 162.904 18.2832L161.464 19.7206L160.026 18.2832C153.387 11.6472 142.591 11.6472 135.955 18.2832C132.74 21.4982 130.969 25.7722 130.969 30.3178C130.969 34.8634 132.74 39.1389 135.955 42.3525L159.114 65.5137ZM140.656 22.9844C142.68 20.9611 145.335 19.9525 147.99 19.9525C150.645 19.9525 153.303 20.9626 155.325 22.9844L159.114 26.7747C159.738 27.3972 160.583 27.7482 161.464 27.7482C162.345 27.7482 163.191 27.3972 163.815 26.7747L167.605 22.9844C171.652 18.9363 178.23 18.9408 182.273 22.9844C186.317 27.028 186.317 33.6091 182.273 37.6527L161.464 58.4609L140.656 37.6527C138.697 35.6934 137.617 33.0872 137.617 30.3193C137.618 27.5483 138.697 24.9421 140.656 22.9844Z" fill="#252A31"/>
<path d="M192.636 192.833C164.22 195.985 141.684 183.403 141.458 183.276C140.694 182.84 139.787 182.722 138.937 182.956C138.579 183.052 102.835 192.633 74.0464 186.242C56.0988 182.252 39.1708 169.61 26.8097 160.38C25.1495 159.141 23.5763 157.965 22.0993 156.886C20.0821 155.411 16.8747 154.184 14.0472 153.1C12.7777 152.615 11.0382 151.948 10.6644 151.715C10.3409 151.462 10.1639 151.089 10.1639 150.664V142.958C10.3241 136.86 35.8886 43.0389 39.8529 31.1036C39.9505 30.9632 40.332 30.687 40.6128 30.5543L91.2048 7.44638L107.561 28.74C108.368 29.8432 108.292 31.3859 107.382 32.4036L91.22 50.5221C90.1624 51.7089 88.382 51.8389 87.2772 50.9157L80.742 44.8897C79.976 44.1849 78.8864 43.9513 77.8656 44.1393C76.8416 44.3221 75.926 45.0517 75.4532 45.9793C74.9068 47.0553 69.9584 48.3733 64.9108 48.4117L63.266 48.2453C61.9476 48.0881 60.6688 48.7761 60.0248 49.9373C59.378 51.0985 59.488 52.5329 60.2996 53.5857C61.7036 55.4001 62.7976 56.8573 63.4172 57.6937L66.652 112.682C64.6468 120.491 62.8096 122.71 62.3536 123.154C61.006 123.579 60.028 124.838 60.028 126.325C60.028 128.16 61.5172 129.649 63.3528 129.649C67.1232 129.649 70.3276 124.695 72.9004 115.022C99.3424 95.2377 122.418 113.91 124.228 115.447C132.626 123.875 133.146 129.474 133.163 129.722C133.203 131.523 134.676 132.972 136.488 132.972C138.324 132.972 139.813 131.485 139.813 129.649C139.813 128.885 139.536 122.325 130.931 112.848C139.046 102.872 148.285 97.1253 158.461 95.8741C176.006 93.7133 190.753 105.511 190.901 105.629C192.326 106.788 194.417 106.575 195.576 105.153C196.736 103.733 196.527 101.642 195.108 100.48C194.421 99.9205 178.096 86.7873 157.716 89.2669C145.804 90.7121 135.11 97.1541 125.892 108.43C118.411 103.343 96.9604 91.8289 72.9704 106.888L69.9952 56.3189C69.9644 55.7725 69.7968 55.2429 69.5112 54.7777C72.4868 54.4249 76.03 53.6485 78.5996 51.9577L82.8828 55.9053C86.8696 59.2513 92.7092 58.8349 96.1792 54.9501L112.341 36.8302C115.323 33.4901 115.572 28.4394 112.881 24.7559L94.864 1.29862C93.924 0.0733389 92.2608 -0.343226 90.846 0.300694L37.8906 24.4889C37.3367 24.7315 34.5276 26.0911 33.6044 28.8682C31.7215 34.52 3.51562 135.11 3.51562 142.947V150.665C3.51562 153.142 4.628 155.432 6.56432 156.95C7.53328 157.708 8.98132 158.282 11.6714 159.311C13.8687 160.153 16.8762 161.302 18.1747 162.253C19.6365 163.321 21.1899 164.482 22.8317 165.709C35.675 175.3 53.264 188.435 72.606 192.734C100.14 198.852 132.463 191.455 139.39 189.709C144.017 192.1 160.991 200 183.212 200C186.491 200 189.886 199.829 193.37 199.44C195.195 199.238 196.509 197.594 196.307 195.77C196.103 193.942 194.453 192.618 192.636 192.833Z" fill="#252A31"/>
<path d="M176.36 152.553C176.177 150.89 174.769 149.596 173.055 149.596C171.22 149.596 169.73 151.085 169.73 152.921C169.73 155.141 171.371 162.659 192.455 166.171C192.64 166.202 192.825 166.217 193.005 166.217C194.601 166.217 196.009 165.065 196.281 163.44C196.581 161.629 195.358 159.916 193.548 159.613C178.803 157.156 176.557 152.995 176.36 152.553Z" fill="#252A31"/>
<path d="M112.522 169.615C68.9813 178.941 50.3489 149.15 49.5785 147.879C48.6277 146.309 46.5909 145.804 45.0205 146.747C43.4457 147.691 42.9361 149.733 43.8809 151.308C44.1005 151.672 49.3905 160.356 60.7021 167.754C68.4961 172.848 80.3813 178.039 96.4565 178.039C101.81 178.039 107.629 177.464 113.914 176.118C115.71 175.734 116.854 173.965 116.47 172.171C116.084 170.376 114.318 169.228 112.522 169.615Z" fill="#252A31"/>
</g>
</g>
<defs>
<clipPath id="clip0_859_14">
<rect width="200" height="200" fill="white"/>
</clipPath>
</defs>
</svg>
