<svg width="50" height="50" viewBox="0 0 50 50" fill="none" xmlns="http://www.w3.org/2000/svg">
<g clip-path="url(#clip0_859_36)">
<mask id="mask0_859_36" style="mask-type:luminance" maskUnits="userSpaceOnUse" x="0" y="0" width="50" height="50">
<path d="M50 0H0V50H50V0Z" fill="white"/>
</mask>
<g mask="url(#mask0_859_36)">
<path d="M49.0003 44H47.5663L45.8105 41.0734C47.2074 39.7556 47.9994 37.9207 48.0003 36.0003C47.9705 33.4413 46.6449 31.0718 44.4795 29.7066L43.0474 12.5182C44.3442 11.611 45.2905 10.2859 45.7275 8.76444C46.4081 6.34558 45.7753 3.55563 43.8481 0.471757C43.5557 0.0025346 42.938 -0.141015 42.4683 0.151944C41.9991 0.444414 41.8555 1.06256 42.1485 1.53178C43.7554 4.10347 44.3134 6.3446 43.8061 8.19269C43.4634 9.42116 42.6533 10.467 41.5494 11.1066L39.7233 12.0192L39.4044 11.0622L41.5005 9.86939C41.8106 9.69068 42.001 9.35964 42.0005 9.00125V5.00139C42.001 4.64398 41.8106 4.31342 41.501 4.13423C41.192 3.95504 40.8101 3.95504 40.5006 4.13374L33.5008 8.13361C33.1908 8.31231 32.9999 8.64335 33.0008 9.00125V13.0011C32.9999 13.359 33.1903 13.6895 33.4998 13.8687C33.8094 14.0479 34.1907 14.0479 34.5008 13.8692L37.6418 12.0744L37.9245 12.9235C37.383 13.0514 37.0007 13.5348 37.0007 14.0914L38.1725 26.9821C30.9506 24.4631 23.529 22.5564 15.9873 21.2821L13.4785 15.001H18.0013C19.658 15.001 21.0012 13.6583 21.0012 12.0011V11.7673C21.0012 10.2541 19.8743 8.9783 18.3734 8.79032L6.37381 7.29037C5.51983 7.18393 4.66146 7.44906 4.01598 8.01837C3.37098 8.58769 3.00185 9.407 3.00185 10.2673V12.0011C3.00185 13.6583 4.34507 15.001 6.00175 15.001H7.32446L9.90445 21.452C6.21659 22.5281 3.35926 25.4543 2.37101 29.1666C1.38277 32.8793 2.40763 36.8382 5.07258 39.6057L2.43595 44H1.00192C0.449692 44 0.00195312 44.4478 0.00195312 45V48.9999C0.00195312 49.5526 0.449692 49.9998 1.00192 49.9998H9.00165C9.55388 49.9998 10.0016 49.5526 10.0016 48.9999V45C10.0016 44.4478 9.55388 44 9.00165 44H8.76777L9.67741 42.4845C10.7526 42.8263 11.8736 43.0001 13.0015 43.0001H40.6344L41.2344 44H41.0006C40.4483 44 40.0006 44.4478 40.0006 45V48.9999C40.0006 49.5526 40.4483 49.9998 41.0006 49.9998H49.0003C49.5525 49.9998 50.0003 49.5526 50.0003 48.9999V45C50.0003 44.4478 49.5525 44 49.0003 44ZM35.0008 11.2785V9.57838L40.0006 6.72154V8.42168L35.0008 11.2785ZM48.0003 47.9999H42.0005V46H48.0003V47.9999ZM8.00168 47.9999H2.00189V46H8.00168V47.9999ZM4.76791 44L6.56765 41.0001H6.70143C7.0608 41.256 7.4353 41.4899 7.82249 41.7003L6.43582 44H4.76791ZM4.00182 32.0005C4.00768 27.0328 8.03342 23.0071 13.0015 23.0008C13.2774 23.0008 13.5733 23.0198 13.9722 23.055C21.4719 23.7551 37.4094 28.3228 42.5532 30.8955C44.5669 31.8188 45.8964 33.788 46.0004 36.0003C45.997 38.7605 43.7602 40.9972 41.0006 41.0001H13.0015C8.03342 40.9943 4.00768 36.9685 4.00182 32.0005ZM5.00178 12.0011V10.2673C5.00178 9.71509 5.44952 9.26736 6.00175 9.26736C6.04423 9.26736 6.0872 9.2698 6.12968 9.27468L18.1293 10.7746C18.6297 10.8371 19.0057 11.2629 19.0052 11.7673V12.0011C19.0052 12.5538 18.5575 13.0011 18.0052 13.0011H6.00175C5.44952 13.0011 5.00178 12.5538 5.00178 12.0011ZM11.3243 15.001L13.7383 21.037C13.4873 21.0208 13.2334 21.0008 13.0015 21.0008C12.6304 21.0008 12.2633 21.0208 11.9015 21.057L9.47868 15.001H11.3243ZM14.0615 21.8441L14.0806 21.8919L14.0654 22.0589L14.0615 21.8441ZM41.1265 13.5563L42.3804 28.609C41.7525 28.3316 41.0386 28.0406 40.2535 27.7399L39.0534 14.5904L41.1265 13.5563ZM44.1733 42.2325L45.2343 44H43.5664L42.8184 42.7525C43.2871 42.627 43.7412 42.4527 44.1733 42.2325Z" fill="white"/>
<path d="M13.0012 39.0003C15.4992 38.9979 17.8058 37.664 19.0547 35.5005L21.2407 36.3744C20.895 36.7821 20.9341 37.3905 21.3296 37.7504C21.7255 38.1102 22.3349 38.0917 22.7079 37.7084L25.7078 34.7085C26.0867 34.3164 26.0814 33.6929 25.6956 33.3072C25.3099 32.9214 24.6859 32.9156 24.2938 33.295L22.7597 34.8276L19.8008 33.6426C20.5005 30.7428 19.2857 27.718 16.7745 26.1082C14.2629 24.4979 11.0072 24.6566 8.66446 26.5027C6.32128 28.3488 5.4053 31.4771 6.38329 34.2954C7.36129 37.1137 10.0179 39.0028 13.0012 39.0003ZM13.0012 27.0007C14.487 26.9846 15.902 27.6374 16.8536 28.7785C17.8058 29.9201 18.1939 31.4288 17.9107 32.8877L13.3733 31.0719C12.8601 30.8663 12.2776 31.1158 12.0721 31.629C11.8665 32.1417 12.116 32.7242 12.6292 32.9297L17.172 34.7466C15.859 36.745 13.3147 37.5336 11.1014 36.6288C8.88858 35.7241 7.62544 33.3789 8.08831 31.0328C8.55119 28.6872 10.6102 26.9973 13.0012 27.0007Z" fill="white"/>
</g>
</g>
<defs>
<clipPath id="clip0_859_36">
<rect width="50" height="50" fill="white"/>
</clipPath>
</defs>
</svg>
