<svg width="200" height="200" viewBox="0 0 200 200" fill="none" xmlns="http://www.w3.org/2000/svg">
<g clip-path="url(#clip0_858_6)">
<mask id="mask0_858_6" style="mask-type:luminance" maskUnits="userSpaceOnUse" x="0" y="0" width="200" height="200">
<path d="M200 0H0V200H200V0Z" fill="white"/>
</mask>
<g mask="url(#mask0_858_6)">
<path d="M181.966 162.397H170.985C170.975 162.397 170.968 162.387 170.972 162.378L177.753 144.133C177.852 143.866 177.952 143.603 178.051 143.344C178.859 141.231 179.774 138.836 178.735 136.553C178.12 135.2 176.96 134.203 175.288 133.591L164.575 129.662C164.562 129.657 164.549 129.655 164.536 129.65C164.521 129.645 164.508 129.638 164.493 129.633L147.019 123.807C146.752 123.717 146.584 123.648 146.484 123.601C146.481 123.599 146.479 123.597 146.478 123.593C146.392 123.302 146.283 122.737 146.199 122.3L141.918 100.221C141.918 100.219 141.918 100.217 141.918 100.215L145.118 84.0982C145.119 84.0902 145.128 84.085 145.136 84.0878L147.678 84.9546C147.684 84.9566 147.688 84.9618 147.688 84.9678V96.9198C147.688 102.729 152.377 107.468 158.132 107.483H158.186C160.967 107.483 163.698 106.351 165.688 104.372C167.686 102.385 168.786 99.7618 168.786 96.9862V77.1306C168.786 77.0918 168.785 77.0538 168.784 77.0146C168.613 72.705 165.749 68.8658 161.65 67.4598L142.072 60.7942C142.07 60.7934 142.067 60.7918 142.065 60.7894L137.258 53.8722C137.254 53.8658 137.256 53.8574 137.262 53.853C140.903 51.3662 143.753 47.7454 145.751 43.0406C145.779 42.9742 145.803 42.9066 145.826 42.839C145.829 42.8306 145.833 42.8238 145.836 42.8154C145.838 42.8082 145.84 42.8018 145.843 42.7946C145.844 42.7886 145.846 42.7822 145.848 42.7762C148.619 34.381 149.03 26.6677 147.036 20.4689C144.894 13.8107 140.073 8.98767 133.096 6.52167C129.784 5.34707 126.55 5.37479 123.127 5.40331C118.27 5.44431 112.758 5.49079 105.482 1.87205C104.068 1.16815 102.353 1.7119 101.602 3.0994C98.1752 9.42167 98.9368 15.3513 103.608 19.7689C103.612 19.7736 103.613 19.781 103.61 19.7865C100.782 23.8334 99.2476 28.6412 99.2476 33.6142C99.2476 41.699 103.964 49.5814 111.261 54.1194C111.267 54.1234 111.269 54.1318 111.265 54.1386L103.777 65.8662C103.775 65.8702 103.77 65.8726 103.766 65.873L97.496 65.9046C97.4916 65.9046 97.4872 65.9022 97.4844 65.8982L90.3908 55.5918C87.1008 50.817 80.5288 49.603 75.7384 52.8866C73.3972 54.4966 71.8312 56.9318 71.3292 59.7442C70.8348 62.5138 71.4464 65.2898 73.0504 67.5598L84.1108 83.2194C84.1188 83.231 84.1276 83.2434 84.1364 83.2558C87.1968 87.4518 89.876 87.4602 93.6088 87.4726H102.48C102.488 87.4726 102.494 87.4786 102.494 87.4866L102.518 98.9758C102.518 98.9798 102.517 98.9834 102.514 98.9862L89.9528 111.254C89.9536 111.253 89.952 111.255 89.9528 111.254C86.8924 114.249 85.3388 117.858 85.3388 121.977V147.087C85.3388 147.093 85.3348 147.099 85.3284 147.101C82.4924 147.845 79.0888 149.584 76.3232 152.461C73.6496 155.243 72.0428 158.632 71.5816 162.385C71.5808 162.392 71.5752 162.397 71.568 162.397H59.2276C59.2196 162.397 59.2132 162.391 59.2132 162.383V161.175C59.2132 150.421 51.0784 141.533 40.6356 140.322C40.6284 140.321 40.6236 140.315 40.6236 140.308V87.2242C40.6236 87.2134 40.6352 87.2066 40.6444 87.2118L46.058 90.283C47.7448 91.2398 49.6108 91.6938 51.4652 91.6938C55.1764 91.6934 58.8416 89.8734 60.9332 86.6126C62.4992 84.1914 62.9888 81.3386 62.312 78.5798C61.6352 75.8206 59.8804 73.5166 57.3716 72.0938L16.5618 48.945C11.5086 46.0802 4.83092 47.7218 1.6731 52.6078C0.108259 55.035 -0.380413 57.8902 0.298103 60.647C0.975836 63.4014 2.72974 65.7014 5.23676 67.123L18.5258 74.6622C18.5301 74.6646 18.5329 74.6694 18.5329 74.6746V103.458C18.5329 105.07 19.7747 106.481 21.3856 106.523C23.0387 106.565 24.3922 105.238 24.3922 103.594V78.0146C24.3922 78.0042 24.404 77.997 24.4133 78.0026L34.7583 83.8718C34.7626 83.8742 34.7653 83.8786 34.7653 83.8838V140.161C34.7653 140.169 34.759 140.175 34.7512 140.175H24.4059C24.3981 140.175 24.3918 140.169 24.3918 140.161V118.127C24.3918 116.516 23.15 115.105 21.5391 115.063C19.886 115.021 18.5325 116.348 18.5325 117.991V140.161C18.5325 140.169 18.5262 140.175 18.5184 140.175H8.43912C4.73404 140.175 1.73052 143.178 1.73052 146.883V191.731C1.73052 195.434 4.73248 198.435 8.4352 198.435H56.2844H181.966C191.91 198.435 200 190.352 200 180.416C200 170.48 191.91 162.397 181.966 162.397ZM93.6028 81.6126C90.2584 81.6022 90.1832 81.6018 88.8836 79.8202L77.836 64.1786C77.1432 63.1974 76.8804 61.9886 77.0972 60.7734C77.3216 59.5154 78.018 58.4286 79.0548 57.7162C81.1836 56.2566 84.1048 56.795 85.5652 58.9138L93.27 70.1086C94.2836 71.5666 95.4116 71.7678 96.4944 71.7678L102.446 71.7382C102.454 71.7382 102.46 71.7442 102.46 71.7522L102.482 81.5986C102.482 81.6066 102.476 81.6126 102.468 81.6126H93.6028ZM5.98756 59.247C5.69848 58.0718 5.91488 56.8414 6.59576 55.7854C7.58484 54.2554 9.36684 53.3918 11.145 53.3918C12.0196 53.3918 12.8934 53.601 13.6715 54.0418L54.482 77.1906C55.5736 77.809 56.334 78.7986 56.6228 79.9758C56.9108 81.1518 56.6948 82.3786 56.0088 83.4406C54.5428 85.7254 51.3092 86.5242 48.9496 85.1866L8.1274 62.0262C7.0356 61.4074 6.27584 60.4206 5.98756 59.247ZM173.295 139.149C173.17 139.707 172.825 140.608 172.579 141.253C172.473 141.53 172.365 141.812 172.26 142.095L164.718 162.388C164.716 162.393 164.71 162.397 164.704 162.397H162.952C162.653 162.397 162.03 162.397 161.278 161.303C159.252 158.356 159.156 152.043 159.75 150.452L159.874 150.142C159.878 150.13 159.882 150.118 159.887 150.107L165.259 136.168C165.262 136.161 165.27 136.157 165.277 136.159L173.26 139.087C173.273 139.11 173.282 139.125 173.295 139.149ZM145.167 129.365L159.716 134.217C159.723 134.219 159.727 134.227 159.724 134.235L158.525 137.348L155.44 145.353C155.438 145.359 155.43 145.363 155.423 145.361L129.564 136.473C127.807 135.868 127.355 135.254 126.746 134.006L121.761 123.686C121.758 123.679 121.76 123.672 121.766 123.668C126.391 121.158 133.464 117.182 137.934 110.575C137.941 110.564 137.956 110.567 137.959 110.579L140.446 123.411C140.909 125.819 141.346 128.093 145.167 129.365ZM138.262 65.9502C138.662 65.9502 139.067 66.0022 139.47 66.1094C139.499 66.1174 139.519 66.1226 139.54 66.1274C139.543 66.1282 139.545 66.1286 139.548 66.1294C139.56 66.1322 139.57 66.1346 139.585 66.1378C139.63 66.1498 139.676 66.167 139.72 66.1826C139.735 66.1882 139.75 66.193 139.764 66.1982L159.756 73.0042C161.562 73.6242 162.83 75.3046 162.927 77.1958V96.9862C162.927 98.1914 162.44 99.339 161.556 100.218C160.657 101.112 159.43 101.624 158.18 101.624C158.172 101.624 158.164 101.624 158.156 101.624C155.614 101.617 153.547 99.5066 153.547 96.9194V84.195C153.547 84.1014 153.553 84.013 153.557 83.931C153.699 81.221 152.071 80.2578 151.092 79.9258L136.751 75.0386C136.752 75.039 136.75 75.0382 136.751 75.0386C135.573 74.6374 134.616 73.7946 134.063 72.6678C133.512 71.5454 133.428 70.2846 133.829 69.1122C134.486 67.187 136.306 65.9502 138.262 65.9502ZM105.672 8.40723C105.674 8.39899 105.684 8.39471 105.692 8.39783C112.864 11.3482 118.523 11.3017 123.176 11.2615C126.195 11.2369 128.8 11.2146 131.142 12.0443C141.41 15.674 142.996 24.5318 142.24 32.0088C142.239 32.0209 142.224 32.0256 142.216 32.0166C141.47 31.1744 140.56 30.381 139.452 29.6912C139.45 29.6904 139.45 29.6892 139.448 29.6885C136.175 25.7006 131.583 22.0779 125.535 21.6181C120.596 21.2439 113.752 19.7994 109.355 16.867C109.353 16.8654 109.35 16.8642 109.348 16.8627C105.818 14.5228 104.628 11.8506 105.672 8.40723ZM105.108 33.6135C105.108 29.8416 106.272 26.1908 108.424 23.1193C108.432 23.1174 108.437 23.1158 108.445 23.1139C114.863 26.4396 122.644 27.2752 125.093 27.4607C133.472 28.0971 138.468 38.4502 139.875 41.8098C139.877 41.8134 139.876 41.8174 139.875 41.821C137.955 45.8102 135.237 48.6458 131.776 50.2598C129.414 51.3714 126.616 51.9346 123.46 51.9346C121.248 51.9346 118.894 51.3962 116.654 50.3794C110.906 47.7598 105.108 41.5598 105.108 33.6135ZM116.61 56.655C116.613 56.6494 116.62 56.647 116.626 56.6494C118.894 57.4006 121.218 57.7942 123.46 57.7942C126.526 57.7942 129.365 57.3554 131.933 56.4946C131.939 56.4926 131.945 56.4946 131.949 56.4998L134.836 60.6542C134.841 60.6614 134.838 60.6718 134.829 60.675C131.849 61.7058 129.365 64.047 128.284 67.2206C127.378 69.871 127.562 72.7234 128.804 75.2514C130.048 77.7846 132.199 79.679 134.86 80.585L139.515 82.1718C139.522 82.1742 139.526 82.1806 139.524 82.1878L136.53 97.2718C136.529 97.2782 136.523 97.283 136.516 97.283H108.389C108.381 97.283 108.375 97.2766 108.375 97.269L108.316 69.6506C108.316 69.6478 108.317 69.645 108.318 69.643L116.61 56.655ZM91.1984 121.977C91.1984 119.458 92.1304 117.321 94.0472 115.445L106.64 103.146C106.643 103.143 106.646 103.142 106.65 103.142H135.175C135.184 103.142 135.192 103.152 135.188 103.161C132.256 111.323 123.802 115.901 118.506 118.771C117.762 119.174 117.06 119.555 116.478 119.888L106.949 125.212C102.979 127.431 102.252 128.593 102.368 132.529C102.382 133.013 102.398 133.562 102.398 134.222L102.453 146.657C102.453 146.664 102.446 146.671 102.439 146.671H91.2128C91.2052 146.671 91.1988 146.664 91.1988 146.657L91.1984 121.977ZM80.548 156.521C83.1648 153.798 86.7024 152.53 88.2688 152.53H102.457C102.465 152.53 102.471 152.536 102.471 152.544L102.493 162.383C102.493 162.391 102.486 162.397 102.478 162.397H77.5152C77.5064 162.397 77.4996 162.389 77.5012 162.38C77.908 160.17 78.9272 158.208 80.548 156.521ZM7.58952 191.727V146.884C7.58952 146.417 7.97192 146.035 8.43872 146.035H38.1969C46.5548 146.035 53.3544 152.826 53.3544 161.175V165.327V192.563C53.3544 192.571 53.348 192.577 53.3404 192.577H8.43912C7.97192 192.577 7.58952 192.194 7.58952 191.727ZM181.966 192.577H59.228C59.2204 192.577 59.214 192.571 59.214 192.563V183.36C59.214 183.352 59.2204 183.346 59.228 183.346H182.177C183.788 183.346 185.2 182.104 185.241 180.493C185.283 178.84 183.956 177.487 182.312 177.487H59.228C59.2204 177.487 59.214 177.48 59.214 177.473V168.27C59.214 168.262 59.2204 168.256 59.228 168.256H74.3824H105.428H126.05C127.661 168.256 129.073 167.014 129.114 165.403C129.156 163.75 127.829 162.396 126.186 162.396H108.366C108.358 162.396 108.352 162.39 108.352 162.382L108.325 149.868V149.599C108.325 149.597 108.324 149.595 108.324 149.593C108.324 149.593 108.325 149.589 108.325 149.587L108.258 134.208C108.258 133.475 108.239 132.854 108.224 132.355C108.22 132.189 108.214 132.015 108.21 131.849C108.202 131.489 108.388 131.154 108.696 130.967C109.099 130.722 109.566 130.46 109.807 130.326L116.609 126.526C116.616 126.522 116.625 126.525 116.628 126.532L121.475 136.564C122.486 138.637 123.934 140.731 127.658 142.013L153.709 150.967C153.715 150.969 153.719 150.975 153.718 150.981C153.366 154.14 153.672 158.729 155.234 162.377C155.238 162.386 155.231 162.396 155.222 162.396H140.218C138.607 162.396 137.195 163.638 137.154 165.249C137.112 166.902 138.439 168.256 140.082 168.256H162.952H166.751H181.966C188.679 168.256 194.141 173.711 194.141 180.416C194.14 187.122 188.679 192.577 181.966 192.577Z" fill="#252A31"/>
<path d="M30.0119 173.77H24.1709C22.5592 173.77 21.1478 175.012 21.1064 176.623C21.0643 178.276 22.3912 179.629 24.035 179.629H29.8764C31.4881 179.629 32.8994 178.388 32.9408 176.776C32.983 175.123 31.6557 173.77 30.0119 173.77Z" fill="#252A31"/>
<path d="M30.0189 159.93H24.167C22.5553 159.93 21.1439 161.172 21.1025 162.783C21.0603 164.436 22.3873 165.79 24.031 165.79H29.883C31.4947 165.79 32.906 164.548 32.9475 162.937C32.99 161.283 31.6627 159.93 30.0189 159.93Z" fill="#252A31"/>
</g>
</g>
<defs>
<clipPath id="clip0_858_6">
<rect width="200" height="200" fill="white"/>
</clipPath>
</defs>
</svg>
