<svg width="200" height="200" viewBox="0 0 200 200" fill="none" xmlns="http://www.w3.org/2000/svg">
<g clip-path="url(#clip0_217_23)">
<path d="M127.104 110.65L108.279 101.958C96.8375 96.6709 82.3708 102.267 71.9208 114.671L55.4917 105.692C51.8458 103.996 46.7125 107.1 44.275 112.358C43.092 114.794 42.664 117.528 43.0458 120.208C43.1467 121.23 43.4925 122.211 44.054 123.07C44.6154 123.929 45.3759 124.64 46.2708 125.142L61.4833 133.475C55.1875 152.467 59.9125 171.463 73.325 177.642L92.1458 186.329C95.0961 187.686 98.3071 188.381 101.554 188.367C106.967 188.241 112.245 186.658 116.833 183.783C125.549 178.302 132.423 170.334 136.567 160.908C146.204 140.071 141.958 117.5 127.104 110.65ZM49.3708 119.738C49.2926 119.555 49.238 119.363 49.2083 119.167C49.051 117.736 49.307 116.29 49.9458 115C50.5311 113.485 51.654 112.239 53.1 111.5L68.125 119.721C66.5129 122.157 65.0867 124.712 63.8583 127.363C63.825 127.442 63.7958 127.521 63.7583 127.6L49.3708 119.738ZM69.5333 130C77.725 112.263 93.925 102.238 105.662 107.646L110.275 109.779C107.522 110.584 104.881 111.733 102.417 113.2C93.7008 118.68 86.8274 126.646 82.6833 136.071C78.1981 145.34 76.5902 155.739 78.0667 165.929C78.5528 168.755 79.3927 171.509 80.5667 174.125L75.9833 172C64.2208 166.567 61.3417 147.725 69.5333 130ZM130.896 158.333C127.28 166.609 121.272 173.614 113.646 178.45C110.926 180.348 107.78 181.545 104.486 181.934C101.193 182.324 97.8542 181.894 94.7667 180.683C91.8429 179.115 89.3514 176.85 87.5132 174.088C85.675 171.326 84.547 168.153 84.2292 164.85C82.9624 155.908 84.399 146.791 88.3542 138.671C91.9683 130.394 97.9758 123.389 105.604 118.554C109.23 116.267 113.402 114.993 117.688 114.867C120.026 114.853 122.339 115.348 124.467 116.317C136.208 121.738 139.088 140.579 130.896 158.333Z" fill="#252A31"/>
<path d="M51.9167 147.938C49.489 149.188 46.8176 149.892 44.0892 150.002C41.3608 150.112 38.6413 149.625 36.1208 148.575C29.3375 145.442 25.2083 137.429 25.0792 127.137C25.0682 126.316 24.7341 125.532 24.1493 124.955C23.5644 124.378 22.7758 124.054 21.9542 124.054H21.9125C21.5021 124.06 21.0968 124.146 20.7197 124.308C20.3427 124.47 20.0012 124.705 19.7149 124.999C19.4286 125.293 19.203 125.64 19.051 126.022C18.899 126.403 18.8237 126.81 18.8292 127.221C18.8401 132.322 19.9069 137.365 21.9625 142.033L17.2958 139.883C14.372 138.315 11.8802 136.049 10.0414 133.287C8.2026 130.525 7.07349 127.353 6.75416 124.05C5.49077 115.107 6.92868 105.991 10.8833 97.8708C14.4987 89.5952 20.506 82.5896 28.1333 77.7542C30.8538 75.8598 33.999 74.6647 37.291 74.2745C40.5829 73.8842 43.9204 74.3109 47.0083 75.5167C47.0706 75.5479 47.1346 75.5757 47.2 75.6L51.7292 77.6833C45.5391 79.8886 39.878 83.3627 35.1086 87.883C30.3393 92.4034 26.567 97.8703 24.0333 103.933C22.2126 107.852 20.84 111.965 19.9417 116.192C19.7701 117.002 19.9273 117.848 20.379 118.542C20.8306 119.237 21.5395 119.724 22.35 119.896C22.5652 119.94 22.7844 119.963 23.0042 119.962C23.7197 119.962 24.4132 119.715 24.9685 119.263C25.5237 118.812 25.907 118.184 26.0542 117.483C26.8577 113.715 28.082 110.049 29.7042 106.554C37.8958 88.8208 54.1 78.7708 65.8333 84.2042C68.8851 85.8575 71.4666 88.2595 73.3353 91.1843C75.2041 94.1091 76.2988 97.461 76.5167 100.925C76.5752 101.331 76.7132 101.722 76.9228 102.075C77.1323 102.428 77.4094 102.736 77.7381 102.982C78.0667 103.228 78.4406 103.407 78.8384 103.508C79.2361 103.609 79.65 103.631 80.0562 103.573C80.4625 103.514 80.8533 103.376 81.2062 103.167C81.5592 102.957 81.8674 102.68 82.1133 102.352C82.3592 102.023 82.5379 101.649 82.6393 101.251C82.7407 100.853 82.7627 100.44 82.7042 100.033C82.3291 95.5397 80.8266 91.2133 78.3358 87.4545C75.845 83.6957 72.4463 80.6259 68.4542 78.5292L49.6375 69.8333C49.5696 69.8006 49.5 69.7714 49.4292 69.7458C45.4447 68.148 41.1291 67.5518 36.8606 68.0095C32.5921 68.4671 28.501 69.9646 24.9458 72.3708C16.231 77.852 9.35786 85.8179 5.21249 95.2417C-4.42501 116.137 -0.183341 138.7 14.675 145.562L33.5 154.25C36.4404 155.593 39.6383 156.278 42.8708 156.258C46.8781 156.212 50.8305 155.322 54.4708 153.646C55.2278 153.307 55.8192 152.682 56.115 151.907C56.4107 151.132 56.3866 150.272 56.0479 149.515C55.7092 148.758 55.0837 148.166 54.3089 147.87C53.5341 147.575 52.6736 147.599 51.9167 147.938Z" fill="#252A31"/>
<path d="M146.913 127.342C146.084 127.352 145.293 127.69 144.714 128.283C144.135 128.876 143.815 129.675 143.825 130.504C143.835 131.333 144.174 132.124 144.767 132.703C145.36 133.282 146.159 133.602 146.988 133.592H147.083C151.156 133.49 155.127 132.295 158.58 130.132C162.033 127.969 164.84 124.917 166.709 121.297C168.578 117.676 169.439 113.62 169.202 109.552C168.965 105.485 167.639 101.556 165.363 98.177C163.086 94.7979 159.943 92.093 156.263 90.3454C152.582 88.5978 148.5 87.8718 144.442 88.2434C140.385 88.6151 136.502 90.0707 133.201 92.4579C129.899 94.8451 127.3 98.076 125.675 101.812C125.343 102.572 125.327 103.432 125.63 104.204C125.933 104.976 126.53 105.595 127.29 105.927C128.049 106.259 128.91 106.275 129.681 105.972C130.453 105.669 131.073 105.072 131.404 104.312C132.582 101.604 134.466 99.2611 136.859 97.5303C139.252 95.7994 142.067 94.7439 145.008 94.474C147.95 94.2042 150.91 94.7301 153.578 95.9967C156.246 97.2632 158.525 99.2238 160.176 101.673C161.826 104.123 162.788 106.971 162.96 109.919C163.133 112.868 162.509 115.809 161.155 118.434C159.801 121.059 157.766 123.271 155.263 124.84C152.76 126.408 149.882 127.275 146.929 127.35L146.913 127.342Z" fill="#252A31"/>
<path d="M194.704 27.1209C191.679 22.3622 187.498 18.4462 182.552 15.7376C177.607 13.029 172.056 11.6157 166.417 11.6292H126.938C121.302 11.6302 115.757 13.0502 110.814 15.7583C105.871 18.4664 101.69 22.3754 98.6559 27.1249C95.6218 31.8744 93.8323 37.3114 93.4526 42.9345C93.0729 48.5576 94.1152 54.1858 96.4833 59.3001L107.021 82.0459C104.625 85.3295 102.645 88.8969 101.125 92.6667C100.837 93.4318 100.86 94.2793 101.189 95.0276C101.518 95.7759 102.128 96.3654 102.886 96.6696C103.645 96.9738 104.493 96.9685 105.248 96.6548C106.003 96.3412 106.605 95.7441 106.925 94.9918C108.426 91.2594 110.443 87.7558 112.917 84.5834C112.951 84.5436 112.983 84.5018 113.013 84.4584C115.778 80.9322 119.086 77.8677 122.813 75.3792C122.838 75.3792 122.85 75.3459 122.875 75.3376C127.625 72.2059 132.953 70.0561 138.546 69.0147C144.139 67.9734 149.884 68.0616 155.442 69.2742C161.001 70.4867 166.261 72.799 170.912 76.0751C175.563 79.3511 179.512 83.5246 182.526 88.3499C185.54 93.1751 187.558 98.5546 188.461 104.172C189.365 109.789 189.135 115.53 187.786 121.057C186.437 126.584 183.996 131.785 180.607 136.354C177.217 140.923 172.948 144.768 168.05 147.663H146.667C145.838 147.663 145.043 147.992 144.457 148.578C143.871 149.164 143.542 149.959 143.542 150.788C143.542 151.616 143.871 152.411 144.457 152.997C145.043 153.583 145.838 153.913 146.667 153.913H168.871C169.408 153.908 169.935 153.764 170.4 153.496C176.404 150.143 181.63 145.558 185.736 140.042C189.842 134.526 192.735 128.203 194.224 121.49C195.713 114.777 195.765 107.824 194.376 101.089C192.987 94.3544 190.19 87.9895 186.167 82.4126L196.875 59.2959C199.256 54.185 200.305 48.5549 199.926 42.9293C199.546 37.3038 197.75 31.8657 194.704 27.1209ZM191.204 56.6709L181.746 77.0876C179.864 75.1349 177.824 73.3413 175.646 71.7251L184.133 53.3918C185.511 50.4173 186.118 47.1436 185.897 43.8728C185.676 40.6021 184.635 37.4397 182.87 34.6774C181.104 31.9152 178.672 29.6421 175.796 28.068C172.921 26.494 169.695 25.6695 166.417 25.6709H162.5C161.671 25.6709 160.876 26.0002 160.29 26.5862C159.704 27.1723 159.375 27.9671 159.375 28.7959C159.375 29.6247 159.704 30.4196 160.29 31.0056C160.876 31.5917 161.671 31.9209 162.5 31.9209H166.404C168.634 31.919 170.828 32.479 172.783 33.5492C174.739 34.6193 176.394 36.1651 177.594 38.0438C178.795 39.9224 179.503 42.0733 179.652 44.2978C179.802 46.5222 179.388 48.7485 178.45 50.7709L170.367 68.2501C163.128 64.1842 154.972 62.031 146.669 61.9938C138.367 61.9566 130.192 64.0367 122.917 68.0376L114.917 50.7709C113.979 48.7488 113.565 46.5229 113.714 44.2988C113.864 42.0747 114.571 39.9241 115.771 38.0455C116.971 36.167 118.625 34.6211 120.58 33.5507C122.536 32.4802 124.729 31.9197 126.958 31.9209H153.171C154 31.9209 154.794 31.5917 155.381 31.0056C155.967 30.4196 156.296 29.6247 156.296 28.7959C156.296 27.9671 155.967 27.1723 155.381 26.5862C154.794 26.0002 154 25.6709 153.171 25.6709H126.938C123.659 25.6718 120.434 26.498 117.559 28.0734C114.685 29.6488 112.253 31.9227 110.488 34.6853C108.723 37.4479 107.683 40.6104 107.462 43.8811C107.241 47.1518 107.848 50.4254 109.225 53.4001L117.583 71.4376C115.398 73.0372 113.351 74.8171 111.463 76.7584L102.158 56.6668C100.229 52.5052 99.3785 47.9247 99.6861 43.3479C99.9937 38.7711 101.449 34.3456 103.918 30.4797C106.388 26.6138 109.791 23.4323 113.814 21.2286C117.837 19.0249 122.35 17.8702 126.938 17.8709H166.417C171.004 17.8702 175.517 19.0246 179.54 21.2278C183.563 23.431 186.966 26.6118 189.436 30.477C191.906 34.3422 193.363 38.7671 193.672 43.3435C193.981 47.92 193.132 52.5005 191.204 56.6626V56.6709Z" fill="#252A31"/>
</g>
<defs>
<clipPath id="clip0_217_23">
<rect width="200" height="200" fill="white"/>
</clipPath>
</defs>
</svg>
