<svg width="200" height="200" viewBox="0 0 200 200" fill="none" xmlns="http://www.w3.org/2000/svg">
<g clip-path="url(#clip0_859_23)">
<mask id="mask0_859_23" style="mask-type:luminance" maskUnits="userSpaceOnUse" x="0" y="0" width="200" height="200">
<path d="M200 0H0V200H200V0Z" fill="white"/>
</mask>
<g mask="url(#mask0_859_23)">
<path d="M197.196 105.792H192.318V83.2178C192.318 81.6694 191.062 80.4134 189.513 80.4134H163.367C161.818 80.4134 160.563 81.6694 160.563 83.2178V105.795H150.038V104.253C150.038 85.2242 135.525 69.5218 116.986 67.6354C124.509 62.2982 129.433 53.5266 129.433 43.6214C129.433 27.3918 116.229 14.188 99.9996 14.188C83.77 14.188 70.5664 27.3918 70.5664 43.6214C70.5664 53.5266 75.4904 62.2982 83.0128 67.6354C64.4744 69.5218 49.9608 85.2242 49.9608 104.252V105.795H39.4374V83.2174C39.4374 81.669 38.1814 80.413 36.6329 80.413H10.4871C8.93808 80.413 7.68256 81.669 7.68256 83.2174V105.791H2.80454C1.25596 105.791 0 107.047 0 108.596C0 110.144 1.25596 111.4 2.80454 111.4H7.68256V133.974C7.68256 135.523 8.93808 136.779 10.4871 136.779H36.6329C38.1814 136.779 39.4374 135.523 39.4374 133.974V111.403H49.9928C50.4288 117.994 55.9264 123.223 62.6248 123.223C65.234 123.223 67.6608 122.429 69.678 121.072V172.916C69.678 180.027 75.4628 185.812 82.5732 185.812C89.6836 185.812 95.4688 180.027 95.4688 172.916V145.123C95.4688 142.625 97.5016 140.592 100 140.592C102.498 140.592 104.531 142.625 104.531 145.123V172.916C104.531 180.027 110.316 185.812 117.427 185.812C124.538 185.812 130.323 180.027 130.323 172.916V121.073C132.34 122.431 134.766 123.224 137.376 123.224C144.075 123.224 149.572 117.995 150.008 111.404H160.564V133.975C160.564 135.523 161.82 136.779 163.368 136.779H189.514C191.063 136.779 192.319 135.523 192.319 133.975V111.401H197.196C198.745 111.401 200.001 110.145 200.001 108.596C200.001 107.047 198.744 105.792 197.196 105.792ZM13.2916 86.0226H20.7554V131.17H13.2916V86.0226ZM26.364 131.17V86.0226H33.8279V131.17H26.364ZM76.176 43.6214C76.176 30.4851 86.8636 19.7971 100 19.7971C113.137 19.7971 123.824 30.4847 123.824 43.6214C123.824 56.7586 113.137 67.4458 100 67.4458C86.8632 67.4458 76.176 56.7586 76.176 43.6214ZM86.7676 73.0546H113.233C128.96 73.0546 141.998 84.7542 144.12 99.9054C142.175 98.6802 139.876 97.9678 137.411 97.9678C134.784 97.9678 132.343 98.7746 130.32 100.153V98.761C130.32 97.2126 129.064 95.9566 127.516 95.9566C125.967 95.9566 124.711 97.2126 124.711 98.761V105.795H75.2884V98.761C75.2884 97.2126 74.0324 95.9566 72.4836 95.9566C70.9352 95.9566 69.6792 97.2126 69.6792 98.761V100.153C67.6568 98.775 65.2152 97.9682 62.5888 97.9682C60.1248 97.9682 57.8248 98.6802 55.8796 99.9058C58.0024 84.7542 71.0412 73.0546 86.7676 73.0546ZM62.6248 117.615C58.7412 117.615 55.5812 114.459 55.5716 110.578C55.5812 106.716 58.7252 103.577 62.5892 103.577C66.4596 103.577 69.608 106.725 69.608 110.596C69.608 110.763 69.6336 111.312 69.6192 111.427C69.1904 114.908 66.2208 117.615 62.6248 117.615ZM117.427 180.203C113.409 180.203 110.14 176.934 110.14 172.916V145.123C110.14 139.532 105.592 134.983 100 134.983C94.4088 134.983 89.8596 139.532 89.8596 145.123V172.916C89.8596 176.934 86.5912 180.203 82.5732 180.203C78.5552 180.203 75.2868 176.934 75.2868 172.916V111.403H124.714V172.916C124.714 176.934 121.444 180.203 117.427 180.203ZM137.375 117.615C133.87 117.615 130.959 115.043 130.418 111.688C130.386 111.489 130.392 110.763 130.392 110.596C130.392 106.726 133.541 103.577 137.412 103.577C141.275 103.577 144.419 106.716 144.43 110.578C144.419 114.459 141.26 117.615 137.375 117.615ZM166.172 86.0226H173.636V131.17H166.172V86.0226ZM186.709 131.17H179.245V86.0226H186.709V131.17Z" fill="#252A31"/>
</g>
</g>
<defs>
<clipPath id="clip0_859_23">
<rect width="200" height="200" fill="white"/>
</clipPath>
</defs>
</svg>
