<svg width="175" height="50" viewBox="0 0 175 50" fill="none" xmlns="http://www.w3.org/2000/svg">
<path d="M158.717 50V23.4472H149.006V18.3333H175V23.4472H165.338V50H158.717Z" fill="white"/>
<path d="M136.301 50V18.3333H142.922V50H136.301Z" fill="white"/>
<path d="M102.285 50V18.3333H108.906V31.7572L121.07 18.3333H128.672L117.244 31.1672L129.26 50H122.198L113.124 35.3959L108.906 39.9689V50H102.285Z" fill="white"/>
<path d="M65.7067 25.3278C59.2328 21.0605 52.0934 17.6589 46.5003 12.1774L46.0703 12.1637C45.6644 13.9186 45.4653 15.8532 46.244 17.539C46.8984 19.077 48.1585 20.2553 49.505 21.1966C53.1251 23.6745 56.9443 25.8463 60.5598 28.3249C61.3756 28.8623 61.9168 29.7859 61.9929 30.7617C62.1933 34.9925 62.0566 39.2338 62.123 43.4679C62.1191 44.3368 62.4678 45.181 63.1046 45.7738C64.5995 47.2564 66.2186 48.6041 67.789 50.0001C67.8286 43.0184 67.7031 36.0328 67.8768 29.0505C68.0348 27.4683 67.0044 26.0958 65.7067 25.3278Z" fill="white"/>
<path d="M73.6679 19.605C73.6686 19.5685 73.6705 19.5327 73.6705 19.4955C73.6705 19.3653 73.664 19.2363 73.6543 19.1086C73.6198 18.2305 73.3147 17.4156 72.8281 16.7239C71.959 15.4295 70.498 14.5684 68.8333 14.5254C68.7995 14.5241 68.765 14.5234 68.7312 14.5228C68.7214 14.5228 68.7117 14.5221 68.7019 14.5221C68.6993 14.5221 68.6974 14.5221 68.6948 14.5221C68.3871 14.5195 68.0781 14.5482 67.7724 14.6107C65.7649 14.9918 64.1854 16.5818 63.8179 18.5966C63.8133 18.6194 63.8101 18.6429 63.8055 18.6657C63.801 18.693 63.7951 18.7204 63.7912 18.7477C63.717 19.1972 63.7047 19.6571 63.7645 20.1137C63.9955 22.5825 66.3308 24.6299 68.8132 24.4813C71.4146 24.5445 73.7271 22.1975 73.6679 19.605Z" fill="#F41E1E"/>
<path d="M91.2916 12.161C85.2256 16.6648 78.8525 20.7386 72.4111 24.6809C71.4952 25.2567 70.5006 25.7472 69.746 26.54C69.0441 27.2989 68.9855 28.3984 68.9927 29.3781C69.0012 29.5924 69.009 29.8067 69.0161 30.021C69.223 36.2425 68.9368 42.4725 69.1508 48.692C69.1657 49.1252 69.1826 49.5584 69.2022 49.9909C70.269 49.049 71.2383 47.9618 72.3636 47.0896C73.1182 46.4688 73.9782 45.8513 74.323 44.8963C74.6743 44.0241 74.5838 43.0692 74.6008 42.1553C74.5656 38.583 74.6443 35.0114 74.5266 31.4424C74.5162 30.0562 75.3489 28.7769 76.523 28.0838C79.8693 26.0768 83.222 24.0692 86.4212 21.831C88.5998 20.3791 90.8141 18.6235 91.7534 16.0883C92.2719 14.8279 92.1626 13.4541 91.8907 12.1519L91.2916 12.161Z" fill="white"/>
<path d="M94.9435 0C94.2084 0 93.6125 0.597336 93.6132 1.33276L93.6151 9.23485L44.214 9.24593L44.212 1.34383C44.212 0.607754 43.6155 0.0110772 42.8811 0.0117286C42.146 0.0117286 41.5501 0.609057 41.5508 1.34448L41.5527 9.24658L41.5534 11.9114L41.5553 19.8135C41.5553 20.5496 42.1519 21.1463 42.8863 21.1456C43.6214 21.1456 44.2172 20.5483 44.2166 19.8129L44.2146 11.9108L93.6158 11.8997L93.6177 19.8018C93.6177 20.5379 94.2142 21.1346 94.9487 21.1339C95.6837 21.1339 96.2796 20.5366 96.279 19.8012L96.277 11.8991L96.2764 9.2342L96.2744 1.33211C96.2744 0.596033 95.6779 0 94.9435 0Z" fill="#F41E1E"/>
<path d="M98.7268 1.79047C97.9917 1.79047 97.3958 2.3878 97.3965 3.12323L97.3978 9.23333L97.3984 11.8982L97.3997 18.0083C97.3997 18.7444 97.9963 19.3411 98.7307 19.3404C99.4658 19.3404 100.062 18.7431 100.061 18.0076L100.06 11.8975L100.059 9.23268L100.058 3.12258C100.058 2.3865 99.4619 1.79047 98.7268 1.79047Z" fill="#F41E1E"/>
<path d="M102.508 4.9422C101.773 4.9422 101.177 5.53954 101.178 6.27496L101.178 9.23295L101.179 11.8978L101.18 14.8558C101.18 15.5919 101.776 16.1886 102.511 16.1879C103.246 16.1879 103.842 15.5906 103.841 14.8552L103.839 6.27431C103.839 5.53888 103.244 4.9422 102.508 4.9422Z" fill="#F41E1E"/>
<path d="M39.0998 1.80377C38.3641 1.80377 37.7689 2.4011 37.7695 3.13653L37.7708 9.24663L37.7715 11.9115L37.7728 18.0216C37.7728 18.7577 38.3687 19.3544 39.1037 19.3537C39.8388 19.3537 40.4347 18.7564 40.434 18.0209L40.4327 11.9108L40.4321 9.24598L40.4308 3.13588C40.4308 2.40045 39.8349 1.80377 39.0998 1.80377Z" fill="#F41E1E"/>
<path d="M35.3186 4.95715C34.5835 4.95715 33.9876 5.55448 33.9883 6.28991L33.9902 14.8708C33.9902 15.6068 34.5868 16.2035 35.3212 16.2029C36.0563 16.2029 36.6521 15.6055 36.6515 14.8701L36.6508 11.9089L36.6502 9.24985L36.6495 6.2886C36.6495 5.55383 36.0537 4.95715 35.3186 4.95715Z" fill="#F41E1E"/>
<path d="M28.3164 50V18.3333H34.9376V50H28.3164Z" fill="white"/>
<path d="M0 50V18.3333H22.2178V23.4964H6.62121V31.6097H20.4031V36.7236H6.62121V50H0Z" fill="white"/>
</svg>
