<svg width="228" height="80" viewBox="0 0 228 80" fill="none" xmlns="http://www.w3.org/2000/svg">
<path d="M97.7501 55.6811H92.2122V19.0469H107.974V24.5983H97.7501V34.5901H105.221V40.1415H97.7501V55.6811Z" fill="white"/>
<path d="M117.32 55.6813H111.782V19.0762H117.32V55.6813Z" fill="white"/>
<path d="M127.661 24.6276H121.773V19.0762H139.057V24.6276H133.199V55.6813H127.661V24.6276Z" fill="white"/>
<path d="M149.725 19.0469L157.073 43.6669V19.0469H162.611V55.6811H156.665L149.048 32.2228V55.6811H143.51V19.0469H149.725Z" fill="white"/>
<path d="M167.563 55.6811V19.0469H183.325V24.5983H173.101V34.5901H180.572V40.1415H173.101V50.1333H183.325V55.6847H167.563V55.6811Z" fill="white"/>
<path d="M205.444 46.5641C205.484 49.1165 204.818 51.295 203.452 53.1067C202.553 54.3339 201.286 55.2017 199.644 55.7063C198.766 55.9786 197.74 56.1166 196.567 56.1166C194.401 56.1166 192.602 55.5829 191.175 54.5082C189.984 53.6332 189.041 52.4387 188.349 50.9283C187.658 49.4179 187.25 47.6897 187.133 45.7436L192.405 45.3624C192.638 47.4972 193.206 49.0439 194.106 50.0025C194.768 50.7286 195.533 51.0699 196.392 51.0299C197.605 50.99 198.57 50.3982 199.294 49.2473C199.666 48.6809 199.851 47.8748 199.851 46.8219C199.851 45.3006 199.16 43.7903 197.772 42.2908C196.676 41.2596 195.038 39.7093 192.85 37.6434C191.015 35.868 189.715 34.2813 188.954 32.8762C188.135 31.2969 187.723 29.5832 187.723 27.7315C187.723 24.3985 188.845 21.8751 191.091 20.1578C192.478 19.123 194.197 18.6074 196.247 18.6074C198.22 18.6074 199.91 19.0467 201.315 19.9217C202.407 20.6043 203.292 21.5592 203.966 22.7864C204.639 24.0136 205.043 25.426 205.182 27.0235L199.88 27.9893C199.724 26.4898 199.294 25.3207 198.592 24.482C198.082 23.8793 197.35 23.5779 196.396 23.5779C195.38 23.5779 194.608 24.0245 194.08 24.9213C193.651 25.6402 193.436 26.537 193.436 27.608C193.436 29.2818 194.157 30.9882 195.602 32.7201C196.148 33.3809 196.968 34.1615 198.064 35.0583C199.353 36.1294 200.201 36.8809 200.612 37.3094C201.978 38.6745 203.034 40.0179 203.776 41.3395C204.13 41.964 204.41 42.5377 204.625 43.0641C205.149 44.3639 205.422 45.533 205.444 46.5641Z" fill="white"/>
<path d="M227.559 46.5641C227.599 49.1165 226.933 51.295 225.568 53.1067C224.668 54.3339 223.401 55.2017 221.759 55.7063C220.882 55.9786 219.855 56.1166 218.683 56.1166C216.516 56.1166 214.718 55.5829 213.29 54.5082C212.1 53.6332 211.157 52.4387 210.465 50.9283C209.773 49.4179 209.365 47.6897 209.249 45.7436L214.521 45.3624C214.754 47.4972 215.322 49.0439 216.221 50.0025C216.884 50.7286 217.649 51.0699 218.508 51.0299C219.72 50.99 220.685 50.3982 221.41 49.2473C221.781 48.6809 221.967 47.8748 221.967 46.8219C221.967 45.3006 221.275 43.7903 219.888 42.2908C218.792 41.2596 217.153 39.7093 214.965 37.6434C213.13 35.868 211.83 34.2813 211.069 32.8762C210.25 31.2969 209.839 29.5832 209.839 27.7315C209.839 24.3985 210.96 21.8751 213.207 20.1578C214.594 19.123 216.312 18.6074 218.362 18.6074C220.336 18.6074 222.025 19.0467 223.43 19.9217C224.523 20.6043 225.408 21.5592 226.081 22.7864C226.755 24.0136 227.159 25.426 227.297 27.0235L221.996 27.9893C221.839 26.4898 221.41 25.3207 220.707 24.482C220.197 23.8793 219.465 23.5779 218.512 23.5779C217.496 23.5779 216.724 24.0245 216.196 24.9213C215.766 25.6402 215.551 26.537 215.551 27.608C215.551 29.2818 216.272 30.9882 217.718 32.7201C218.264 33.3809 219.083 34.1615 220.179 35.0583C221.468 36.1294 222.316 36.8809 222.728 37.3094C224.093 38.6745 225.149 40.0179 225.892 41.3395C226.245 41.964 226.525 42.5377 226.74 43.0641C227.268 44.3639 227.541 45.533 227.559 46.5641Z" fill="white"/>
<path d="M104.435 61.1446H95.307V68.6166H104.435V66.0751H99.669V63.9475H107.301V68.0757C107.301 69.1721 107.086 69.9164 106.656 70.3122C106.226 70.7079 105.404 70.9076 104.184 70.9076H95.5C94.2803 70.9076 93.4574 70.7115 93.0278 70.3122C92.5981 69.9164 92.3833 69.1721 92.3833 68.0757V61.7618C92.3833 60.6762 92.5981 59.9355 93.0278 59.5398C93.4574 59.144 94.2803 58.9443 95.5 58.9443H104.184C105.393 58.9443 106.216 59.1368 106.649 59.5252C107.082 59.9137 107.301 60.6108 107.301 61.6238V61.9397L104.431 62.4226V61.1446H104.435Z" fill="white"/>
<path d="M115.278 70.9115V65.538L108.728 58.9482H112.675L116.956 63.4104L121.293 58.9482H124.73L118.205 65.4799V70.9079H115.278V70.9115Z" fill="white"/>
<path d="M127.566 70.9115V58.9482H129.908L135.781 66.0463L141.624 58.9482H143.98V70.9115H141.264V62.6806L135.904 69.4774H135.336L129.908 62.8767V70.9152H127.566V70.9115Z" fill="white"/>
<path d="M170.825 61.1446H162.943V68.6166H170.825V66.0751L173.775 66.6706V68.0793C173.775 69.1649 173.556 69.9092 173.123 70.3085C172.69 70.7079 171.856 70.9076 170.629 70.9076H163.136C161.927 70.9076 161.104 70.7115 160.671 70.3122C160.237 69.9164 160.019 69.1721 160.019 68.0757V61.7618C160.019 60.6762 160.234 59.9355 160.663 59.5398C161.093 59.144 161.916 58.9443 163.136 58.9443H170.629C171.867 58.9443 172.7 59.144 173.13 59.5398C173.56 59.9355 173.775 60.6762 173.775 61.7618V62.9236L170.825 63.352V61.1446Z" fill="white"/>
<path d="M178.581 70.9115V58.9482H181.53V68.6714H190.935V70.9079H178.581V70.9115Z" fill="white"/>
<path d="M197.67 58.948V68.6711H206.023V58.948H208.972V68.0793C208.972 69.1649 208.754 69.9092 208.313 70.3085C207.872 70.7079 207.042 70.9076 205.812 70.9076H197.874C196.655 70.9076 195.832 70.7115 195.402 70.3122C194.972 69.9164 194.758 69.1721 194.758 68.0757V58.9443H197.67V58.948Z" fill="white"/>
<path d="M214.306 70.9115V58.9482H225.08C226.085 58.9482 226.813 59.1298 227.254 59.4929C227.698 59.8559 227.92 60.4477 227.92 61.2683V62.7061C227.92 63.2507 227.745 63.6972 227.392 64.0458C227.042 64.3943 226.533 64.6303 225.866 64.7502C226.54 64.8591 227.064 65.1169 227.439 65.5162C227.814 65.9156 228 66.4203 228 67.0303V68.5624C228 69.3467 227.691 69.9312 227.072 70.3233C226.453 70.7155 225.52 70.9115 224.275 70.9115H214.306ZM223.736 60.8979H217.186V63.7299H223.736C224.242 63.7299 224.592 63.6646 224.774 63.5375C224.96 63.4068 225.051 63.1889 225.051 62.8731V61.7403C225.051 61.428 224.96 61.2065 224.781 61.0831C224.603 60.9597 224.253 60.8979 223.736 60.8979ZM223.736 65.7014H217.186V68.7549H223.736C224.29 68.7549 224.668 68.6786 224.865 68.5189C225.065 68.3628 225.164 68.0868 225.164 67.6911V66.7797C225.164 66.384 225.065 66.1044 224.865 65.9447C224.668 65.7849 224.293 65.7014 223.736 65.7014Z" fill="white"/>
<path d="M11.4218 35.8901L11.4983 35.1131L11.1888 34.5685L5.98218 31.083L0.662663 33.8351L0 39.4519L0.779176 40.3414L2.02804 41.1873L2.35573 37.0156L8.84765 33.9331L11.4218 35.8901Z" fill="white"/>
<path d="M69.6451 67.4192C69.565 67.245 69.4995 67.1324 69.4995 67.1324C69.4995 67.1324 69.7252 66.5152 69.4703 65.9234C69.2155 65.3316 68.7676 65.5857 68.7676 65.5857C68.7676 65.0194 68.4472 63.6977 68.1669 62.6484C67.1328 63.0006 65.1485 63.8285 62.3412 65.6693C64.2637 63.7522 66.7359 62.0929 67.821 61.4031C67.7773 61.2579 67.7518 61.1708 67.7518 61.1708C68.0066 60.441 68.1195 59.3154 67.9193 57.3476C67.7226 55.3797 67.7518 53.8621 68.1996 52.6276C68.5127 51.7708 69.8017 47.4393 70.5626 44.8651C70.0456 41.7644 69.048 38.8562 69.048 38.8562C69.048 38.8562 70.4279 40.5772 71.1925 43.0788C71.4984 43.8521 72.9439 47.5155 73.9233 49.8428C75.0229 52.457 76.7414 54.0037 76.7414 54.0037L77.8119 56.7303C77.8119 56.7303 77.3313 60.3284 77.08 61.7626C76.847 63.0878 76.8033 67.412 76.8434 69.3472C77.2584 69.5069 77.659 69.674 78.0449 69.841C79.9455 70.6724 81.5257 71.6055 82.8365 72.5495C83.5173 70.1641 84.2856 67.383 84.5477 66.1195C85.0538 63.676 85.8439 57.9684 85.8148 55.7791C85.7857 53.5861 85.2505 52.9398 85.0539 52.4642C84.8572 51.985 82.4032 41.9532 81.5876 39.0014C80.772 36.0497 79.1918 33.8857 78.8532 33.4355C78.5146 32.9853 78.3471 31.4132 77.3021 28.6574C76.2608 25.9017 73.3298 23.5163 72.07 23.1787C70.8102 22.841 69.6087 22.4852 68.236 21.4722C66.8634 20.4592 63.5027 19.2793 60.5717 18.8508C57.6407 18.4188 56.1952 17.6527 55.2558 17.0899C54.3164 16.5271 52.4013 14.4867 51.5347 13.0235C50.6718 11.5639 51.1961 9.63236 51.1597 8.39427C51.1233 7.15619 50.2021 5.60225 48.793 3.71063C47.384 1.81901 44.1325 0 41.653 0C39.1735 0 35.8675 2.11673 34.6441 3.27857C33.4243 4.44041 29.8707 8.12924 29.8161 9.17853C29.7615 10.2278 32.0517 12.4571 32.0517 12.4571C32.0335 14.7989 33.6865 16.5598 33.9304 16.9338C34.1744 17.3078 33.479 21.0728 34.0797 21.356C34.6805 21.6356 35.4888 21.1128 35.6563 21.1491C35.8238 21.1854 36.4646 22.2746 36.7085 22.6123C36.9525 22.9499 37.6115 22.8011 37.6115 22.8011C37.6115 23.1024 37.9683 23.4582 38.3069 23.6252C38.5436 23.7414 38.54 24.0537 38.5181 24.228C38.7002 24.729 39.1371 25.5967 39.9891 25.5822C41.1833 25.5604 41.7331 24.8089 41.7331 24.8089C43.1276 24.5075 45.1994 22.8483 45.1994 22.8483C45.1994 22.8483 43.2187 25.23 41.8242 25.5314C41.8242 25.5314 41.2744 26.341 40.0801 26.3047C38.5218 26.2575 37.8336 24.9033 37.6807 24.5511C36.6102 24.8924 34.7133 25.8182 33.3661 28.2363C31.3927 31.7763 31.957 37.7343 31.957 37.7343C29.8707 40.7115 29.1389 45.5477 29.1389 46.39C29.1389 47.2323 28.123 48.1872 27.5623 48.1872C26.998 48.1872 20.1237 47.0072 18.995 46.7821C17.9501 46.5752 14.2399 44.2878 13.7046 43.9574L14.1088 39.0632L8.73466 34.9786L3.21125 37.6L2.75977 43.3692L3.28407 44.2297L8.1703 47.4538L10.0163 46.6151C10.7846 47.0907 13.2131 48.6229 14.2035 49.5887C15.3868 50.7396 18.2887 54.0291 20.517 55.7428C22.7416 57.4565 26.5465 59.1702 27.4495 59.5079C28.3524 59.8455 29.7615 60.8004 30.4096 61.08C31.0577 61.3596 31.9024 60.6007 32.7762 59.9835C33.6501 59.3663 35.8747 56.4145 36.9488 54.7552C37.677 53.6297 38.6856 51.0845 39.2645 49.5596C38.3288 46.6913 38.7257 42.5959 38.7257 42.5959C38.7257 42.5959 39.3992 46.3718 40.2003 48.917L40.5571 49.3309C40.5571 49.3309 41.3472 53.0125 41.2889 53.9964C41.2343 54.9803 39.9636 56.2438 39.6541 58.2698C39.3446 60.2921 40.3313 61.9223 40.3313 61.9223L40.284 62.0312C41.1578 62.9062 42.3849 63.9955 44.0233 65.1537C42.1045 64.3876 40.7937 63.5416 39.9272 62.8482L39.767 63.2149C39.1735 63.0733 38.8094 63.9737 38.5545 64.7035C38.2997 65.4332 38.0193 67.5718 38.0193 67.5718C37.2365 68.0837 36.9853 69.3145 36.8578 69.9608C51.5639 66.3482 62.1264 66.1521 69.6451 67.4192Z" fill="white"/>
<path d="M87.5953 80.0009C87.5953 80.0009 78.4818 53.4457 12.9983 78.9371C76.6613 59.5526 87.5953 80.0009 87.5953 80.0009Z" fill="white"/>
</svg>
