<svg width="160" height="80" viewBox="0 0 160 80" fill="none" xmlns="http://www.w3.org/2000/svg">
<path d="M76.473 39.7466C76.9438 38.5046 77.2225 37.0464 77.2955 35.3941C79.7957 32.8827 79.3411 26.3799 76.2755 19.3381C76.4486 19.267 76.6191 19.1849 76.7841 19.0892L80.8888 16.7146C82.8802 15.5628 83.5702 12.9994 82.4311 10.986C81.2919 8.97246 78.7567 8.27485 76.7652 9.42659L72.6606 11.8012C72.509 11.8887 72.3656 11.9845 72.2304 12.0884C68.4396 6.63341 63.9832 3.13444 60.674 2.98944C56.472 -0.0143779 52.5973 -0.785852 49.7535 0.817281C46.88 2.43683 45.4947 6.23127 45.8491 11.503C46.1278 15.6723 47.4699 20.405 49.6751 25.0941L28.9733 37.0848C26.1187 32.5134 22.9475 28.5931 19.8359 25.8245C15.7556 22.1942 12.1813 20.944 9.76502 22.3036C7.8331 23.3925 6.91584 25.9504 7.08901 29.7257C6.85361 29.7858 6.62634 29.8734 6.40988 29.9937C4.61325 31.006 4.1695 33.8621 5.11922 38.2556C5.79025 41.3552 7.10525 44.9691 8.89646 48.6787C8.87752 48.6897 8.85859 48.6979 8.83965 48.7088L2.09147 52.5853C0.100028 53.7371 -0.589946 56.3005 0.549182 58.3112C1.49349 59.98 3.39836 60.746 5.15711 60.3028C5.51968 60.2125 5.87413 60.0703 6.21506 59.8733L12.9335 56.0159C12.9551 56.005 12.9768 55.9913 12.9957 55.9776C17.4169 62.8033 22.8149 68.2857 26.2242 67.4266C26.4596 67.3664 26.6869 67.2789 26.9006 67.1558C27.1117 67.0382 27.3038 66.8904 27.477 66.7236C30.0583 68.5155 32.3257 69.2048 34.1304 68.748C34.4903 68.6577 34.8285 68.5209 35.1505 68.3404C36.3898 67.6427 37.2069 66.3159 37.5911 64.4639C37.7075 64.4721 37.8238 64.483 37.9429 64.483H49.2773V74.7885C49.2773 77.6665 51.5854 80 54.4318 80H138.938C141.785 80 144.093 77.6665 144.093 74.7885V64.483H155.427C157.952 64.483 160 62.4121 160 59.8596V39.7439H76.473V39.7466ZM50.5653 2.28362C50.9197 2.08392 51.2985 1.93344 51.699 1.83222C53.8771 1.28234 56.7101 2.18241 59.8325 4.44211C63.7072 7.24896 67.4871 11.7738 70.4716 17.1878C73.4561 22.6018 75.2797 28.2319 75.6017 33.0413C75.7884 35.8181 75.461 38.0942 74.671 39.7466H72.2655C73.061 35.271 71.0452 27.5015 66.6943 19.6117C60.7552 8.8384 52.7137 1.92251 48.7362 4.1658C48.7227 4.17401 48.7091 4.18221 48.6956 4.19041C49.1826 3.35328 49.8077 2.7104 50.5653 2.28362ZM48.9012 14.5178C48.3953 11.1474 48.8525 8.79464 50.1513 8.06147C50.2974 7.9794 50.457 7.91647 50.6275 7.8727C51.9587 7.53621 53.961 8.42258 56.242 10.3814C59.0587 12.7997 61.9322 16.5285 64.3295 20.8783C66.7295 25.2281 68.3557 29.66 68.9077 33.3532C69.4001 36.6361 68.978 38.9478 67.7577 39.7439H65.0736C64.04 39.3472 62.8495 38.5867 61.5696 37.4896C59.6891 35.8728 57.7815 33.6733 56.0093 31.0935L59.2264 29.2332C59.313 29.184 59.3942 29.1293 59.4754 29.0745C60.6064 30.1169 61.667 30.5765 62.3543 30.188C63.6341 29.4658 63.1254 26.0817 61.2206 22.6264C59.3157 19.1712 56.7344 16.9553 55.4546 17.6748C54.5996 18.1563 54.5427 19.8251 55.1678 21.9097C55.1488 21.9206 55.1272 21.9316 55.1083 21.9425L51.8749 23.8138C50.3569 20.5336 49.3206 17.3137 48.9012 14.5178ZM53.8392 32.3492C55.828 35.2354 58.0278 37.7523 60.306 39.7439H41.0383L53.8392 32.3492ZM33.3755 44.173V45.2427C33.2457 44.9636 33.1158 44.6818 32.9832 44.4001L33.3755 44.173ZM17.7227 57.5808C17.2492 57.8489 16.5944 57.7094 15.8638 57.2552C15.3254 56.5002 14.7842 55.6959 14.2404 54.8451C15.1765 53.5483 15.3335 51.7674 14.4947 50.2819C13.6613 48.8101 12.0812 48.0413 10.5118 48.1863C10.3873 47.9346 10.2683 47.6802 10.1492 47.4312C10.0356 46.2631 10.2493 45.3959 10.8257 45.0703C12.1055 44.3481 14.6868 46.5668 16.5917 50.022C18.4938 53.4745 19.0025 56.8613 17.7227 57.5808ZM26.097 65.6922C25.3881 66.0916 24.0839 65.6594 22.428 64.4228C22.4902 64.4091 22.5498 64.39 22.6012 64.3599C24.1489 63.4872 21.8354 56.3169 17.4386 48.3395C13.0417 40.3649 8.22274 34.6062 6.67504 35.4761C6.55599 35.5418 6.46129 35.6485 6.38823 35.788C6.08789 33.159 6.56952 31.8294 7.22161 31.4628C7.30278 31.4163 7.38936 31.3835 7.48677 31.3589C9.66762 30.809 15.6582 35.8236 21.2618 45.984C23.8512 50.6813 25.7399 55.3949 26.5759 59.255C27.4526 63.3066 26.9033 65.2381 26.097 65.6922ZM34.3469 66.8768C33.335 67.4458 31.8874 67.268 30.1503 66.387C30.2666 66.3624 30.3748 66.3241 30.4777 66.2667C32.8425 64.9344 30.0177 55.2581 24.1705 44.6545C18.3234 34.0508 11.6672 26.5331 9.30233 27.8654C9.05881 28.0021 8.87212 28.2292 8.73683 28.5329C8.78554 26.0871 9.41868 24.4238 10.5795 23.77C12.3084 22.7961 15.2848 24.0025 18.7428 27.083C22.4686 30.3986 26.3027 35.4597 29.5415 41.3333C31.0513 44.0718 32.3419 46.8294 33.3755 49.494V59.8596C33.3755 61.7062 34.4497 63.2957 35.9974 64.0371C35.7269 65.4323 35.1749 66.4117 34.3469 66.8768Z" fill="white"/>
<path d="M60.1248 75.8991C59.9354 76.211 59.6053 76.4928 59.1291 76.7362C58.6529 76.9825 58.0955 77.1056 57.4542 77.1056C56.7237 77.1056 56.0445 76.9688 55.4141 76.6952C54.7836 76.4216 54.2344 76.0277 53.7636 75.5134C53.2927 74.9991 52.922 74.378 52.6515 73.6503C52.3809 72.9226 52.2456 72.1074 52.2456 71.2019C52.2456 70.2854 52.389 69.4483 52.6758 68.6932C52.9626 67.9382 53.3441 67.2898 53.8204 66.7481C54.2966 66.2065 54.8377 65.7851 55.4465 65.4815C56.0553 65.1806 56.6858 65.0273 57.3379 65.0273C57.9358 65.0273 58.4256 65.0903 58.8152 65.2106C59.2021 65.3338 59.5133 65.4733 59.7514 65.6292C59.9895 65.7852 60.1681 65.9438 60.2899 66.0998C60.4116 66.2557 60.5063 66.3679 60.5712 66.4362L60.9203 65.2298H63.3907V70.176H60.4224C60.4116 69.8395 60.3521 69.5386 60.2493 69.2705C60.1437 69.0024 60.003 68.778 59.8272 68.6002C59.6513 68.4224 59.4511 68.2856 59.2292 68.1899C59.0073 68.0941 58.7746 68.0476 58.5311 68.0476C58.1983 68.0476 57.8925 68.1351 57.6111 68.3075C57.3297 68.4798 57.0889 68.7096 56.8887 68.9941C56.6885 69.2787 56.5342 69.6152 56.4233 70.0009C56.3124 70.3866 56.2583 70.7861 56.2583 71.1991C56.2583 71.6232 56.307 72.0226 56.4071 72.3974C56.5072 72.7722 56.6533 73.0977 56.8454 73.3795C57.0375 73.6586 57.2756 73.8802 57.5597 74.0416C57.8411 74.203 58.1658 74.285 58.5311 74.285C59.0073 74.285 59.3618 74.203 59.5918 74.0416C59.8244 73.8802 60.0003 73.6859 60.1221 73.4643V72.7612H59.1101V70.9666H64.6164V72.7612H63.9534V76.9551H60.6362L60.1248 75.8991Z" fill="#F41E1E"/>
<path d="M71.056 70.5151C71.0668 70.4358 71.0993 70.3373 71.148 70.2142C71.1967 70.0911 71.2536 69.9625 71.3131 69.8284C71.3726 69.6944 71.4375 69.5604 71.5052 69.4263C71.5701 69.2923 71.6269 69.1746 71.6702 69.0734L72.5821 67.38H71.6702V65.2324H76.132V67.38H75.2364L72.1681 72.8295V74.7746H73.0962V76.955H67.7875V74.7746H68.7318V72.7967L65.5146 67.38H64.7029V65.2324H70.3769V67.38H69.5137L70.477 69.1582C70.4987 69.2375 70.5365 69.336 70.5852 69.4591C70.6339 69.5822 70.6881 69.7108 70.7422 69.8448C70.7963 69.9789 70.8477 70.1075 70.891 70.2306C70.9343 70.3537 70.9694 70.4495 70.9911 70.5151H71.056Z" fill="#F41E1E"/>
<path d="M87.8915 68.1841C87.859 68.3756 87.8184 68.5808 87.7751 68.8051C87.7318 69.0294 87.6858 69.2428 87.6425 69.4507C87.5993 69.6586 87.5533 69.8474 87.51 70.0197C87.4667 70.1921 87.4315 70.3289 87.4099 70.4301L85.6673 76.9548H82.2013L80.3424 70.2632C80.3207 70.1948 80.2937 70.0882 80.2585 69.935C80.226 69.7845 80.1936 69.6149 80.1584 69.4234C80.1259 69.2346 80.0907 69.0321 80.0583 68.8188C80.0258 68.6054 80.0042 68.3947 79.9933 68.1813H79.9257V74.7881H80.87V76.9521H76.3757V74.7881H77.2714V67.3935H76.392V65.2295H82.6775L84.3523 71.5025L85.946 65.2295H92.2667V67.3935H91.3549V74.7717H92.2667V76.9521H87.0256V74.7717H87.9699V68.1813H87.8915V68.1841Z" fill="#F41E1E"/>
<path d="M107.96 74.8599C107.673 75.1745 107.351 75.4727 106.997 75.7572C106.642 76.0417 106.255 76.2934 105.836 76.5123C105.417 76.7311 104.962 76.9035 104.475 77.0321C103.988 77.1607 103.474 77.2263 102.933 77.2263C102.048 77.2263 101.247 77.0895 100.527 76.8159C99.8075 76.5424 99.1933 76.1457 98.6873 75.6259C98.1786 75.1061 97.7836 74.4742 97.5022 73.7301C97.2208 72.986 97.0801 72.1461 97.0801 71.205C97.0801 70.242 97.2397 69.3803 97.5617 68.6143C97.881 67.8483 98.2922 67.1999 98.7901 66.6692C99.288 66.1384 99.8318 65.7336 100.424 65.4518C101.017 65.1727 101.582 65.0332 102.124 65.0332C102.532 65.0332 102.889 65.0825 103.192 65.1837C103.495 65.2849 103.752 65.3998 103.964 65.5284C104.175 65.657 104.337 65.7855 104.453 65.9141C104.57 66.0427 104.643 66.1302 104.678 66.174L105.059 65.2356H107.665V69.9985H104.697C104.686 69.7304 104.64 69.4678 104.564 69.2107C104.486 68.9535 104.38 68.7264 104.242 68.5322C104.104 68.338 103.926 68.1793 103.712 68.0616C103.495 67.944 103.238 67.8866 102.941 67.8866C102.643 67.8866 102.373 67.9741 102.129 68.1465C101.886 68.3188 101.677 68.5568 101.507 68.8605C101.336 69.1614 101.204 69.5143 101.109 69.9165C101.014 70.3186 100.968 70.7481 100.968 71.2077C100.968 71.6208 101.02 72.0175 101.125 72.3978C101.231 72.778 101.385 73.1145 101.591 73.4045C101.796 73.6945 102.048 73.927 102.345 74.0994C102.643 74.2717 102.992 74.3593 103.39 74.3593C103.734 74.3593 104.058 74.2799 104.369 74.124C104.678 73.9681 104.951 73.793 105.181 73.596C105.414 73.3991 105.603 73.2158 105.755 73.0434C105.904 72.8711 105.996 72.7616 106.028 72.7151L107.96 74.8599Z" fill="#F41E1E"/>
<path d="M108.623 65.2324H113.864V67.4456H112.985V74.7227H115.125V72.5915H117.912V76.9522H108.623V74.7227H109.535V67.4456H108.623V65.2324Z" fill="#F41E1E"/>
<path d="M118.575 65.2324H123.848V67.3964H122.953V71.0185C122.953 71.6887 122.988 72.2359 123.061 72.6627C123.131 73.0867 123.239 73.4205 123.383 73.6612C123.526 73.9019 123.699 74.0661 123.905 74.1563C124.111 74.2466 124.343 74.2904 124.609 74.2904C124.863 74.2904 125.093 74.2548 125.296 74.181C125.502 74.1098 125.677 73.9567 125.826 73.7296C125.975 73.4998 126.089 73.1715 126.167 72.7393C126.246 72.3098 126.283 71.7298 126.283 71.0021V67.4484H125.388V65.2352H130.296V67.3991H129.4V71.4754C129.4 73.467 128.997 74.9251 128.188 75.8525C127.382 76.7799 126.197 77.245 124.638 77.245C122.958 77.1903 121.681 76.706 120.807 75.795C119.933 74.884 119.497 73.4724 119.497 71.5601V67.4183H118.569V65.2324H118.575Z" fill="#F41E1E"/>
<path d="M130.967 76.955V74.7746H131.93V67.3964H130.967V65.2324H137.155C138.538 65.2324 139.561 65.4814 140.223 65.9793C140.886 66.4772 141.219 67.1857 141.219 68.0995C141.219 68.4578 141.192 68.767 141.135 69.0296C141.081 69.2922 140.992 69.5275 140.87 69.7327C140.748 69.9406 140.583 70.1212 140.372 70.2771C140.161 70.433 139.901 70.5725 139.593 70.6957C139.891 70.7859 140.175 70.9063 140.44 71.0568C140.705 71.2072 140.938 71.4015 141.135 71.6368C141.336 71.872 141.492 72.1483 141.609 72.4657C141.725 72.7858 141.782 73.1441 141.782 73.5463C141.782 74.7309 141.43 75.5953 140.729 76.137C140.026 76.6787 138.873 76.9495 137.271 76.9495H130.967V76.955ZM135.361 67.4456V69.9625H136.373C136.814 69.9625 137.115 69.8476 137.269 69.6178C137.423 69.388 137.501 69.0734 137.501 68.6712C137.501 68.28 137.399 67.9791 137.196 67.7657C136.99 67.5523 136.728 67.4483 136.408 67.4483H135.361V67.4456ZM136.69 74.7746C137.044 74.7746 137.355 74.6488 137.626 74.3971C137.897 74.1454 138.032 73.7898 138.032 73.3329C138.032 72.9089 137.915 72.5559 137.683 72.2769C137.45 71.9979 137.101 71.8583 136.638 71.8583H135.361V74.7774H136.69V74.7746Z" fill="#F41E1E"/>
<path d="M36.3059 42.7969H52.1428V48.7142H47.4537V46.3314H43.4572V50.9904H48.49V54.5523H43.4572V57.9528H46.1576V61.5147H36.3059V57.9528H37.9483V46.3314H36.3059V42.7969Z" fill="#F41E1E"/>
<path d="M53.2034 42.7969H61.9971V46.3314H60.3547V57.9528H61.9971V61.5147H53.2034V57.9528H54.8728V46.3314H53.2034V42.7969Z" fill="#F41E1E"/>
<path d="M80.8267 42.7969V49.7593H76.9331V46.3314H74.7089V57.9528H76.906V61.5147H67.0543V57.9528H69.227V46.3314H66.9488V49.7593H63.0552V42.7969H80.8267Z" fill="#F41E1E"/>
<path d="M102.172 46.2499H100.424V61.5125H94.7315L87.9779 51.311V58.0601H90.018V61.5153H81.8872V58.0601H83.4484V46.2499H81.9115V42.7947H89.5121L96.0275 52.6214V46.2472H94.2012V42.792H102.172V46.2499Z" fill="#F41E1E"/>
<path d="M103.498 42.7969H119.468V48.7142H114.887V46.3314H110.65V50.0274H115.682V53.5893H110.65V57.9528H114.887V55.4633H119.468V61.5147H103.498V57.9528H105.168V46.3314H103.498V42.7969Z" fill="#F41E1E"/>
<path d="M120.791 61.5145V54.7655H125.718C125.718 55.3181 125.84 55.7695 126.089 56.1169C126.335 56.4644 126.633 56.738 126.976 56.9349C127.32 57.1319 127.682 57.266 128.061 57.3371C128.44 57.4082 128.773 57.4438 129.054 57.4438C129.284 57.4438 129.53 57.4274 129.796 57.3891C130.061 57.3535 130.304 57.2878 130.523 57.1894C130.743 57.0909 130.929 56.9568 131.081 56.7872C131.23 56.6176 131.305 56.3905 131.305 56.1033C131.305 55.764 131.054 55.4823 130.55 55.2607C130.047 55.0391 129.419 54.8175 128.67 54.6041C127.92 54.3907 127.103 54.1445 126.221 53.8682C125.339 53.5919 124.522 53.2116 123.77 52.7301C123.02 52.2486 122.393 51.6358 121.889 50.8972C121.386 50.1558 121.134 49.2147 121.134 48.0712C121.134 47.0891 121.343 46.2328 121.757 45.4996C122.171 44.7692 122.693 44.17 123.321 43.705C123.946 43.2399 124.628 42.8925 125.361 42.6599C126.094 42.4274 126.787 42.3125 127.439 42.3125C127.985 42.3125 128.532 42.3617 129.081 42.4602C129.628 42.5587 130.15 42.7147 130.645 42.928C131.14 43.1414 131.587 43.4232 131.982 43.7706C132.38 44.1181 132.71 44.5421 132.975 45.0427L133.24 42.794H137.797V49.5157H133.002C133.002 49.015 132.913 48.5746 132.737 48.1888C132.561 47.8058 132.317 47.4803 132.009 47.2122C131.7 46.9441 131.338 46.7444 130.924 46.6103C130.51 46.4763 130.072 46.4106 129.612 46.4106C129.417 46.4106 129.214 46.4407 129.003 46.5036C128.792 46.5666 128.592 46.6568 128.408 46.7717C128.221 46.8866 128.072 47.0343 127.958 47.2122C127.842 47.39 127.785 47.5979 127.785 47.8277C127.785 48.2928 128.045 48.6758 128.567 48.9795C129.087 49.2831 129.736 49.5676 130.515 49.8357C131.292 50.1038 132.131 50.3938 133.032 50.7057C133.933 51.0176 134.771 51.406 135.548 51.8711C136.325 52.3362 136.974 52.9162 137.493 53.611C138.016 54.3059 138.275 55.1813 138.275 56.2346C138.275 57.2878 138.059 58.1715 137.626 58.8855C137.193 59.5995 136.638 60.185 135.957 60.6391C135.277 61.0932 134.523 61.4188 133.692 61.6158C132.861 61.8127 132.049 61.9112 131.254 61.9112C130.583 61.9112 129.966 61.8401 129.401 61.6978C128.835 61.5556 128.324 61.3668 127.864 61.1343C127.404 60.9017 126.995 60.6391 126.633 60.3436C126.27 60.0482 125.967 59.75 125.718 59.4463L125.426 61.5091H120.791V61.5145Z" fill="#F41E1E"/>
<path d="M139.596 61.5145V54.7655H144.523C144.523 55.3181 144.645 55.7695 144.894 56.1169C145.14 56.4644 145.437 56.738 145.781 56.9349C146.125 57.1319 146.487 57.266 146.866 57.3371C147.245 57.4082 147.578 57.4438 147.859 57.4438C148.089 57.4438 148.335 57.4274 148.601 57.3891C148.866 57.3535 149.109 57.2878 149.328 57.1894C149.548 57.0909 149.734 56.9568 149.886 56.7872C150.035 56.6176 150.11 56.3905 150.11 56.1033C150.11 55.764 149.859 55.4823 149.355 55.2607C148.852 55.0391 148.224 54.8175 147.475 54.6041C146.725 54.3907 145.908 54.1445 145.026 53.8682C144.144 53.5919 143.327 53.2116 142.575 52.7301C141.825 52.2486 141.197 51.6358 140.694 50.8972C140.191 50.1586 139.939 49.2147 139.939 48.0712C139.939 47.0891 140.148 46.2328 140.562 45.4996C140.976 44.7692 141.498 44.17 142.126 43.705C142.751 43.2399 143.432 42.8925 144.166 42.6599C144.899 42.4274 145.592 42.3125 146.244 42.3125C146.79 42.3125 147.337 42.3617 147.886 42.4602C148.433 42.5587 148.955 42.7147 149.45 42.928C149.945 43.1414 150.392 43.4232 150.787 43.7706C151.184 44.1181 151.515 44.5421 151.78 45.0427L152.045 42.794H156.601V49.5157H151.807C151.807 49.015 151.718 48.5746 151.542 48.1888C151.366 47.8058 151.122 47.4803 150.814 47.2122C150.505 46.9441 150.143 46.7444 149.729 46.6103C149.315 46.4763 148.876 46.4106 148.416 46.4106C148.222 46.4106 148.019 46.4407 147.808 46.5036C147.597 46.5666 147.396 46.6568 147.212 46.7717C147.026 46.8866 146.877 47.0343 146.763 47.2122C146.647 47.39 146.59 47.5979 146.59 47.8277C146.59 48.2928 146.85 48.6758 147.372 48.9795C147.892 49.2831 148.541 49.5676 149.32 49.8357C150.097 50.1038 150.936 50.3938 151.837 50.7057C152.738 51.0176 153.576 51.406 154.353 51.8711C155.13 52.3362 155.779 52.9162 156.298 53.611C156.821 54.3059 157.08 55.1813 157.08 56.2346C157.08 57.2878 156.864 58.1715 156.431 58.8855C155.998 59.5995 155.443 60.185 154.762 60.6391C154.082 61.0932 153.327 61.4188 152.497 61.6158C151.666 61.8127 150.854 61.9112 150.059 61.9112C149.388 61.9112 148.771 61.8401 148.205 61.6978C147.64 61.5556 147.129 61.3668 146.669 61.1343C146.209 60.9017 145.8 60.6391 145.437 60.3436C145.075 60.0482 144.772 59.75 144.523 59.4463L144.231 61.5091H139.596V61.5145Z" fill="#F41E1E"/>
</svg>
