<svg width="300" height="80" viewBox="0 0 300 80" fill="none" xmlns="http://www.w3.org/2000/svg">
<path d="M66.8716 7.35547H88.6752V15.3918H82.2234V12.1544H76.7188V18.48H83.6443V23.3187H76.7188V27.9385H80.4384V32.7772H66.8766V27.9385H69.1352V12.1544H66.8766V7.35547H66.8716Z" fill="white"/>
<path d="M90.1311 7.35547H102.237V12.1544H99.9784V27.9385H102.237V32.7772H90.1311V27.9385H92.4296V12.1544H90.1311V7.35547Z" fill="white"/>
<path d="M128.159 7.35547V16.8091H122.799V12.1544H119.738V27.9385H122.764V32.7772H109.202V27.9385H112.194V12.1544H109.058V16.8091H103.698V7.35547H128.159Z" fill="white"/>
<path d="M157.546 12.045H155.138V32.7723H147.3L138.001 18.9176V28.0828H140.808V32.7723H129.615V28.0828H131.764V12.045H129.65V7.35547H140.115L149.085 20.7029V12.0499H146.567V7.36043H157.541V12.045H157.546Z" fill="white"/>
<path d="M159.371 7.35547H181.354V15.3918H175.047V12.1544H169.213V17.1721H176.139V22.0058H169.213V27.9336H175.047V24.552H181.354V32.7723H159.371V27.9336H161.67V12.1544H159.371V7.35547Z" fill="white"/>
<path d="M183.179 32.7774V23.6123H189.96C189.96 24.3632 190.129 24.9749 190.468 25.4473C190.807 25.9197 191.216 26.2877 191.69 26.5562C192.164 26.8248 192.662 27.0038 193.186 27.1033C193.709 27.1978 194.163 27.2475 194.552 27.2475C194.866 27.2475 195.21 27.2226 195.574 27.1729C195.938 27.1232 196.272 27.0336 196.576 26.8994C196.88 26.7651 197.135 26.5861 197.344 26.3524C197.548 26.1236 197.653 25.8103 197.653 25.4274C197.653 24.9649 197.309 24.587 196.616 24.2836C195.923 23.9803 195.06 23.6819 194.028 23.3934C192.996 23.105 191.869 22.7718 190.658 22.3939C189.441 22.0159 188.32 21.5037 187.287 20.8473C186.255 20.1909 185.393 19.3604 184.7 18.3558C184.007 17.3513 183.663 16.0732 183.663 14.5167C183.663 13.184 183.947 12.0203 184.52 11.0257C185.089 10.0311 185.807 9.2205 186.669 8.58894C187.532 7.95737 188.469 7.48495 189.476 7.17166C190.483 6.85836 191.441 6.69922 192.338 6.69922C193.091 6.69922 193.844 6.76386 194.597 6.89813C195.35 7.0324 196.068 7.24127 196.746 7.53467C197.424 7.8231 198.042 8.20603 198.586 8.67846C199.134 9.15089 199.588 9.72776 199.952 10.4041L200.316 7.35068H206.588V16.4761H199.987C199.987 15.7997 199.867 15.198 199.623 14.6759C199.378 14.1537 199.044 13.7111 198.621 13.3481C198.197 12.985 197.698 12.7115 197.125 12.5325C196.551 12.3535 195.953 12.259 195.32 12.259C195.051 12.259 194.771 12.3037 194.482 12.3883C194.193 12.4728 193.919 12.5922 193.659 12.7513C193.405 12.9105 193.196 13.1094 193.041 13.353C192.882 13.5967 192.802 13.8752 192.802 14.1885C192.802 14.8201 193.161 15.3422 193.879 15.75C194.597 16.1628 195.489 16.5507 196.561 16.9137C197.628 17.2767 198.785 17.6696 200.027 18.0972C201.268 18.52 202.42 19.0471 203.492 19.6786C204.564 20.3102 205.456 21.0959 206.169 22.0408C206.887 22.9857 207.246 24.1742 207.246 25.6064C207.246 27.0386 206.947 28.2371 206.354 29.2068C205.76 30.1766 204.993 30.9722 204.055 31.5889C203.118 32.2055 202.081 32.6481 200.939 32.9167C199.797 33.1852 198.68 33.3145 197.583 33.3145C196.661 33.3145 195.808 33.22 195.031 33.0261C194.253 32.8321 193.55 32.5785 192.917 32.2602C192.283 31.9469 191.72 31.5889 191.221 31.1861C190.723 30.7882 190.304 30.3805 189.965 29.9677L189.566 32.7675H183.179V32.7774Z" fill="white"/>
<path d="M209.066 32.7774V23.6123H215.847C215.847 24.3632 216.016 24.9749 216.355 25.4473C216.694 25.9197 217.103 26.2877 217.577 26.5562C218.051 26.8248 218.549 27.0038 219.073 27.1033C219.596 27.1978 220.05 27.2475 220.439 27.2475C220.753 27.2475 221.097 27.2226 221.461 27.1729C221.825 27.1232 222.159 27.0336 222.463 26.8994C222.767 26.7651 223.022 26.5861 223.231 26.3524C223.435 26.1236 223.54 25.8103 223.54 25.4274C223.54 24.9649 223.196 24.587 222.503 24.2836C221.81 23.9803 220.947 23.6819 219.915 23.3934C218.883 23.105 217.756 22.7718 216.545 22.3939C215.328 22.0159 214.206 21.5037 213.169 20.8473C212.137 20.1909 211.275 19.3604 210.582 18.3558C209.889 17.3513 209.545 16.0732 209.545 14.5167C209.545 13.184 209.829 12.0203 210.402 11.0257C210.971 10.0311 211.689 9.2205 212.551 8.58894C213.414 7.95737 214.351 7.48495 215.358 7.17166C216.365 6.85836 217.323 6.69922 218.22 6.69922C218.973 6.69922 219.726 6.76386 220.479 6.89813C221.232 7.0324 221.95 7.24127 222.628 7.53467C223.306 7.8231 223.924 8.20603 224.468 8.67846C225.016 9.15089 225.47 9.72776 225.834 10.4041L226.198 7.35068H232.47V16.4761H225.869C225.869 15.7997 225.749 15.198 225.505 14.6759C225.26 14.1537 224.926 13.7111 224.502 13.3481C224.079 12.985 223.58 12.7115 223.007 12.5325C222.433 12.3535 221.835 12.259 221.202 12.259C220.932 12.259 220.653 12.3037 220.364 12.3883C220.075 12.4728 219.801 12.5922 219.541 12.7513C219.287 12.9105 219.078 13.1094 218.923 13.353C218.764 13.5967 218.684 13.8752 218.684 14.1885C218.684 14.8201 219.043 15.3422 219.761 15.75C220.479 16.1628 221.371 16.5507 222.443 16.9137C223.51 17.2767 224.667 17.6696 225.908 18.0972C227.15 18.52 228.302 19.0471 229.374 19.6786C230.446 20.3102 231.338 21.0959 232.051 22.0408C232.764 22.9857 233.128 24.1742 233.128 25.6064C233.128 27.0386 232.829 28.2371 232.236 29.2068C231.642 30.1766 230.874 30.9722 229.937 31.5889C229 32.2055 227.963 32.6481 226.821 32.9167C225.679 33.1852 224.562 33.3145 223.465 33.3145C222.543 33.3145 221.69 33.22 220.913 33.0261C220.135 32.8321 219.432 32.5785 218.799 32.2602C218.165 31.9469 217.602 31.5889 217.103 31.1861C216.605 30.7882 216.186 30.3805 215.847 29.9677L215.448 32.7675H209.066V32.7774Z" fill="white"/>
<path d="M99.2204 60.4707C98.9612 60.8934 98.5025 61.2763 97.8493 61.6095C97.1961 61.9427 96.4283 62.1117 95.5458 62.1117C94.5386 62.1117 93.6062 61.9278 92.7387 61.5548C91.8711 61.1818 91.1133 60.6497 90.4651 59.9485C89.8169 59.2523 89.3083 58.4069 88.9344 57.4223C88.5605 56.4376 88.376 55.3286 88.376 54.0953C88.376 52.8521 88.5754 51.7133 88.9693 50.6889C89.3632 49.6644 89.8917 48.7842 90.5449 48.0482C91.198 47.3122 91.9459 46.7403 92.7836 46.3276C93.6212 45.9198 94.4888 45.7109 95.3862 45.7109C96.2089 45.7109 96.887 45.7955 97.4205 45.9596C97.954 46.1287 98.3828 46.3176 98.7119 46.5265C99.0409 46.7403 99.2853 46.9542 99.4548 47.163C99.6243 47.3769 99.7539 47.5261 99.8437 47.6206L100.322 45.9795H103.723V52.6979H99.6343C99.6193 52.2404 99.5395 51.8326 99.395 51.4696C99.2504 51.1066 99.0559 50.8032 98.8116 50.5596C98.5673 50.3159 98.2931 50.1319 97.9889 50.0026C97.6848 49.8733 97.3656 49.8087 97.0316 49.8087C96.5729 49.8087 96.1541 49.928 95.7652 50.1617C95.3763 50.3955 95.0472 50.7088 94.773 51.0966C94.4987 51.4845 94.2843 51.942 94.1347 52.4642C93.9802 52.9864 93.9054 53.5284 93.9054 54.0904C93.9054 54.6672 93.9752 55.2093 94.1098 55.7165C94.2444 56.2238 94.4489 56.6713 94.7131 57.0493C94.9774 57.4272 95.3065 57.7306 95.6954 57.9494C96.0843 58.1682 96.528 58.2776 97.0316 58.2776C97.6847 58.2776 98.1734 58.1682 98.4925 57.9494C98.8116 57.7306 99.0559 57.467 99.2254 57.1637V56.2088H97.8344V53.7721H105.413V56.2088H104.501V61.9029H99.9334L99.2204 60.4707Z" fill="white"/>
<path d="M114.268 53.1603C114.283 53.0558 114.328 52.9166 114.393 52.7525C114.463 52.5834 114.537 52.4093 114.622 52.2303C114.707 52.0463 114.792 51.8673 114.886 51.6833C114.976 51.4993 115.056 51.3402 115.116 51.2059L116.372 48.9034H115.116V45.9893H121.258V48.9034H120.027L115.804 56.3032V58.9438H117.08V61.9027H109.776V58.9438H111.077V56.2584L106.65 48.9034H105.533V45.9893H113.341V48.9034H112.154L113.48 51.3203C113.51 51.4247 113.56 51.5639 113.63 51.728C113.7 51.8971 113.77 52.0712 113.844 52.2502C113.919 52.4342 113.989 52.6083 114.049 52.7724C114.109 52.9414 114.153 53.0658 114.188 53.1603H114.268Z" fill="white"/>
<path d="M137.443 49.9927C137.398 50.2513 137.343 50.5298 137.283 50.8381C137.223 51.1414 137.164 51.4348 137.099 51.7133C137.039 51.9968 136.979 52.2504 136.914 52.4891C136.855 52.7228 136.81 52.9118 136.775 53.0461L134.376 61.9029H129.605L127.047 52.8173C127.017 52.7278 126.977 52.5786 126.932 52.3747C126.888 52.1708 126.843 51.9371 126.798 51.6785C126.753 51.4199 126.708 51.1464 126.658 50.858C126.613 50.5695 126.583 50.2811 126.569 49.9927H126.479V58.9639H127.78V61.9029H121.593V58.9639H122.824V48.9185H121.612V45.9795H130.268L132.577 54.4982L134.77 45.9795H143.471V48.9185H142.214V58.939H143.471V61.8979H136.256V58.939H137.558V49.9877H137.443V49.9927Z" fill="white"/>
<path d="M165.07 59.0582C164.676 59.4859 164.232 59.8887 163.744 60.2766C163.255 60.6644 162.721 61.0076 162.148 61.301C161.57 61.5994 160.946 61.8331 160.273 62.0071C159.605 62.1812 158.897 62.2707 158.149 62.2707C156.933 62.2707 155.831 62.0867 154.839 61.7137C153.851 61.3408 153.004 60.8037 152.306 60.0975C151.608 59.3914 151.059 58.536 150.675 57.5265C150.292 56.517 150.092 55.3732 150.092 54.1001C150.092 52.7923 150.311 51.6236 150.755 50.5793C151.194 49.5399 151.757 48.6597 152.445 47.9386C153.129 47.2176 153.881 46.6656 154.694 46.2876C155.507 45.9097 156.29 45.7207 157.033 45.7207C157.596 45.7207 158.085 45.7903 158.503 45.9246C158.922 46.0589 159.276 46.218 159.565 46.3921C159.855 46.5661 160.079 46.7402 160.239 46.9142C160.398 47.0883 160.503 47.2076 160.548 47.2673L161.071 45.9942H164.656V52.464H160.568C160.553 52.101 160.493 51.743 160.383 51.3949C160.278 51.0467 160.129 50.7384 159.939 50.4749C159.75 50.2113 159.506 49.9974 159.206 49.8383C158.907 49.6792 158.553 49.5996 158.144 49.5996C157.736 49.5996 157.362 49.719 157.028 49.9527C156.693 50.1864 156.409 50.5097 156.17 50.9224C155.936 51.3302 155.751 51.8126 155.622 52.3546C155.492 52.9017 155.427 53.4835 155.427 54.1101C155.427 54.672 155.497 55.2091 155.641 55.7263C155.786 56.2435 156 56.696 156.28 57.0939C156.564 57.4867 156.908 57.805 157.317 58.0387C157.726 58.2724 158.209 58.3918 158.753 58.3918C159.226 58.3918 159.675 58.2874 160.099 58.0735C160.523 57.8597 160.897 57.621 161.216 57.3574C161.535 57.0939 161.799 56.8402 162.003 56.6065C162.208 56.3728 162.333 56.2236 162.382 56.1639L165.07 59.0582Z" fill="white"/>
<path d="M165.982 45.9844H173.197V48.988H171.985V58.8693H174.932V55.975H178.766V61.8978H165.977V58.8693H167.234V48.988H165.977V45.9844H165.982Z" fill="white"/>
<path d="M179.684 45.9844H186.943V48.9234H185.712V53.8416C185.712 54.7517 185.762 55.4977 185.861 56.0745C185.961 56.6514 186.111 57.1039 186.305 57.4272C186.505 57.7554 186.744 57.9792 187.023 58.0985C187.302 58.2179 187.626 58.2825 187.995 58.2825C188.344 58.2825 188.664 58.2328 188.943 58.1333C189.222 58.0339 189.466 57.83 189.671 57.5167C189.875 57.2034 190.03 56.7558 190.139 56.174C190.244 55.5921 190.299 54.8014 190.299 53.8168V48.988H189.067V45.9844H195.823V48.9234H194.592V54.4583C194.592 57.1636 194.038 59.1428 192.927 60.401C191.815 61.6591 190.184 62.2907 188.04 62.2907C185.727 62.2161 183.967 61.5597 182.765 60.3214C181.564 59.0831 180.96 57.1686 180.96 54.5727V48.9483H179.684V45.9844Z" fill="white"/>
<path d="M196.741 61.9028V58.9439H198.067V48.9234H196.741V45.9844H205.257C207.161 45.9844 208.567 46.3225 209.48 46.9989C210.392 47.6752 210.851 48.635 210.851 49.8782C210.851 50.3655 210.811 50.7833 210.736 51.1413C210.661 51.4994 210.537 51.8177 210.372 52.0961C210.203 52.3796 209.978 52.6233 209.684 52.8371C209.395 53.051 209.036 53.2399 208.612 53.409C209.021 53.5284 209.41 53.6925 209.779 53.8964C210.143 54.1002 210.462 54.3638 210.736 54.6821C211.01 55.0003 211.23 55.3783 211.389 55.8109C211.549 56.2436 211.629 56.7309 211.629 57.278C211.629 58.8892 211.145 60.0628 210.178 60.7938C209.211 61.5298 207.625 61.8978 205.416 61.8978H196.741V61.9028ZM202.789 48.993V52.4094H204.18C204.788 52.4094 205.202 52.2553 205.411 51.942C205.626 51.6287 205.73 51.201 205.73 50.654C205.73 50.1219 205.591 49.7141 205.307 49.4257C205.022 49.1372 204.663 48.993 204.22 48.993H202.789ZM204.618 58.9439C205.107 58.9439 205.536 58.7748 205.91 58.4317C206.284 58.0886 206.468 57.6062 206.468 56.9846C206.468 56.4077 206.309 55.9303 205.99 55.5523C205.671 55.1744 205.192 54.9805 204.554 54.9805H202.794V58.9439H204.618Z" fill="white"/>
<path d="M297.547 34.6615H286.508C286.423 33.7067 285.63 32.9558 284.653 32.9558H281.472V25.8246C281.472 23.8851 279.887 22.3037 277.942 22.3037C277.364 22.3037 276.82 22.4479 276.337 22.6916V20.5632C276.337 18.0618 274.297 16.0279 271.789 16.0279C270.812 16.0279 269.91 16.3411 269.167 16.8633V11.6815C269.167 8.76732 266.789 6.4002 263.872 6.4002C262.59 6.4002 261.419 6.85274 260.501 7.6136V5.28128C260.501 2.36713 258.123 0 255.206 0C253.416 0 251.831 0.895132 250.873 2.25275C249.916 0.890159 248.331 0 246.541 0C243.619 0 241.245 2.3721 241.245 5.28128V32.4585H236.658C235.367 32.4585 234.32 33.5028 234.32 34.7908V36.9093H65.69V34.7908C65.69 33.5028 64.6429 32.4585 63.3516 32.4585H58.7645V5.28128C58.7645 2.36713 56.3862 0 53.4694 0C51.6794 0 50.0939 0.895132 49.1366 2.25275C48.1793 0.890159 46.5938 0 44.8038 0C41.882 0 39.5087 2.3721 39.5087 5.28128V7.6136C38.5913 6.85771 37.4196 6.4002 36.1382 6.4002C33.2164 6.4002 30.8431 8.7723 30.8431 11.6815V16.8633C30.1002 16.3411 29.1978 16.0279 28.2205 16.0279C25.7126 16.0279 23.6733 18.0618 23.6733 20.5632V22.6916C23.1897 22.443 22.6462 22.3037 22.0678 22.3037C20.1233 22.3037 18.5378 23.8851 18.5378 25.8246V32.9558H15.3567C14.3795 32.9558 13.5818 33.7067 13.502 34.6615H2.46306C1.1019 34.6615 0 35.7606 0 37.1182V42.8818C0 44.2395 1.1019 45.3385 2.46306 45.3385H13.502C13.5867 46.2933 14.3795 47.0442 15.3567 47.0442H18.5378V54.1754C18.5378 56.1149 20.1233 57.6963 22.0678 57.6963C22.6462 57.6963 23.1897 57.5521 23.6733 57.3084V59.4368C23.6733 61.9382 25.7126 63.9722 28.2205 63.9722C29.1978 63.9722 30.1002 63.6589 30.8431 63.1367V68.3185C30.8431 71.2327 33.2214 73.5998 36.1382 73.5998C37.4196 73.5998 38.5913 73.1423 39.5087 72.3864V74.7187C39.5087 77.6329 41.887 80 44.8038 80C46.5938 80 48.1793 79.1049 49.1366 77.7473C50.0939 79.1098 51.6794 80 53.4694 80C56.3912 80 58.7645 77.6279 58.7645 74.7187V47.5415H63.3516C64.6429 47.5415 65.69 46.4972 65.69 45.2092V43.0907H234.31V45.2092C234.31 46.4972 235.357 47.5415 236.648 47.5415H241.236V74.7187C241.236 77.6329 243.614 80 246.531 80C248.321 80 249.906 79.1049 250.863 77.7473C251.821 79.1098 253.406 80 255.196 80C258.118 80 260.491 77.6279 260.491 74.7187V72.3864C261.409 73.1423 262.58 73.5998 263.862 73.5998C266.784 73.5998 269.157 71.2277 269.157 68.3185V63.1367C269.9 63.6589 270.802 63.9722 271.779 63.9722C274.287 63.9722 276.327 61.9382 276.327 59.4368V57.3084C276.81 57.557 277.354 57.6963 277.932 57.6963C279.877 57.6963 281.462 56.1149 281.462 54.1754V47.0442H284.643C285.62 47.0442 286.418 46.2933 286.498 45.3385H297.537C298.898 45.3385 300 44.2395 300 42.8818V37.1182C300.005 35.7606 298.903 34.6615 297.547 34.6615ZM23.6683 46.5022C23.5936 47.4918 23.3592 50.9032 23.2994 55.18C23.2994 55.18 23.2994 55.18 23.2944 55.1849C23.2246 50.0877 22.9055 46.2038 22.9055 46.2038C22.9055 46.2038 22.5764 50.1324 22.5116 55.2695C22.4468 50.1274 22.1177 46.2038 22.1177 46.2038C22.1177 46.2038 21.7886 50.1324 21.7238 55.2695C21.659 50.1274 21.3299 46.2038 21.3299 46.2038C21.3299 46.2038 21.0008 50.1324 20.936 55.2695C20.8712 50.1274 20.5421 46.2038 20.5421 46.2038C20.5421 46.2038 20.5023 46.6712 20.4524 47.4719V32.6724C20.5072 33.478 20.5421 33.9404 20.5421 33.9404C20.5421 33.9404 20.8712 30.0118 20.936 24.8747C21.0008 30.0168 21.3299 33.9404 21.3299 33.9404C21.3299 33.9404 21.659 30.0118 21.7238 24.8747C21.7886 30.0168 22.1177 33.9404 22.1177 33.9404C22.1177 33.9404 22.4468 30.0118 22.5116 24.8747C22.5764 30.0168 22.9055 33.9404 22.9055 33.9404C22.9055 33.9404 23.2345 30.0118 23.2994 24.8747C23.3542 29.1913 23.5936 32.6425 23.6683 33.6421V46.5022ZM30.8382 51.0027C30.7534 49.9136 30.6886 49.3218 30.6886 49.3218C30.6886 49.3218 30.2648 54.4042 30.18 61.053C30.0952 54.4042 29.6714 49.3218 29.6714 49.3218C29.6714 49.3218 29.2476 54.4042 29.1628 61.053C29.0781 54.4042 28.6543 49.3218 28.6543 49.3218C28.6543 49.3218 28.2305 54.3992 28.1457 61.053C28.061 54.4042 27.6371 49.3218 27.6371 49.3218C27.6371 49.3218 27.2134 54.4042 27.1286 61.053C27.0438 54.4042 26.62 49.3218 26.62 49.3218C26.62 49.3218 26.2012 54.3694 26.1114 60.9884C26.1114 60.9884 26.1114 60.9884 26.1114 60.9834C26.0267 54.3644 25.6029 49.3168 25.6029 49.3168C25.6029 49.3168 25.5979 49.3666 25.5879 49.4412V30.703C25.5979 30.7776 25.6029 30.8274 25.6029 30.8274C25.6029 30.8274 26.0267 25.745 26.1114 19.0962C26.1962 25.745 26.62 30.8274 26.62 30.8274C26.62 30.8274 27.0438 25.745 27.1286 19.0962C27.2134 25.745 27.6371 30.8274 27.6371 30.8274C27.6371 30.8274 28.061 25.75 28.1457 19.0962C28.2305 25.745 28.6543 30.8274 28.6543 30.8274C28.6543 30.8274 29.0781 25.745 29.1628 19.0962C29.2476 25.745 29.6714 30.8274 29.6714 30.8274C29.6714 30.8274 30.0952 25.745 30.18 19.0962C30.2648 25.745 30.6886 30.8274 30.6886 30.8274C30.6886 30.8274 30.7534 30.2356 30.8382 29.1465V51.0027ZM39.5037 62.1819C39.3292 58.666 39.1098 56.6818 39.1098 56.6818C39.1098 56.6818 38.6162 62.5797 38.5215 70.3027C38.4218 62.5797 37.9332 56.6818 37.9332 56.6818C37.9332 56.6818 37.4396 62.5797 37.3448 70.3027C37.2451 62.5797 36.7565 56.6818 36.7565 56.6818C36.7565 56.6818 36.2628 62.5797 36.1681 70.3027C36.0684 62.5797 35.5798 56.6818 35.5798 56.6818C35.5798 56.6818 35.0862 62.5797 34.9914 70.3027C34.8917 62.5797 34.4031 56.6818 34.4031 56.6818C34.4031 56.6818 33.9095 62.5797 33.8148 70.3027C33.715 62.5797 33.2264 56.6818 33.2264 56.6818C33.2264 56.6818 32.9572 59.1036 32.7777 63.3505V59.4368V20.5632V16.7937C32.9572 21.0406 33.2264 23.4624 33.2264 23.4624C33.2264 23.4624 33.72 17.5645 33.8148 9.84149C33.9145 17.5645 34.4031 23.4624 34.4031 23.4624C34.4031 23.4624 34.8967 17.5645 34.9914 9.84149C35.0912 17.5645 35.5798 23.4624 35.5798 23.4624C35.5798 23.4624 36.0734 17.5645 36.1681 9.84149C36.2678 17.5645 36.7565 23.4624 36.7565 23.4624C36.7565 23.4624 37.2501 17.5645 37.3448 9.84149C37.4445 17.5645 37.9332 23.4624 37.9332 23.4624C37.9332 23.4624 38.4268 17.5645 38.5215 9.84149C38.6212 17.5645 39.1098 23.4624 39.1098 23.4624C39.1098 23.4624 39.3292 21.4782 39.5037 17.9623V62.1819ZM48.1693 69.696C47.9898 65.4541 47.7206 63.0323 47.7206 63.0323C47.7206 63.0323 47.227 68.9302 47.1323 76.6532C47.0325 68.9302 46.5439 63.0323 46.5439 63.0323C46.5439 63.0323 46.0503 68.9302 45.9555 76.6532C45.8558 68.9302 45.3672 63.0323 45.3672 63.0323C45.3672 63.0323 44.8736 68.9302 44.7789 76.6532C44.6791 68.9302 44.1905 63.0323 44.1905 63.0323C44.1905 63.0323 43.6969 68.9302 43.6022 76.6532C43.5025 68.9302 43.0138 63.0323 43.0138 63.0323C43.0138 63.0323 42.5202 68.9302 42.4255 76.6532C42.3258 68.9302 41.8372 63.0323 41.8372 63.0323C41.8372 63.0323 41.6178 65.0165 41.4433 68.5373V68.3235V11.6815V11.6168C41.6178 15.1377 41.8372 17.1219 41.8372 17.1219C41.8372 17.1219 42.3308 11.224 42.4255 3.50097C42.5252 11.224 43.0138 17.1219 43.0138 17.1219C43.0138 17.1219 43.5075 11.224 43.6022 3.50097C43.7019 11.224 44.1905 17.1219 44.1905 17.1219C44.1905 17.1219 44.6841 11.224 44.7789 3.50097C44.8786 11.224 45.3672 17.1219 45.3672 17.1219C45.3672 17.1219 45.8608 11.224 45.9555 3.50097C46.0553 11.224 46.5439 17.1219 46.5439 17.1219C46.5439 17.1219 47.0375 11.224 47.1323 3.50097C47.232 11.224 47.7206 17.1219 47.7206 17.1219C47.7206 17.1219 47.9898 14.7001 48.1693 10.4581V69.696ZM56.8349 68.1594C56.6604 64.6435 56.441 62.6593 56.441 62.6593C56.441 62.6593 55.9474 68.5572 55.8527 76.2802C55.753 68.5572 55.2643 62.6593 55.2643 62.6593C55.2643 62.6593 54.7707 68.5572 54.676 76.2802C54.5763 68.5572 54.0876 62.6593 54.0876 62.6593C54.0876 62.6593 53.594 68.5572 53.4993 76.2802C53.3996 68.5572 52.911 62.6593 52.911 62.6593C52.911 62.6593 52.4174 68.5572 52.3226 76.2802C52.2229 68.5572 51.7343 62.6593 51.7343 62.6593C51.7343 62.6593 51.2407 68.5572 51.1459 76.2802C51.0462 68.5572 50.5576 62.6593 50.5576 62.6593C50.5576 62.6593 50.2883 65.0811 50.1089 69.328V10.8162C50.2883 15.0631 50.5576 17.4849 50.5576 17.4849C50.5576 17.4849 51.0512 11.587 51.1459 3.86398C51.2457 11.587 51.7343 17.4849 51.7343 17.4849C51.7343 17.4849 52.2279 11.587 52.3226 3.86398C52.4223 11.587 52.911 17.4849 52.911 17.4849C52.911 17.4849 53.4046 11.587 53.4993 3.86398C53.599 11.587 54.0876 17.4849 54.0876 17.4849C54.0876 17.4849 54.5813 11.587 54.676 3.86398C54.7757 11.587 55.2643 17.4849 55.2643 17.4849C55.2643 17.4849 55.758 11.587 55.8527 3.86398C55.9524 11.587 56.441 17.4849 56.441 17.4849C56.441 17.4849 56.6604 15.5007 56.8349 11.9848V68.1594ZM249.906 69.328C249.727 65.0811 249.457 62.6593 249.457 62.6593C249.457 62.6593 248.964 68.5572 248.869 76.2802C248.769 68.5572 248.281 62.6593 248.281 62.6593C248.281 62.6593 247.787 68.5572 247.692 76.2802C247.593 68.5572 247.104 62.6593 247.104 62.6593C247.104 62.6593 246.61 68.5572 246.516 76.2802C246.416 68.5572 245.927 62.6593 245.927 62.6593C245.927 62.6593 245.434 68.5572 245.339 76.2802C245.239 68.5572 244.751 62.6593 244.751 62.6593C244.751 62.6593 244.257 68.5572 244.162 76.2802C244.063 68.5572 243.574 62.6593 243.574 62.6593C243.574 62.6593 243.355 64.6435 243.18 68.1594V11.9898C243.355 15.5057 243.574 17.4899 243.574 17.4899C243.574 17.4899 244.068 11.592 244.162 3.86896C244.262 11.592 244.751 17.4899 244.751 17.4899C244.751 17.4899 245.244 11.592 245.339 3.86896C245.439 11.592 245.927 17.4899 245.927 17.4899C245.927 17.4899 246.421 11.592 246.516 3.86896C246.615 11.592 247.104 17.4899 247.104 17.4899C247.104 17.4899 247.598 11.592 247.692 3.86896C247.792 11.592 248.281 17.4899 248.281 17.4899C248.281 17.4899 248.774 11.592 248.869 3.86896C248.969 11.592 249.457 17.4899 249.457 17.4899C249.457 17.4899 249.727 15.0681 249.906 10.8212V69.328ZM258.572 11.6765V68.3185V68.5324C258.397 65.0115 258.178 63.0273 258.178 63.0273C258.178 63.0273 257.684 68.9252 257.589 76.6482C257.49 68.9252 257.001 63.0273 257.001 63.0273C257.001 63.0273 256.507 68.9252 256.413 76.6482C256.313 68.9252 255.824 63.0273 255.824 63.0273C255.824 63.0273 255.331 68.9252 255.236 76.6482C255.136 68.9252 254.648 63.0273 254.648 63.0273C254.648 63.0273 254.154 68.9252 254.059 76.6482C253.96 68.9252 253.471 63.0273 253.471 63.0273C253.471 63.0273 252.977 68.9252 252.883 76.6482C252.783 68.9252 252.294 63.0273 252.294 63.0273C252.294 63.0273 252.025 65.4491 251.846 69.6911V10.4482C252.025 14.6901 252.294 17.112 252.294 17.112C252.294 17.112 252.788 11.214 252.883 3.49101C252.982 11.214 253.471 17.112 253.471 17.112C253.471 17.112 253.965 11.214 254.059 3.49101C254.159 11.214 254.648 17.112 254.648 17.112C254.648 17.112 255.141 11.214 255.236 3.49101C255.336 11.214 255.824 17.112 255.824 17.112C255.824 17.112 256.318 11.214 256.413 3.49101C256.512 11.214 257.001 17.112 257.001 17.112C257.001 17.112 257.495 11.214 257.589 3.49101C257.689 11.214 258.178 17.112 258.178 17.112C258.178 17.112 258.397 15.1277 258.572 11.6069V11.6765ZM267.237 20.5632V59.4368V63.3505C267.058 59.1036 266.789 56.6818 266.789 56.6818C266.789 56.6818 266.295 62.5797 266.2 70.3027C266.1 62.5797 265.612 56.6818 265.612 56.6818C265.612 56.6818 265.118 62.5797 265.023 70.3027C264.924 62.5797 264.435 56.6818 264.435 56.6818C264.435 56.6818 263.942 62.5797 263.847 70.3027C263.747 62.5797 263.258 56.6818 263.258 56.6818C263.258 56.6818 262.765 62.5797 262.67 70.3027C262.57 62.5797 262.082 56.6818 262.082 56.6818C262.082 56.6818 261.588 62.5797 261.493 70.3027C261.394 62.5797 260.905 56.6818 260.905 56.6818C260.905 56.6818 260.686 58.666 260.511 62.1819V17.9673C260.686 21.4832 260.905 23.4674 260.905 23.4674C260.905 23.4674 261.399 17.5695 261.493 9.84645C261.593 17.5695 262.082 23.4674 262.082 23.4674C262.082 23.4674 262.575 17.5695 262.67 9.84645C262.77 17.5695 263.258 23.4674 263.258 23.4674C263.258 23.4674 263.752 17.5695 263.847 9.84645C263.947 17.5695 264.435 23.4674 264.435 23.4674C264.435 23.4674 264.929 17.5695 265.023 9.84645C265.123 17.5695 265.612 23.4674 265.612 23.4674C265.612 23.4674 266.105 17.5695 266.2 9.84645C266.3 17.5695 266.789 23.4674 266.789 23.4674C266.789 23.4674 267.058 21.0456 267.237 16.7987V20.5632ZM274.407 49.4412C274.397 49.3666 274.392 49.3168 274.392 49.3168C274.392 49.3168 273.973 54.3644 273.884 60.9834C273.884 60.9834 273.884 60.9834 273.884 60.9884C273.799 54.3694 273.375 49.3218 273.375 49.3218C273.375 49.3218 272.951 54.4042 272.866 61.053C272.782 54.4042 272.358 49.3218 272.358 49.3218C272.358 49.3218 271.934 54.3992 271.849 61.053C271.765 54.4042 271.341 49.3218 271.341 49.3218C271.341 49.3218 270.917 54.4042 270.832 61.053C270.747 54.4042 270.324 49.3218 270.324 49.3218C270.324 49.3218 269.9 54.4042 269.815 61.053C269.73 54.4042 269.306 49.3218 269.306 49.3218C269.306 49.3218 269.242 49.9136 269.157 51.0027V29.1465C269.242 30.2356 269.306 30.8274 269.306 30.8274C269.306 30.8274 269.73 25.745 269.815 19.0962C269.9 25.745 270.324 30.8274 270.324 30.8274C270.324 30.8274 270.747 25.745 270.832 19.0962C270.917 25.745 271.341 30.8274 271.341 30.8274C271.341 30.8274 271.765 25.75 271.849 19.0962C271.934 25.745 272.358 30.8274 272.358 30.8274C272.358 30.8274 272.782 25.745 272.866 19.0962C272.951 25.745 273.375 30.8274 273.375 30.8274C273.375 30.8274 273.799 25.745 273.884 19.0962C273.968 25.745 274.392 30.8274 274.392 30.8274C274.392 30.8274 274.397 30.7776 274.407 30.703V49.4412ZM279.543 47.4719C279.488 46.6662 279.453 46.2038 279.453 46.2038C279.453 46.2038 279.124 50.1324 279.059 55.2695C278.994 50.1274 278.665 46.2038 278.665 46.2038C278.665 46.2038 278.336 50.1324 278.271 55.2695C278.206 50.1274 277.877 46.2038 277.877 46.2038C277.877 46.2038 277.548 50.1324 277.483 55.2695C277.419 50.1274 277.09 46.2038 277.09 46.2038C277.09 46.2038 276.765 50.0877 276.696 55.1849C276.696 55.1849 276.696 55.1849 276.691 55.18C276.636 50.9032 276.396 47.4967 276.322 46.5022V33.6421C276.396 32.6425 276.636 29.1913 276.691 24.8747C276.755 30.0168 277.085 33.9404 277.085 33.9404C277.085 33.9404 277.414 30.0118 277.478 24.8747C277.543 30.0168 277.872 33.9404 277.872 33.9404C277.872 33.9404 278.201 30.0118 278.266 24.8747C278.331 30.0168 278.66 33.9404 278.66 33.9404C278.66 33.9404 278.989 30.0118 279.054 24.8747C279.119 30.0168 279.448 33.9404 279.448 33.9404C279.448 33.9404 279.488 33.478 279.538 32.6724V47.4719H279.543Z" fill="white"/>
<path d="M223.83 47.2236L225.515 52.4005H230.975L226.557 55.6031L228.242 60.7799L223.83 57.5773L219.412 60.7799L221.102 55.6031L216.685 52.4005H222.144L223.83 47.2236Z" fill="white"/>
<path d="M76.1705 47.2236L77.8558 52.4005H83.3154L78.8978 55.6031L80.5881 60.7799L76.1705 57.5773L71.7579 60.7799L73.4432 55.6031L69.0256 52.4005H74.4853L76.1705 47.2236Z" fill="white"/>
</svg>
