<svg width="24" height="24" viewBox="0 0 24 24" fill="none" xmlns="http://www.w3.org/2000/svg">
<g clip-path="url(#clip0_535_604)">
<path d="M23.3918 7.8276C24.2027 7.0167 24.2027 5.7088 23.3918 4.8979L22.921 4.42706C23.5749 3.48537 23.4703 2.20362 22.6594 1.36657C22.2147 0.921879 21.6131 0.660299 20.9591 0.660299C20.4621 0.660299 19.9913 0.817247 19.5989 1.07883L19.1281 0.607982C18.7357 0.215612 18.2125 0.00634766 17.6632 0.00634766C17.1139 0.00634766 16.5907 0.215612 16.1984 0.607982C15.8322 0.974195 15.649 1.44504 15.5967 1.91588C15.2305 1.73278 14.8381 1.62815 14.4196 1.62815C13.7134 1.62815 13.0856 1.88973 12.5886 2.38673C12.0916 2.88373 11.83 3.53768 11.83 4.21779C11.83 4.92406 12.0916 5.55185 12.5886 6.04885L14.0272 7.48755L7.5139 13.9747L6.0752 12.536C5.5782 12.039 4.92425 11.7775 4.24414 11.7775C3.53787 11.7775 2.91008 12.039 2.41308 12.536C1.60218 13.3469 1.44523 14.5764 1.94223 15.5442C1.44523 15.5704 0.974387 15.7796 0.608174 16.1459C-0.202725 16.9568 -0.202725 18.2908 0.608174 19.1017L1.10518 19.5726C0.817439 19.9649 0.686648 20.4358 0.686648 20.9328C0.686648 21.5606 0.948229 22.1622 1.39292 22.633C1.86376 23.1039 2.46539 23.3393 3.09319 23.3393C3.56403 23.3393 4.03488 23.1824 4.45341 22.9208L4.92425 23.3916C5.31662 23.784 5.83978 23.9933 6.3891 23.9933C6.93842 23.9933 7.46158 23.784 7.85395 23.3916C8.22016 23.0254 8.40327 22.5546 8.45559 22.0837C8.8218 22.2668 9.21417 22.3715 9.6327 22.3715C10.3128 22.3715 10.9668 22.1099 11.4638 21.6129C12.4839 20.5927 12.4839 18.9448 11.4638 17.9508L10.0251 16.5121L16.5123 10.0249L17.951 11.4636C18.448 11.9606 19.1019 12.2221 19.782 12.2221C20.4883 12.2221 21.1161 11.9606 21.6131 11.4636C22.4763 10.6004 22.5809 9.29245 22.0054 8.29844C22.0578 8.29844 22.1101 8.29844 22.1624 8.29844C22.6856 8.29844 23.1041 8.1415 23.3918 7.8276ZM22.0316 1.9682C22.5286 2.4652 22.6071 3.19763 22.2932 3.79926L20.2267 1.73278C20.8022 1.39272 21.5608 1.4712 22.0316 1.9682ZM1.99455 22.0053C1.49755 21.5083 1.41907 20.7758 1.73297 20.1742L3.79945 22.2407C3.22398 22.5807 2.46539 22.5023 1.99455 22.0053ZM7.22616 22.7638C6.75531 23.2347 5.97057 23.2347 5.49973 22.7638L1.23597 18.5001C0.765123 18.0031 0.765123 17.2445 1.23597 16.7736C1.47139 16.5382 1.78529 16.4074 2.09918 16.4074C2.41308 16.4074 2.72698 16.5382 2.9624 16.7736L7.22616 21.0374C7.697 21.5083 7.697 22.293 7.22616 22.7638ZM10.836 18.5262C11.5161 19.2063 11.5161 20.305 10.836 20.9851C10.4959 21.3251 10.0774 21.4821 9.60654 21.4821C9.13569 21.4821 8.71717 21.299 8.37711 20.9851L3.01471 15.6227C2.36076 14.9426 2.36076 13.8178 3.01471 13.1638C3.35477 12.8238 3.7733 12.6668 4.24414 12.6668C4.71499 12.6668 5.13351 12.8499 5.47357 13.1638L9.10954 16.7998L10.836 18.5262ZM9.42343 15.8581L8.14169 14.5764L14.6027 8.11534L15.8845 9.39708L9.42343 15.8581ZM20.9591 10.7835C20.6191 11.1235 20.2005 11.2805 19.7297 11.2805C19.2589 11.2805 18.8403 11.0974 18.5003 10.7835L14.9166 7.19981L13.1902 5.44722C12.8501 5.13332 12.667 4.68864 12.667 4.21779C12.667 3.74695 12.8501 3.32842 13.164 2.98836C13.5041 2.64831 13.9226 2.49136 14.3935 2.49136C14.8643 2.49136 15.2828 2.67447 15.6229 2.98836L19.4158 6.78128L20.0436 7.40907L20.9591 8.3246C21.6392 9.00471 21.6392 10.1033 20.9591 10.7835ZM20.6975 6.83359L20.1221 6.28428L16.8 2.93605C16.303 2.4652 16.303 1.68046 16.8 1.20962C17.0354 0.974195 17.3493 0.843405 17.6632 0.843405C18.0033 0.843405 18.291 0.974195 18.5264 1.20962L19.285 1.9682L22.0578 4.74095L22.8163 5.49954C23.2872 5.97038 23.2872 6.75512 22.8163 7.22597C22.6332 7.40907 22.3717 7.43523 22.1886 7.43523C21.6654 7.43523 21.0638 7.19981 20.6975 6.83359Z" fill="#F41E1E"/>
</g>
<defs>
<clipPath id="clip0_535_604">
<rect width="24" height="24" fill="white"/>
</clipPath>
</defs>
</svg>
