<svg width="200" height="200" viewBox="0 0 200 200" fill="none" xmlns="http://www.w3.org/2000/svg">
<g clip-path="url(#clip0_859_36)">
<mask id="mask0_859_36" style="mask-type:luminance" maskUnits="userSpaceOnUse" x="0" y="0" width="200" height="200">
<path d="M200 0H0V200H200V0Z" fill="white"/>
</mask>
<g mask="url(#mask0_859_36)">
<path d="M196.001 176H190.265L183.242 164.293C188.83 159.022 191.998 151.682 192.001 144.001C191.882 133.765 186.58 124.287 177.918 118.826L172.19 50.0724C177.377 46.4436 181.162 41.1432 182.91 35.0573C185.632 25.3818 183.101 14.222 175.392 1.88654C174.223 0.00965011 171.752 -0.564549 169.873 0.607287C167.996 1.77717 167.422 4.24976 168.594 6.12664C175.022 16.4134 177.254 25.3779 175.224 32.7703C173.854 37.6842 170.613 41.8676 166.198 44.426L158.893 48.0764L157.618 44.2484L166.002 39.4771C167.242 38.7622 168.004 37.4381 168.002 36.0045V20.0051C168.004 18.5754 167.242 17.2532 166.004 16.5364C164.768 15.8197 163.24 15.8197 162.002 16.5345L134.003 32.534C132.763 33.2488 132 34.5729 132.003 36.0045V52.004C132 53.4356 132.761 54.7576 133.999 55.4744C135.238 56.1912 136.763 56.1912 138.003 55.4764L150.567 48.2972L151.698 51.6936C149.532 52.2052 148.003 54.1388 148.003 56.3652L152.69 107.928C123.802 97.852 94.116 90.2252 63.9492 85.128L53.914 60.0036H72.0052C78.632 60.0036 84.0048 54.6328 84.0048 48.004V47.0688C84.0048 41.016 79.4972 35.9127 73.4936 35.1608L25.4952 29.161C22.0793 28.7352 18.6458 29.7958 16.0639 32.073C13.4839 34.3503 12.0074 37.6275 12.0074 41.0688V48.004C12.0074 54.6328 17.3803 60.0036 24.007 60.0036H29.2978L39.6178 85.8076C24.8664 90.112 13.437 101.817 9.48404 116.666C5.53108 131.517 9.63052 147.352 20.2903 158.422L9.7438 176H4.00768C1.79877 176 0.0078125 177.791 0.0078125 180V195.999C0.0078125 198.21 1.79877 199.999 4.00768 199.999H36.0066C38.2155 199.999 40.0064 198.21 40.0064 195.999V180C40.0064 177.791 38.2155 176 36.0066 176H35.0711L38.7096 169.938C43.0104 171.305 47.4944 172 52.006 172H162.538L164.938 176H164.002C161.793 176 160.002 177.791 160.002 180V195.999C160.002 198.21 161.793 199.999 164.002 199.999H196.001C198.21 199.999 200.001 198.21 200.001 195.999V180C200.001 177.791 198.21 176 196.001 176ZM140.003 45.1136V38.313L160.002 26.8857V33.6862L140.003 45.1136ZM192.001 191.999H168.002V184H192.001V191.999ZM32.0067 191.999H8.00756V184H32.0067V191.999ZM19.0716 176L26.2706 164H26.8057C28.2432 165.024 29.7412 165.959 31.29 166.801L25.7433 176H19.0716ZM16.0073 128.002C16.0307 108.131 32.1337 92.028 52.006 92.0028C53.1096 92.0028 54.2932 92.0788 55.8888 92.2196C85.8876 95.02 149.638 113.291 170.213 123.582C178.268 127.275 183.586 135.152 184.002 144.001C183.988 155.042 175.041 163.988 164.002 164H52.006C32.1337 163.977 16.0307 147.874 16.0073 128.002ZM20.0071 48.004V41.0688C20.0071 38.8599 21.7981 37.069 24.007 37.069C24.1769 37.069 24.3488 37.0787 24.5187 37.0982L72.5172 43.098C74.5188 43.348 76.0228 45.0512 76.0208 47.0688V48.004C76.0208 50.2148 74.23 52.004 72.0208 52.004H24.007C21.7981 52.004 20.0071 50.2148 20.0071 48.004ZM45.2972 60.0036L54.9532 84.1476C53.9492 84.0828 52.9336 84.0028 52.006 84.0028C50.5216 84.0028 49.0532 84.0828 47.606 84.2276L37.9147 60.0036H45.2972ZM56.246 87.376L56.3224 87.5672L56.2616 88.2352L56.246 87.376ZM164.506 54.2248L169.522 114.436C167.01 113.326 164.154 112.162 161.014 110.959L156.214 58.3612L164.506 54.2248ZM176.693 168.93L180.937 176H174.266L171.274 171.01C173.148 170.508 174.965 169.81 176.693 168.93Z" fill="#252A31"/>
<path d="M52.0048 156.001C61.9968 155.991 71.2232 150.655 76.2188 142.001L84.9628 145.497C83.58 147.128 83.7364 149.561 85.3184 151.001C86.902 152.44 89.3396 152.366 90.8316 150.833L102.831 138.833C104.347 137.265 104.326 134.771 102.782 133.228C101.24 131.685 98.7436 131.662 97.1752 133.179L91.0388 139.31L79.2032 134.57C82.002 122.971 77.1428 110.871 67.098 104.432C57.0516 97.991 44.0288 98.6258 34.6578 106.01C25.2851 113.395 21.6212 125.908 25.5332 137.181C29.4452 148.454 40.0716 156.011 52.0048 156.001ZM52.0048 108.002C57.948 107.938 63.608 110.549 67.4144 115.113C71.2232 119.68 72.7756 125.715 71.6428 131.55L53.4932 124.287C51.4404 123.465 49.1104 124.463 48.2884 126.515C47.466 128.566 48.464 130.896 50.5168 131.718L68.688 138.986C63.436 146.979 53.2588 150.134 44.4056 146.515C35.5543 142.896 30.5018 133.515 32.3532 124.131C34.2048 114.748 42.4408 107.989 52.0048 108.002Z" fill="#252A31"/>
</g>
</g>
<defs>
<clipPath id="clip0_859_36">
<rect width="200" height="200" fill="white"/>
</clipPath>
</defs>
</svg>
