<svg width="50" height="50" viewBox="0 0 50 50" fill="none" xmlns="http://www.w3.org/2000/svg">
<g clip-path="url(#clip0_859_29)">
<mask id="mask0_859_29" style="mask-type:luminance" maskUnits="userSpaceOnUse" x="0" y="0" width="50" height="50">
<path d="M50 0H0V50H50V0Z" fill="white"/>
</mask>
<g mask="url(#mask0_859_29)">
<path d="M49.2676 45.4296H46.4458C47.0985 44.5381 47.3675 43.4074 47.1596 42.2852C47.047 41.6798 46.8025 41.1232 46.4573 40.6441C47.076 40.5014 47.6688 40.221 48.1884 39.8052C48.4825 39.5699 48.6546 39.2185 48.6607 38.842C48.6668 38.4651 48.5062 38.1084 48.2197 37.8635L41.4406 32.0679C40.9416 31.641 40.5674 31.0867 40.3587 30.4642L38.7749 25.7347C38.7745 25.7332 38.7737 25.7317 38.7733 25.7301L37.347 21.4725C36.7004 19.5419 35.1547 18.0252 33.2123 17.4152L28.3005 15.8726C29.6341 14.9323 30.5077 13.3808 30.5077 11.6283V8.21915C30.5077 5.35622 28.1784 3.02734 25.3159 3.02734C22.4533 3.02734 20.1241 5.35622 20.1241 8.21915V11.6287C20.1241 13.3003 20.919 14.7892 22.15 15.7391C22.0226 15.7742 21.8956 15.8112 21.769 15.8508L16.7877 17.4152C14.8453 18.0252 13.2996 19.5419 12.653 21.4725L9.64088 30.4642C9.43222 31.0867 9.05838 31.6414 8.55942 32.0679L1.78032 37.8639C1.49384 38.1088 1.33324 38.4651 1.33934 38.842C1.34544 39.2189 1.51749 39.5699 1.8116 39.8052C2.35481 40.2401 2.97775 40.527 3.62701 40.6628C3.01399 41.7908 2.89764 43.1664 3.37029 44.4134C3.51372 44.7906 3.70255 45.1305 3.9299 45.43H0.732422C0.327683 45.43 0 45.7577 0 46.1624C0 46.5668 0.327683 46.8948 0.732422 46.8948H44.5694H44.5709H49.2676C49.6723 46.8948 50 46.5668 50 46.1624C50 45.7577 49.6719 45.4296 49.2676 45.4296ZM32.5993 28.3436L35.186 34.7801C35.2005 34.816 35.2177 34.8507 35.2375 34.8839C35.6953 35.6461 36.3472 36.2774 37.1235 36.7104L37.981 37.1883L32.5993 35.545V28.3436ZM40.4884 33.1814L47.0715 38.8092C46.1887 39.399 45.0523 39.4512 44.112 38.9286L37.8368 35.4309C37.3001 35.1318 36.8465 34.6989 36.5223 34.1774L34.2167 28.4401L37.6362 26.9474L38.9698 30.9292C39.2628 31.8035 39.7881 32.5821 40.4884 33.1814ZM21.5889 11.6287V8.21915C21.5889 6.16417 23.2609 4.49219 25.3159 4.49219C27.3708 4.49219 29.0428 6.16417 29.0428 8.21915V11.6287C29.0428 13.6837 27.3708 15.3557 25.3159 15.3557C23.2609 15.3557 21.5889 13.6837 21.5889 11.6287ZM17.2264 18.8126L22.208 17.2485C24.0345 16.6748 25.9655 16.6748 27.792 17.2485L32.7736 18.8126C34.2697 19.2825 35.4603 20.4506 35.9581 21.9379L37.1693 25.5531L33.67 27.0802L32.5462 24.284C32.4154 23.9586 32.0724 23.7713 31.7276 23.838C31.3831 23.9048 31.1344 24.2065 31.1344 24.5571V35.3546H18.8656V24.5571C18.8656 24.2065 18.6169 23.9048 18.2724 23.838C17.9287 23.7713 17.5846 23.9586 17.4538 24.284L16.481 26.704L13.0245 24.9756L14.0419 21.9379C14.5397 20.4506 15.7303 19.2825 17.2264 18.8126ZM9.51118 33.1814C10.2119 32.5821 10.7372 31.8035 11.0298 30.9292L12.5542 26.3783L15.9328 28.0678L15.4003 29.3926C15.2496 29.768 15.4316 30.1945 15.807 30.3455C16.1819 30.4962 16.6088 30.3143 16.7595 29.9389L17.4007 28.344V35.5427L12.1246 37.1296L12.8761 36.7104C13.6524 36.2778 14.3047 35.6464 14.7625 34.8843C14.7823 34.8511 14.7995 34.8164 14.814 34.7801L15.3614 33.4175C15.5125 33.0421 15.3305 32.6157 14.9551 32.465C14.5798 32.3139 14.1533 32.4959 14.0022 32.8712L13.4773 34.1774C13.1531 34.6992 12.6999 35.1318 12.1632 35.4309L5.88875 38.9282C4.94766 39.4512 3.81165 39.399 2.92854 38.8092L9.51118 33.1814ZM6.99997 45.4296H6.9973C5.933 45.4296 5.11055 44.87 4.74014 43.8938C4.32129 42.7891 4.60815 41.4867 5.4348 40.6708L18.2407 36.8195H31.7577L43.9152 40.5319C44.8639 40.8215 45.5383 41.5768 45.7191 42.5522C45.9 43.5276 45.5414 44.4744 44.7594 45.0848L44.318 45.43H28.8509C28.7563 44.9165 28.5282 44.2337 27.9884 43.626L29.4476 43.5455C29.8515 43.5234 30.1609 43.1778 30.1384 42.7738C30.1163 42.3702 29.7707 42.0612 29.3671 42.083L25.3975 42.3023C25.2296 42.2722 25.0546 42.247 24.8707 42.2283L13.5742 41.0484C13.1691 41.0061 12.8117 41.2987 12.7697 41.7007C12.7277 42.1032 13.0199 42.4633 13.422 42.5053L24.7192 43.6852C24.8901 43.7027 25.0507 43.7267 25.201 43.7557C25.2041 43.7565 25.2075 43.7569 25.2106 43.7576C26.6727 44.0445 27.187 44.8402 27.3643 45.4296H6.99997Z" fill="white"/>
<path d="M33.2047 43.3369C33.218 43.3369 33.2318 43.3369 33.2455 43.3361L38.1851 43.0634C38.5887 43.0408 38.8981 42.6956 38.876 42.2916C38.8539 41.8877 38.5079 41.5779 38.1043 41.6008L33.165 41.8736C32.761 41.8957 32.4516 42.2413 32.4738 42.6449C32.4955 43.0351 32.8182 43.3369 33.2047 43.3369Z" fill="white"/>
</g>
</g>
<defs>
<clipPath id="clip0_859_29">
<rect width="50" height="50" fill="white"/>
</clipPath>
</defs>
</svg>
