<svg width="50" height="50" viewBox="0 0 50 50" fill="none" xmlns="http://www.w3.org/2000/svg">
<g clip-path="url(#clip0_859_14)">
<mask id="mask0_859_14" style="mask-type:luminance" maskUnits="userSpaceOnUse" x="0" y="0" width="50" height="50">
<path d="M50 0H0V50H50V0Z" fill="white"/>
</mask>
<g mask="url(#mask0_859_14)">
<path d="M39.7784 16.3786C39.9409 16.5411 40.1534 16.622 40.3659 16.622C40.5783 16.622 40.7912 16.5407 40.9537 16.3786L46.7436 10.5886C48.4023 8.92959 48.4023 6.22993 46.7436 4.57092C45.0846 2.91152 42.3846 2.91229 40.726 4.57092L40.3659 4.93026L40.0065 4.57092C38.3467 2.91191 35.6478 2.91191 33.9888 4.57092C33.1851 5.37467 32.7422 6.44317 32.7422 7.57957C32.7422 8.71596 33.1851 9.78484 33.9888 10.5883L39.7784 16.3786ZM35.1641 5.74622C35.67 5.2404 36.3337 4.98824 36.9975 4.98824C37.6612 4.98824 38.3258 5.24078 38.8312 5.74622L39.7784 6.69379C39.9344 6.84943 40.1457 6.93717 40.3659 6.93717C40.5863 6.93717 40.7977 6.84943 40.9537 6.69379L41.9013 5.74622C42.9129 4.73419 44.5574 4.73533 45.5683 5.74622C46.5792 6.75712 46.5792 8.40239 45.5683 9.41329L40.3659 14.6154L35.1641 9.41329C34.6743 8.92348 34.4042 8.27193 34.4042 7.57995C34.4046 6.8872 34.6743 6.23565 35.1641 5.74622Z" fill="white"/>
<path d="M48.159 48.2082C41.0549 48.9963 35.421 45.8507 35.3645 45.819C35.1734 45.7099 34.9468 45.6806 34.7343 45.7389C34.6447 45.763 25.7087 48.1582 18.5116 46.5606C14.0247 45.5631 9.7927 42.4026 6.70242 40.0951C6.28738 39.7853 5.89408 39.4912 5.52482 39.2215C5.02052 38.8527 4.21867 38.546 3.51181 38.2751C3.19443 38.1538 2.75955 37.9871 2.66609 37.9287C2.58522 37.8654 2.54097 37.7723 2.54097 37.6659V35.7395C2.58102 34.2151 8.97216 10.7597 9.96322 7.77589C9.98763 7.7408 10.083 7.67175 10.1532 7.63856L22.8012 1.86159L26.8902 7.185C27.092 7.4608 27.0729 7.84646 26.8455 8.1009L22.805 12.6305C22.5406 12.9272 22.0955 12.9597 21.8193 12.7289L20.1855 11.2224C19.994 11.0462 19.7216 10.9878 19.4664 11.0348C19.2104 11.0805 18.9815 11.2629 18.8633 11.4948C18.7267 11.7638 17.4896 12.0933 16.2277 12.1029L15.8165 12.0613C15.4869 12.022 15.1672 12.194 15.0062 12.4843C14.8445 12.7746 14.872 13.1332 15.0749 13.3964C15.4259 13.85 15.6994 14.2143 15.8543 14.4234L16.663 28.1704C16.1617 30.1227 15.7024 30.6774 15.5884 30.7884C15.2515 30.8948 15.007 31.2095 15.007 31.5811C15.007 32.04 15.3793 32.4123 15.8382 32.4123C16.7808 32.4123 17.5819 31.1737 18.2251 28.7555C24.8356 23.8094 30.6045 28.4775 31.057 28.8616C33.1566 30.9688 33.2866 32.3684 33.2908 32.4306C33.3008 32.8808 33.6689 33.2431 34.1221 33.2431C34.581 33.2431 34.9533 32.8712 34.9533 32.4123C34.9533 32.2212 34.8839 30.5813 32.7327 28.2119C34.7614 25.7179 37.0712 24.2813 39.6152 23.9685C44.0014 23.4283 47.6883 26.3778 47.7253 26.4072C48.0815 26.6971 48.6042 26.6437 48.8941 26.2882C49.184 25.9331 49.1317 25.4104 48.777 25.1201C48.6053 24.9801 44.524 21.6968 39.4291 22.3167C36.4509 22.678 33.7776 24.2885 31.4731 27.1076C29.6028 25.8358 24.2401 22.9572 18.2426 26.7219L17.4988 14.0797C17.4911 13.9431 17.4492 13.8107 17.3778 13.6944C18.1217 13.6062 19.0075 13.4121 19.6499 12.9894L20.7207 13.9763C21.7174 14.8128 23.1773 14.7087 24.0448 13.7375L28.0853 9.20755C28.8307 8.37251 28.8929 7.10985 28.2203 6.18898L23.716 0.324654C23.481 0.0183347 23.0652 -0.0858064 22.7115 0.0751736L9.47265 6.12222C9.33418 6.18288 8.63189 6.52276 8.4011 7.21704C7.93037 8.63 0.878906 33.7776 0.878906 35.7368V37.6663C0.878906 38.2854 1.157 38.858 1.64108 39.2376C1.88332 39.4271 2.24533 39.5706 2.91786 39.8277C3.46718 40.0383 4.21905 40.3255 4.54368 40.5632C4.90913 40.8302 5.29747 41.1205 5.70793 41.4272C8.91876 43.8251 13.316 47.1088 18.1515 48.1834C25.0351 49.7131 33.1157 47.8637 34.8476 47.4273C36.0042 48.0251 40.2477 50 45.803 50C46.6228 50 47.4716 49.9572 48.3425 49.86C48.7987 49.8096 49.1272 49.3984 49.0768 48.9425C49.0257 48.4855 48.6133 48.1544 48.159 48.2082Z" fill="white"/>
<path d="M44.0901 38.1382C44.0443 37.7224 43.6922 37.3989 43.2638 37.3989C42.8049 37.3989 42.4326 37.7712 42.4326 38.2301C42.4326 38.7851 42.8427 40.6646 48.1138 41.5428C48.16 41.5504 48.2062 41.5542 48.2512 41.5542C48.6502 41.5542 49.0023 41.2662 49.0702 40.86C49.1453 40.4071 48.8394 39.9791 48.387 39.9032C44.7008 39.2891 44.1393 38.2488 44.0901 38.1382Z" fill="white"/>
<path d="M28.1306 42.4037C17.2453 44.7352 12.5872 37.2874 12.3946 36.9696C12.1569 36.5771 11.6477 36.4508 11.2551 36.6866C10.8614 36.9227 10.734 37.4331 10.9702 37.8268C11.0251 37.918 12.3476 40.0889 15.1755 41.9383C17.124 43.212 20.0953 44.5097 24.1141 44.5097C25.4526 44.5097 26.9072 44.3659 28.4785 44.0295C28.9275 43.9333 29.2136 43.4912 29.1174 43.0426C29.0209 42.594 28.5796 42.3068 28.1306 42.4037Z" fill="white"/>
</g>
</g>
<defs>
<clipPath id="clip0_859_14">
<rect width="50" height="50" fill="white"/>
</clipPath>
</defs>
</svg>
