<svg width="200" height="200" viewBox="0 0 200 200" fill="none" xmlns="http://www.w3.org/2000/svg">
<g clip-path="url(#clip0_859_29)">
<mask id="mask0_859_29" style="mask-type:luminance" maskUnits="userSpaceOnUse" x="0" y="0" width="200" height="200">
<path d="M200 0H0V200H200V0Z" fill="white"/>
</mask>
<g mask="url(#mask0_859_29)">
<path d="M197.07 181.718H185.783C188.394 178.152 189.47 173.63 188.638 169.141C188.188 166.719 187.21 164.493 185.829 162.576C188.304 162.006 190.675 160.884 192.754 159.221C193.93 158.28 194.618 156.874 194.643 155.368C194.667 153.86 194.025 152.434 192.879 151.454L165.762 128.272C163.766 126.564 162.27 124.347 161.435 121.857L155.1 102.939C155.098 102.933 155.095 102.927 155.093 102.92L149.388 85.89C146.802 78.1676 140.619 72.1008 132.849 69.6608L113.202 63.4904C118.536 59.7292 122.031 53.5232 122.031 46.5132V32.8766C122.031 21.4249 112.714 12.1094 101.264 12.1094C89.8132 12.1094 80.4964 21.4249 80.4964 32.8766V46.5148C80.4964 53.2012 83.676 59.1568 88.6 62.9564C88.0904 63.0968 87.5824 63.2448 87.076 63.4032L67.1508 69.6608C59.3812 72.1008 53.1984 78.1676 50.612 85.89L38.5635 121.857C37.7289 124.347 36.2335 126.566 34.2377 128.272L7.12128 151.456C5.97536 152.435 5.33296 153.86 5.35736 155.368C5.38176 156.876 6.06996 158.28 7.2464 159.221C9.41924 160.96 11.911 162.108 14.508 162.651C12.056 167.163 11.5906 172.666 13.4812 177.654C14.0549 179.162 14.8102 180.522 15.7196 181.72H2.92969C1.31073 181.72 0 183.031 0 184.65C0 186.267 1.31073 187.579 2.92969 187.579H178.278H178.284H197.07C198.689 187.579 200 186.267 200 184.65C200 183.031 198.688 181.718 197.07 181.718ZM130.397 113.374L140.744 139.12C140.802 139.264 140.871 139.403 140.95 139.536C142.781 142.584 145.389 145.11 148.494 146.842L151.924 148.753L130.397 142.18V113.374ZM161.954 132.726L188.286 155.237C184.755 157.596 180.209 157.805 176.448 155.714L151.347 141.724C149.2 140.527 147.386 138.796 146.089 136.71L136.867 113.76L150.545 107.79L155.879 123.717C157.051 127.214 159.152 130.328 161.954 132.726ZM86.3556 46.5148V32.8766C86.3556 24.6567 93.0436 17.9688 101.264 17.9688C109.483 17.9688 116.171 24.6567 116.171 32.8766V46.5148C116.171 54.7348 109.483 61.4228 101.264 61.4228C93.0436 61.4228 86.3556 54.7348 86.3556 46.5148ZM68.9056 75.2504L88.832 68.994C96.138 66.6992 103.862 66.6992 111.168 68.994L131.094 75.2504C137.079 77.13 141.841 81.8024 143.832 87.7516L148.677 102.212L134.68 108.321L130.185 97.136C129.662 95.8344 128.29 95.0852 126.91 95.352C125.532 95.6192 124.538 96.826 124.538 98.2284V141.418H75.4624V98.2284C75.4624 96.826 74.4676 95.6192 73.0896 95.352C71.7148 95.0852 70.3384 95.8344 69.8152 97.136L65.924 106.816L52.098 99.9024L56.1676 87.7516C58.1588 81.8024 62.9212 77.13 68.9056 75.2504ZM38.0447 132.726C40.8476 130.328 42.9488 127.214 44.1192 123.717L50.2168 105.513L63.7312 112.271L61.6012 117.57C60.9984 119.072 61.7264 120.778 63.228 121.382C64.7276 121.985 66.4352 121.257 67.038 119.756L69.6028 113.376V142.171L48.4984 148.518L51.5044 146.842C54.6096 145.111 57.2188 142.586 59.05 139.537C59.1292 139.404 59.198 139.266 59.256 139.12L61.4456 133.67C62.05 132.168 61.322 130.463 59.8204 129.86C58.3192 129.256 56.6132 129.984 56.0088 131.485L53.9092 136.71C52.6124 138.797 50.7996 140.527 48.6528 141.724L23.555 155.713C19.7906 157.805 15.2466 157.596 11.7142 155.237L38.0447 132.726ZM27.9999 181.718H27.9892C23.732 181.718 20.4422 179.48 18.9606 175.575C17.2852 171.156 18.4326 165.947 21.7392 162.683L72.9628 147.278H127.031L175.661 162.128C179.456 163.286 182.153 166.307 182.876 170.209C183.6 174.11 182.166 177.898 179.038 180.339L177.272 181.72H115.404C115.025 179.666 114.113 176.935 111.954 174.504L117.79 174.182C119.406 174.094 120.644 172.711 120.554 171.095C120.465 169.481 119.083 168.245 117.468 168.332L101.59 169.209C100.918 169.089 100.218 168.988 99.4828 168.913L54.2968 164.194C52.6764 164.024 51.2468 165.195 51.0788 166.803C50.9108 168.413 52.0796 169.853 53.688 170.021L98.8768 174.741C99.5604 174.811 100.203 174.907 100.804 175.023C100.816 175.026 100.83 175.028 100.842 175.03C106.691 176.178 108.748 179.361 109.457 181.718H27.9999Z" fill="#252A31"/>
<path d="M132.819 173.348C132.872 173.348 132.927 173.348 132.982 173.344L152.74 172.254C154.355 172.163 155.592 170.782 155.504 169.166C155.416 167.551 154.032 166.312 152.417 166.403L132.66 167.494C131.044 167.583 129.806 168.965 129.895 170.58C129.982 172.14 131.273 173.348 132.819 173.348Z" fill="#252A31"/>
</g>
</g>
<defs>
<clipPath id="clip0_859_29">
<rect width="200" height="200" fill="white"/>
</clipPath>
</defs>
</svg>
