<svg width="50" height="50" viewBox="0 0 50 50" fill="none" xmlns="http://www.w3.org/2000/svg">
<g clip-path="url(#clip0_859_23)">
<mask id="mask0_859_23" style="mask-type:luminance" maskUnits="userSpaceOnUse" x="0" y="0" width="50" height="50">
<path d="M50 0H0V50H50V0Z" fill="white"/>
</mask>
<g mask="url(#mask0_859_23)">
<path d="M49.2989 26.4478H48.0795V20.8043C48.0795 20.4172 47.7655 20.1032 47.3783 20.1032H40.8418C40.4546 20.1032 40.1407 20.4172 40.1407 20.8043V26.4486H37.5096V26.063C37.5096 21.3059 33.8812 17.3803 29.2465 16.9087C31.1273 15.5744 32.3582 13.3815 32.3582 10.9052C32.3582 6.84782 29.0572 3.54688 24.9999 3.54688C20.9425 3.54688 17.6416 6.84782 17.6416 10.9052C17.6416 13.3815 18.8726 15.5744 20.7532 16.9087C16.1186 17.3803 12.4902 21.3059 12.4902 26.0628V26.4485H9.85935V20.8042C9.85935 20.4171 9.54536 20.1031 9.15822 20.1031H2.62178C2.23452 20.1031 1.92064 20.4171 1.92064 20.8042V26.4476H0.701134C0.313991 26.4476 0 26.7616 0 27.1488C0 27.5359 0.313991 27.8499 0.701134 27.8499H1.92064V33.4933C1.92064 33.8805 2.23452 34.1945 2.62178 34.1945H9.15822C9.54536 34.1945 9.85935 33.8805 9.85935 33.4933V27.8507H12.4982C12.6072 29.4984 13.9816 30.8057 15.6562 30.8057C16.3085 30.8057 16.9152 30.6072 17.4195 30.2679V43.2289C17.4195 45.0067 18.8657 46.4529 20.6433 46.4529C22.4209 46.4529 23.8672 45.0067 23.8672 43.2289V36.2807C23.8672 35.656 24.3754 35.1479 25 35.1479C25.6246 35.1479 26.1328 35.6561 26.1328 36.2807V43.2289C26.1328 45.0067 27.579 46.4529 29.3567 46.4529C31.1345 46.4529 32.5807 45.0067 32.5807 43.2289V30.268C33.0849 30.6075 33.6916 30.8058 34.3439 30.8058C36.0187 30.8058 37.393 29.4985 37.502 27.8508H40.1409V33.4935C40.1409 33.8806 40.4549 34.1946 40.842 34.1946H47.3786C47.7657 34.1946 48.0797 33.8806 48.0797 33.4935V27.85H49.2991C49.6862 27.85 50.0002 27.536 50.0002 27.1489C50.0002 26.7617 49.686 26.4478 49.2989 26.4478ZM3.32291 21.5055H5.18886V32.7923H3.32291V21.5055ZM6.59101 32.7923V21.5055H8.45697V32.7923H6.59101ZM19.044 10.9052C19.044 7.62117 21.7159 4.94915 25 4.94915C28.2842 4.94915 30.956 7.62105 30.956 10.9052C30.956 14.1895 28.2842 16.8613 25 16.8613C21.7158 16.8613 19.044 14.1895 19.044 10.9052ZM21.6919 18.2635H28.3082C32.2399 18.2635 35.4995 21.1884 36.0301 24.9762C35.5438 24.6699 34.9689 24.4918 34.3528 24.4918C33.6961 24.4918 33.0857 24.6935 32.5801 25.038V24.6901C32.5801 24.303 32.2661 23.989 31.8789 23.989C31.4918 23.989 31.1778 24.303 31.1778 24.6901V26.4487H18.8221V24.6901C18.8221 24.303 18.5081 23.989 18.1209 23.989C17.7338 23.989 17.4198 24.303 17.4198 24.6901V25.038C16.9142 24.6936 16.3038 24.4919 15.6472 24.4919C15.0312 24.4919 14.4562 24.6699 13.9699 24.9763C14.5006 21.1884 17.7603 18.2635 21.6919 18.2635ZM15.6562 29.4035C14.6853 29.4035 13.8953 28.6147 13.8929 27.6444C13.8953 26.6789 14.6813 25.8941 15.6473 25.8941C16.6149 25.8941 17.402 26.6812 17.402 27.6489C17.402 27.6905 17.4084 27.8279 17.4048 27.8565C17.2976 28.7269 16.5552 29.4035 15.6562 29.4035ZM29.3567 45.0506C28.3522 45.0506 27.5351 44.2334 27.5351 43.2289V36.2807C27.5351 34.8829 26.3979 33.7456 25 33.7456C23.6022 33.7456 22.4649 34.8829 22.4649 36.2807V43.2289C22.4649 44.2334 21.6478 45.0506 20.6433 45.0506C19.6388 45.0506 18.8217 44.2334 18.8217 43.2289V27.8507H31.1784V43.2289C31.1784 44.2334 30.3611 45.0506 29.3567 45.0506ZM34.3438 29.4035C33.4674 29.4035 32.7398 28.7606 32.6045 27.9218C32.5964 27.8721 32.5981 27.6905 32.5981 27.6489C32.5981 26.6814 33.3852 25.8941 34.3529 25.8941C35.3188 25.8941 36.1048 26.6789 36.1074 27.6444C36.1048 28.6147 35.3149 29.4035 34.3438 29.4035ZM41.543 21.5055H43.4091V32.7923H41.543V21.5055ZM46.6772 32.7923H44.8113V21.5055H46.6772V32.7923Z" fill="white"/>
</g>
</g>
<defs>
<clipPath id="clip0_859_23">
<rect width="50" height="50" fill="white"/>
</clipPath>
</defs>
</svg>
