<svg width="50" height="50" viewBox="0 0 50 50" fill="none" xmlns="http://www.w3.org/2000/svg">
<g clip-path="url(#clip0_267_819)">
<path d="M45.4915 40.5992H42.7462C42.7438 40.5992 42.7421 40.5968 42.7429 40.5945L44.4382 36.0333C44.4629 35.9665 44.4881 35.9008 44.5128 35.836C44.7147 35.3078 44.9436 34.7091 44.6838 34.1382C44.5299 33.8 44.24 33.5509 43.8221 33.3977L41.1437 32.4155C41.1404 32.4144 41.1372 32.4137 41.134 32.4125C41.1303 32.4112 41.1269 32.4095 41.1232 32.4083L36.7548 30.9517C36.6879 30.9294 36.646 30.912 36.6211 30.9002C36.6202 30.8998 36.6198 30.8992 36.6195 30.8983C36.5979 30.8256 36.5707 30.6842 36.5497 30.5751L35.4795 25.0553C35.4795 25.0548 35.4795 25.0544 35.4795 25.0539L36.2794 21.0246C36.2798 21.0226 36.2819 21.0213 36.284 21.022L36.9196 21.2387C36.9211 21.2392 36.922 21.2405 36.922 21.242V24.23C36.922 25.6823 38.0942 26.867 39.5329 26.8709H39.5466C40.2417 26.8709 40.9246 26.5879 41.4221 26.0931C41.9214 25.5964 42.1965 24.9405 42.1965 24.2466V19.2827C42.1965 19.273 42.1963 19.2635 42.1959 19.2537C42.1532 18.1763 41.4373 17.2165 40.4126 16.865L35.5181 15.1986C35.5174 15.1984 35.5167 15.198 35.5163 15.1974L34.3146 13.4681C34.3135 13.4665 34.3139 13.4644 34.3154 13.4633C35.2258 12.8416 35.9383 11.9364 36.4378 10.7602C36.4448 10.7436 36.4508 10.7267 36.4566 10.7098C36.4572 10.7077 36.4583 10.706 36.459 10.7039C36.4596 10.7021 36.4601 10.7005 36.4607 10.6987C36.4611 10.6972 36.4616 10.6956 36.4621 10.6941C37.1548 8.59531 37.2576 6.66699 36.759 5.11729C36.2236 3.45273 35.0183 2.24697 33.274 1.63047C32.4459 1.33682 31.6376 1.34375 30.7817 1.35088C29.5674 1.36113 28.1894 1.37275 26.3704 0.468067C26.017 0.29209 25.5883 0.428028 25.4004 0.774903C24.5438 2.35547 24.7342 3.83789 25.9019 4.94229C25.9031 4.94346 25.9033 4.94531 25.9024 4.94668C25.1955 5.9584 24.8119 7.16035 24.8119 8.40361C24.8119 10.4248 25.991 12.3954 27.8152 13.5299C27.8168 13.5309 27.8173 13.533 27.8162 13.5347L25.9443 16.4666C25.9437 16.4676 25.9426 16.4682 25.9414 16.4683L24.374 16.4762C24.3729 16.4762 24.3718 16.4756 24.3711 16.4746L22.5977 13.898C21.7752 12.7043 20.1322 12.4008 18.9346 13.2217C18.3493 13.6242 17.9578 14.233 17.8323 14.9361C17.7087 15.6285 17.8616 16.3225 18.2626 16.89L21.0277 20.8049C21.0297 20.8078 21.0319 20.8109 21.0341 20.814C21.7992 21.863 22.469 21.8651 23.4022 21.8682H25.6199C25.6219 21.8682 25.6235 21.8697 25.6235 21.8717L25.6296 24.744C25.6296 24.745 25.6292 24.7459 25.6285 24.7466L22.4882 27.8136C22.488 27.8137 22.4879 27.8139 22.4877 27.8141C21.7226 28.5627 21.3347 29.4645 21.3347 30.4944V36.7719C21.3347 36.7734 21.3337 36.7748 21.3321 36.7752C20.6231 36.9614 19.7722 37.3961 19.0808 38.1154C18.4124 38.8107 18.0107 39.658 17.8954 40.5964C17.8952 40.5981 17.8938 40.5994 17.892 40.5994H14.8069C14.8049 40.5994 14.8033 40.5979 14.8033 40.5959V40.2938C14.8033 37.6052 12.7696 35.3834 10.1589 35.0805C10.1571 35.0803 10.1559 35.0788 10.1559 35.077V21.8061C10.1559 21.8034 10.1588 21.8017 10.1611 21.803L11.5145 22.5708C11.9362 22.81 12.4027 22.9235 12.8663 22.9235C13.7941 22.9234 14.7104 22.4684 15.2333 21.6532C15.6248 21.0479 15.7472 20.3347 15.578 19.645C15.4088 18.9552 14.9701 18.3792 14.3429 18.0235L4.14044 12.2363C2.87716 11.5201 1.20773 11.9305 0.418276 13.152C0.0270647 13.7588 -0.0951032 14.4726 0.0745257 15.1618C0.243959 15.8504 0.682436 16.4254 1.30919 16.7808L4.63146 18.6656C4.63253 18.6662 4.63322 18.6674 4.63322 18.6687V25.8646C4.63322 26.2676 4.94367 26.6204 5.3464 26.6308C5.75968 26.6413 6.09806 26.3096 6.09806 25.8986V19.5037C6.09806 19.5011 6.10099 19.4993 6.10333 19.5007L8.68957 20.968C8.69064 20.9686 8.69132 20.9697 8.69132 20.971V35.0403C8.69132 35.0423 8.68976 35.0438 8.68781 35.0438H6.10148C6.09953 35.0438 6.09796 35.0423 6.09796 35.0403V29.5319C6.09796 29.129 5.78751 28.7762 5.38478 28.7658C4.9715 28.7553 4.63312 29.087 4.63312 29.4979V35.0402C4.63312 35.0422 4.63156 35.0437 4.6296 35.0437H2.10978C1.18351 35.0437 0.432631 35.7946 0.432631 36.7209V47.9327C0.432631 48.8585 1.18312 49.6089 2.1088 49.6089H14.0711H45.4915C47.9776 49.6089 49.9999 47.588 49.9999 45.104C49.9999 42.62 47.9775 40.5992 45.4915 40.5992ZM23.4007 20.4032C22.5646 20.4006 22.5458 20.4005 22.2209 19.9551L19.459 16.0447C19.2858 15.7994 19.2201 15.4972 19.2743 15.1934C19.3304 14.8789 19.5045 14.6072 19.7637 14.4291C20.2959 14.0642 21.0262 14.1988 21.3913 14.7285L23.3175 17.5272C23.5709 17.8917 23.8529 17.942 24.1236 17.942L25.6116 17.9346C25.6136 17.9346 25.6151 17.9361 25.6151 17.9381L25.6204 20.3997C25.6204 20.4017 25.6189 20.4032 25.6169 20.4032H23.4007ZM1.49689 14.8118C1.42462 14.518 1.47872 14.2104 1.64894 13.9464C1.89621 13.5639 2.34171 13.348 2.78624 13.348C3.0049 13.348 3.22335 13.4003 3.41788 13.5105L13.6205 19.2977C13.6205 19.2977 13.6205 19.2977 13.6206 19.2978C13.8935 19.4524 14.0835 19.6997 14.1557 19.994C14.2277 20.288 14.1737 20.5947 14.0022 20.8602C13.6357 21.4314 12.8273 21.6311 12.2374 21.2967L2.03185 15.5066C1.7589 15.3519 1.56896 15.1052 1.49689 14.8118ZM43.3238 34.7872C43.2924 34.9267 43.2062 35.1521 43.1447 35.3132C43.1183 35.3825 43.0912 35.4531 43.0651 35.5238L41.1794 40.597C41.1789 40.5983 41.1776 40.5992 41.1761 40.5992H40.738C40.6632 40.5992 40.5076 40.5992 40.3195 40.3257C39.8131 39.5891 39.7889 38.0108 39.9374 37.613L39.9684 37.5355C39.9695 37.5326 39.9706 37.5296 39.9718 37.5268L41.3148 34.042C41.3154 34.0402 41.3174 34.0394 41.3193 34.0399L43.3151 34.7717C43.3183 34.7775 43.3205 34.7814 43.3238 34.7872ZM36.2918 32.3414L39.9289 33.5542C39.9308 33.5548 39.9318 33.5569 39.9311 33.5588L39.6312 34.3371L38.8601 36.3382C38.8594 36.3399 38.8574 36.3408 38.8557 36.3402L32.3909 34.1182C31.9518 33.967 31.8387 33.8135 31.6864 33.5016L30.4402 30.9216C30.4394 30.9199 30.44 30.918 30.4415 30.9171C31.5978 30.2896 33.366 29.2956 34.4834 27.6437C34.4852 27.6411 34.4891 27.6419 34.4897 27.6449L35.1116 30.8529C35.2273 31.4548 35.3366 32.0233 36.2918 32.3414ZM34.5655 16.4876C34.6654 16.4876 34.7668 16.5006 34.8676 16.5274C34.8748 16.5294 34.8798 16.5307 34.8851 16.5319C34.8858 16.5321 34.8863 16.5322 34.887 16.5324C34.8899 16.5331 34.8925 16.5337 34.8963 16.5345C34.9075 16.5375 34.919 16.5418 34.93 16.5457C34.9337 16.5471 34.9374 16.5483 34.9411 16.5496L39.9389 18.2511C40.3904 18.4061 40.7076 18.8262 40.7317 19.299V24.2466C40.7317 24.5479 40.61 24.8348 40.3891 25.0545C40.1642 25.2781 39.8576 25.4061 39.545 25.4061C39.543 25.4061 39.5409 25.4061 39.5389 25.4061C38.9036 25.4043 38.3868 24.8767 38.3868 24.2299V21.0488C38.3868 21.0254 38.3883 21.0033 38.3893 20.9828C38.4247 20.3053 38.0177 20.0645 37.773 19.9815L34.1877 18.7597C34.1875 18.7596 34.1872 18.7596 34.187 18.7595C33.8925 18.6592 33.6541 18.4487 33.5157 18.167C33.3779 17.8864 33.357 17.5712 33.4572 17.2781C33.6214 16.7968 34.0764 16.4876 34.5655 16.4876ZM26.418 2.10186C26.4186 2.0998 26.4209 2.09873 26.4229 2.09951C28.216 2.83711 29.6308 2.82549 30.7941 2.81543C31.5487 2.80928 32.2 2.80371 32.7854 3.01113C35.3526 3.91855 35.7489 6.13301 35.5601 8.00225C35.5598 8.00527 35.5561 8.00645 35.5541 8.0042C35.3674 7.79365 35.1399 7.59531 34.8629 7.42285C34.8626 7.42266 34.8624 7.42236 34.8621 7.42217C34.0437 6.4252 32.8957 5.51953 31.3838 5.40459C30.1491 5.31104 28.438 4.9499 27.3388 4.2168C27.3382 4.21641 27.3376 4.21611 27.337 4.21572C26.4546 3.63076 26.1569 2.9627 26.418 2.10186ZM26.2769 8.40342C26.2769 7.46045 26.568 6.54775 27.1059 5.77988C27.1079 5.7794 27.1093 5.779 27.1113 5.77852C28.7157 6.60996 30.6611 6.81885 31.2732 6.86523C33.3679 7.02432 34.6171 9.6126 34.9688 10.4525C34.9692 10.4534 34.9691 10.4544 34.9687 10.4553C34.4887 11.4526 33.8092 12.1615 32.9441 12.565C32.3534 12.8429 31.6539 12.9837 30.865 12.9837C30.312 12.9837 29.7234 12.8491 29.1635 12.5949C27.7266 11.94 26.2769 10.39 26.2769 8.40342ZM29.1525 14.1638C29.1533 14.1624 29.155 14.1618 29.1565 14.1624C29.7235 14.3502 30.3044 14.4486 30.865 14.4486C31.6316 14.4486 32.3413 14.3389 32.9833 14.1237C32.9848 14.1232 32.9863 14.1237 32.9872 14.125L33.7089 15.1636C33.7102 15.1654 33.7094 15.168 33.7072 15.1688C32.9623 15.4265 32.3413 16.0118 32.0711 16.8052C31.8445 17.4678 31.8905 18.1809 32.2011 18.8129C32.5121 19.4462 33.0497 19.9198 33.7151 20.1463L34.8787 20.543C34.8804 20.5436 34.8814 20.5452 34.8811 20.547L34.1325 24.318C34.1322 24.3196 34.1308 24.3208 34.1291 24.3208H27.0973C27.0953 24.3208 27.0938 24.3192 27.0938 24.3173L27.079 17.4127C27.079 17.412 27.0792 17.4113 27.0796 17.4108L29.1525 14.1638ZM22.7996 30.4942C22.7996 29.8646 23.0326 29.3304 23.5118 28.8613L26.6601 25.7865C26.6608 25.7858 26.6616 25.7855 26.6625 25.7855H33.7937C33.7961 25.7855 33.7979 25.7881 33.797 25.7903C33.0639 27.8307 30.9506 28.9754 29.6266 29.6928C29.4406 29.7935 29.265 29.8887 29.1196 29.972L26.7372 31.303C25.7448 31.8578 25.5629 32.1483 25.592 33.1322C25.5955 33.2533 25.5996 33.3905 25.5996 33.5555L25.6132 36.6642C25.6132 36.6661 25.6116 36.6677 25.6097 36.6677H22.8032C22.8013 36.6677 22.7997 36.6661 22.7997 36.6642V30.4942H22.7996ZM20.137 39.1304C20.7912 38.4496 21.6756 38.1325 22.0672 38.1325H25.6143C25.6162 38.1325 25.6178 38.1341 25.6178 38.136L25.6232 40.5958C25.6232 40.5978 25.6216 40.5993 25.6196 40.5993H19.3788C19.3766 40.5993 19.3749 40.5973 19.3753 40.5951C19.477 40.0426 19.7318 39.552 20.137 39.1304ZM1.89738 47.9318V36.721C1.89738 36.6042 1.99298 36.5087 2.10968 36.5087H9.54923C11.6387 36.5087 13.3386 38.2066 13.3386 40.2937V41.3317V48.1408C13.3386 48.1428 13.337 48.1443 13.3351 48.1443H2.10978C1.99298 48.1442 1.89738 48.0486 1.89738 47.9318ZM45.4915 48.1442H14.807C14.8051 48.1442 14.8035 48.1427 14.8035 48.1407V45.84C14.8035 45.8381 14.8051 45.8365 14.807 45.8365H45.5442C45.9471 45.8365 46.2999 45.5261 46.3103 45.1233C46.3208 44.7101 45.9891 44.3717 45.5781 44.3717H14.807C14.8051 44.3717 14.8035 44.3701 14.8035 44.3682V42.0675C14.8035 42.0655 14.8051 42.064 14.807 42.064H18.5956H26.3571H31.5124C31.9153 42.064 32.2682 41.7535 32.2785 41.3508C32.2891 40.9375 31.9573 40.5991 31.5464 40.5991H27.0915C27.0896 40.5991 27.088 40.5976 27.088 40.5956L27.0812 37.467V37.3999C27.0812 37.3994 27.0811 37.3989 27.0811 37.3984C27.0811 37.3984 27.0812 37.3974 27.0812 37.3968L27.0644 33.5521C27.0644 33.3687 27.0598 33.2136 27.0561 33.0889C27.0549 33.0472 27.0535 33.0038 27.0526 32.9624C27.0506 32.8723 27.097 32.7885 27.174 32.7417C27.2748 32.6805 27.3916 32.6151 27.4518 32.5816L29.1523 31.6315C29.154 31.6306 29.1563 31.6312 29.1571 31.6331L30.3687 34.1411C30.6215 34.6593 30.9836 35.1829 31.9146 35.5032L38.4272 37.7417C38.4287 37.7422 38.4297 37.7437 38.4295 37.7453C38.3414 38.5351 38.4179 39.6823 38.8085 40.5943C38.8095 40.5966 38.8078 40.5991 38.8054 40.5991H35.0546C34.6517 40.5991 34.2988 40.9096 34.2885 41.3123C34.2779 41.7256 34.6097 42.064 35.0206 42.064H40.7381H41.6877H45.4916C47.1698 42.064 48.5352 43.4277 48.5352 45.104C48.5351 46.7805 47.1697 48.1442 45.4915 48.1442Z" fill="white"/>
<path d="M7.50298 43.4426H6.04272C5.6398 43.4426 5.28696 43.753 5.27661 44.1558C5.26607 44.569 5.5978 44.9074 6.00874 44.9074H7.46909C7.87202 44.9074 8.22485 44.597 8.23521 44.1942C8.24575 43.7809 7.91392 43.4426 7.50298 43.4426Z" fill="white"/>
<path d="M7.50474 39.9826H6.04175C5.63882 39.9826 5.28599 40.2931 5.27564 40.6958C5.26509 41.1091 5.59683 41.4475 6.00776 41.4475H7.47075C7.87368 41.4475 8.22651 41.137 8.23687 40.7343C8.24751 40.3209 7.91567 39.9826 7.50474 39.9826Z" fill="white"/>
</g>
<defs>
<clipPath id="clip0_267_819">
<rect width="50" height="50" fill="white"/>
</clipPath>
</defs>
</svg>
