<svg width="222" height="80" viewBox="0 0 222 80" fill="none" xmlns="http://www.w3.org/2000/svg">
<path d="M29.6873 34.4111C29.6873 34.4111 23.8962 41.2238 33.2839 47.7087C26.0478 41.6881 29.6873 34.4111 29.6873 34.4111Z" fill="white"/>
<path d="M8.86548 35.7138C20.5377 36.74 25.5362 41.9178 25.5362 41.9178C25.5362 41.9178 21.7522 35.39 8.86548 35.7138Z" fill="white"/>
<path d="M23.197 7.81544C22.1231 5.71623 23.7555 3.47656 23.7555 3.47656C23.7555 3.47656 21.2484 5.32214 23.197 7.81544Z" fill="white"/>
<path d="M50.0483 61.2356C43.7612 61.2356 35.8535 45.1872 35.666 44.9062C35.8535 45.1872 42.1562 62.5427 50.3725 62.5427C56.6362 62.5427 58.8699 56.011 58.8699 56.011C58.8699 56.011 55.5272 61.2356 50.0483 61.2356Z" fill="white"/>
<path d="M37.8606 58.9025C37.8606 58.9025 33.6119 50.6929 34.6858 47.0057C35.705 43.5096 33.0066 38.9951 33.0066 38.9951C33.0066 38.9951 34.7209 43.4628 33.9399 47.0213C32.8621 51.9025 37.8606 58.9025 37.8606 58.9025Z" fill="white"/>
<path d="M49.9858 59.168C49.9858 58.7232 49.6226 58.3604 49.1775 58.3604C48.7323 58.3604 48.3691 58.7232 48.3691 59.168C48.3691 59.6128 48.7323 59.9757 49.1775 59.9757C49.6226 59.9757 49.9858 59.6128 49.9858 59.168Z" fill="white"/>
<path d="M31.0736 56.2887C30.2028 52.4337 32.9403 49.0117 32.9403 49.0117C32.9403 49.0117 29.082 51.4387 31.0736 56.2887Z" fill="white"/>
<path d="M52.5203 71.6846C49.9977 72.6171 47.8499 69.3512 47.8499 69.3512C47.8499 69.3512 49.0644 73.5497 52.6609 72.6639C55.2695 72.0201 57.097 68.0441 58.7762 68.1378C56.4449 67.8607 55.043 70.752 52.5203 71.6846Z" fill="white"/>
<path d="M54.4805 64.5016C59.1509 65.8556 58.776 62.4492 58.776 62.4492C58.776 62.4492 58.2176 64.5016 54.4805 64.5016Z" fill="white"/>
<path d="M37.392 61.7939C37.392 61.7939 37.2515 69.1646 44.7687 66.9249C38.9814 68.1384 37.392 61.7939 37.392 61.7939Z" fill="white"/>
<path d="M59.3385 36.2288C57.8975 36.2288 55.7068 35.0192 55.1991 34.4027C54.9101 34.0555 54.5196 33.7043 54.0627 33.3024C53.395 32.7093 52.5671 31.9719 51.8603 31.0276C50.185 28.7919 50.1381 21.0466 50.1381 21.0466C50.1381 21.0466 49.8257 22.5684 49.6461 24.5154C49.5172 24.5817 49.3727 24.6598 49.2673 24.7144C49.0564 24.8354 48.8963 24.8471 48.8221 24.8197C48.8026 24.8119 48.7479 24.7963 48.6972 24.6637C48.4434 24.0316 47.8732 20.6643 47.9552 19.7356C47.9708 19.5561 47.9982 19.4157 48.0294 19.3103C48.6855 19.7707 49.3688 19.6576 49.4547 19.642C49.65 19.603 49.8219 19.4898 49.9351 19.3259C50.0444 19.162 50.0874 18.9591 50.0444 18.7641C49.2322 14.7724 49.7593 11.6041 51.6103 9.34104C53.8636 6.58632 57.5265 7.84272 59.3346 7.84272C59.3853 7.84272 59.4361 7.84272 59.4869 7.83882V4.36225C59.4361 4.36225 59.3814 4.35834 59.3346 4.35834C57.261 4.35834 53.0591 5.20895 50.4506 8.39678C48.5214 10.7535 47.8185 13.8867 48.3496 17.7184C48.088 17.6169 47.8107 17.6091 47.5452 17.7027C46.9438 17.9212 46.5533 18.6158 46.4635 19.6108C46.362 20.7852 46.9828 24.4101 47.307 25.2255C47.5022 25.7172 47.8654 26.0762 48.3262 26.2361C48.7011 26.3688 49.1189 26.361 49.5329 26.2244C49.4626 28.4017 49.6656 30.7116 50.6536 31.9251C50.6692 31.9407 50.681 31.9563 50.6966 31.9758C50.7512 32.6976 50.8098 33.5365 50.8606 34.4144C48.5566 36.1781 44.4797 37.415 43.8041 37.6101C42.3671 35.8737 40.5981 33.837 38.4034 33.0566C35.2052 31.9173 31.2025 32.9044 30.152 33.201C29.2226 31.648 27.9417 30.1341 26.2743 29.4591C21.9709 27.7227 17.1325 28.1871 15.633 28.3939C17.73 26.162 19.46 22.6269 18.9093 17.137C19.5029 16.0366 20.0887 14.9285 20.4596 14.1716C21.4437 12.1855 22.7246 10.137 23.6501 9.4737C23.8883 9.57515 24.1421 9.65709 24.4155 9.71562C25.7159 9.98484 27.3404 9.75854 28.383 9.55174C28.8673 9.92242 29.6912 10.4258 30.3356 10.3282C31.2259 10.1955 31.7882 9.80926 32.0343 9.36054C32.1241 9.35664 32.21 9.35664 32.292 9.34884C32.5341 9.66099 33.8462 11.2647 35.2247 11.2647C35.3223 11.2647 35.4239 11.2569 35.5215 11.2373C35.8651 11.1788 36.1346 10.9876 36.2986 10.6911C36.7945 9.80536 36.24 8.10414 36.0526 7.58909C36.1346 7.45643 36.1971 7.31597 36.2322 7.1794C37.2124 7.15209 37.2827 6.24296 37.0328 5.46649C36.8102 4.76805 35.1544 0.433062 33.7174 0.0779919C32.8778 -0.128807 31.7883 0.105306 30.8393 0.433063C30.4371 0.335517 29.5858 0.179441 28.7931 0.358927C27.9652 0.546217 21.1313 3.6248 19.7372 4.2569C19.1866 4.44809 18.6594 4.71342 18.2416 5.0958C16.6757 6.51998 12.2981 11.0579 11.0758 12.2557C9.8379 13.4692 3.98029 19.603 2.85954 21.1442C1.73878 22.6854 0.31344 28.6787 0.0830409 29.3537C-0.151263 30.0288 -0.0575586 32.9942 2.65256 36.7946C5.35096 40.5833 13.8952 48.8202 24.9075 50.9545C25.3488 51.6217 25.7081 52.3826 25.9072 53.2488C26.903 57.6033 34.4984 67.8067 34.4984 67.8067C34.4984 67.8067 39.8522 75.1461 39.7273 80H41.3478C41.4728 75.1461 35.7441 67.9315 35.7441 67.9315C35.7441 67.9315 28.3752 57.6735 27.1529 53.3736C25.5948 47.8993 19.9325 47.1541 19.9325 47.1541C19.9325 47.1541 21.8772 47.833 23.5798 49.4093C15.0394 47.4974 7.03016 40.4389 4.33566 36.658C1.62945 32.8576 1.5357 29.8922 1.7661 29.2172C1.91059 28.7958 2.34408 26.8253 2.91812 25.0227C3.23053 27.0945 4.26146 29.9624 7.35427 32.1006C4.527 29.1352 4.19504 24.3203 4.20286 22.1509C5.3197 20.6643 9.26772 15.9625 11.1851 13.7814C13.3719 12.3221 16.3203 10.8901 16.3203 10.8901C16.3203 10.8901 14.6177 11.3349 12.7706 12.0255C14.399 10.176 17.3747 6.64094 18.6868 5.44697C20.2527 4.02279 22.9042 3.81599 22.9042 3.81599C22.9042 3.81599 22.2521 3.78868 21.4008 3.89403C23.9703 2.96148 27.852 1.34611 28.3596 1.15882C28.6525 1.04957 29.3749 0.881786 29.8435 0.831062C29.1601 1.1276 28.6915 1.39293 28.6915 1.39293C28.6915 1.39293 31.6243 0.148235 33.5807 0.819357C34.6233 1.17833 36.3962 5.03728 36.529 5.75522C36.568 5.97763 36.447 6.23514 36.201 6.40683C35.9315 5.69668 34.639 2.74688 34.639 2.74688C34.639 2.74688 35.334 5.30651 35.502 6.00104C35.6464 6.59022 35.748 7.41352 34.6077 7.80761C34.6233 7.65543 34.6077 7.50715 34.5608 7.38229C34.2953 6.68386 32.9715 3.48042 32.9715 3.48042C32.9715 3.48042 33.7174 6.30928 33.9126 7.03113C34.0883 7.67494 33.7603 8.49823 32.1787 8.70113C32.1709 8.63089 32.167 8.56067 32.1475 8.49043C31.9288 7.72957 31.4641 5.42746 31.4641 5.42746C31.4641 5.42746 31.5305 7.21062 31.5461 8.0027C31.5578 8.54896 31.3899 9.04839 31.0658 9.34493C30.687 9.6922 30.1793 9.64928 29.7771 9.53223C28.465 8.67382 29.2383 7.24963 29.2383 7.24963C29.2383 7.24963 28.6681 7.93637 28.6876 8.69723C27.934 8.4124 27.9535 7.66713 27.9535 7.66713C27.9535 7.66713 27.563 8.47873 28.4963 8.98987C27.4575 9.20057 25.8135 9.43078 24.5014 9.15765C22.0842 8.65431 20.9634 6.7658 20.9634 6.7658C20.9634 6.7658 21.5023 8.03391 22.7011 8.93524C21.7717 9.55564 20.4597 11.6431 19.4561 13.6682C18.429 15.744 16.8162 20.9686 16.8162 20.9686C16.8162 20.9686 17.2692 20.157 17.8667 19.0567C18.0893 28.5187 9.80275 31.9563 9.80275 31.9563C9.80275 31.9563 11.7592 31.492 13.864 29.9585C15.5197 29.7166 21.4086 29.0416 25.5831 30.8676C29.6092 32.6313 32.1046 37.7896 32.1046 37.7896C32.1046 37.7896 31.7101 36.299 30.8666 34.551C32.4052 34.1764 35.7285 33.5834 38.4893 34.5666C42.2148 35.8933 44.0424 40.634 46.4205 41.7539C48.131 42.5577 52.3133 41.0515 57.5187 46.0849C57.5695 46.1552 57.6202 46.2254 57.671 46.2956L57.7101 46.2683L57.7491 46.241C54.5118 41.6524 50.7356 41.0788 48.2364 40.7004C47.4085 40.5755 46.7524 40.474 46.3307 40.2555C45.8269 39.9941 45.2412 39.3542 44.5812 38.566C45.7371 38.328 48.9237 37.575 50.9348 36.1547C51.009 38.0627 51.0168 39.959 50.8567 41.1959C51.665 39.046 51.8017 35.4445 51.7978 33.2322C52.2391 33.6887 52.6647 34.0945 53.0552 34.4379C53.4653 34.8007 53.8167 35.1129 54.0315 35.3704C54.8203 36.3264 57.3859 37.7428 59.3228 37.7428C59.3736 37.7428 59.4244 37.7388 59.4751 37.7349V36.2405C59.44 36.2249 59.3892 36.2288 59.3385 36.2288ZM34.2406 8.54896C34.76 8.47482 35.1622 8.33046 35.4668 8.14707C35.705 8.89232 35.9003 9.8873 35.6582 10.3165C35.5996 10.418 35.5254 10.4726 35.4004 10.4921C34.6233 10.6286 33.6744 9.78195 33.1433 9.18497C33.6471 9.0406 34.0024 8.81038 34.2406 8.54896Z" fill="white"/>
<path d="M70.4834 49.7968H64.0439V7.09473H82.3783V13.564H70.4834V25.2111H79.1722V31.6804H70.4834V49.7968Z" fill="white"/>
<path d="M93.25 49.7959H86.8105V7.12891H93.25V49.7959Z" fill="white"/>
<path d="M105.277 13.5982H98.428V7.12891H118.535V13.5982H111.721V49.7959H105.281V13.5982H105.277Z" fill="white"/>
<path d="M130.946 7.09473L139.494 35.793V7.09473H145.933V49.7968H139.013L130.153 22.4525V49.7968H123.713V7.09473H130.946Z" fill="white"/>
<path d="M151.693 49.7968V7.09473H170.027V13.564H158.133V25.2111H166.821V31.6804H158.133V43.3275H170.027V49.7968H151.693Z" fill="white"/>
<path d="M195.758 39.1714C195.805 42.1446 195.032 44.6887 193.442 46.7996C192.396 48.2316 190.92 49.2382 189.01 49.8313C187.987 50.1474 186.796 50.3074 185.433 50.3074C182.91 50.3074 180.821 49.6831 179.161 48.4345C177.775 47.4122 176.678 46.0231 175.873 44.2634C175.065 42.5036 174.596 40.4902 174.46 38.2194L180.595 37.7785C180.868 40.264 181.524 42.0666 182.571 43.1864C183.344 44.0293 184.23 44.4311 185.23 44.3843C186.64 44.3375 187.764 43.6469 188.604 42.3046C189.033 41.6452 189.252 40.7049 189.252 39.4758C189.252 37.7043 188.444 35.9407 186.831 34.1926C185.558 32.9909 183.648 31.1843 181.106 28.7729C178.97 26.7049 177.459 24.8555 176.572 23.2167C175.62 21.375 175.143 19.3772 175.143 17.2195C175.143 13.3332 176.447 10.3912 179.064 8.39348C180.677 7.1878 182.676 6.58691 185.062 6.58691C187.358 6.58691 189.322 7.09806 190.959 8.12035C192.232 8.91633 193.259 10.0284 194.044 11.4564C194.829 12.8845 195.297 14.5311 195.457 16.3923L189.287 17.516C189.104 15.768 188.604 14.4063 187.788 13.4308C187.198 12.7284 186.343 12.3773 185.234 12.3773C184.051 12.3773 183.156 12.9001 182.543 13.9419C182.043 14.7808 181.793 15.8265 181.793 17.0751C181.793 19.0261 182.633 21.0121 184.316 23.0333C184.953 23.8059 185.905 24.715 187.179 25.7568C188.678 27.0054 189.666 27.8794 190.143 28.3789C191.732 29.9669 192.958 31.5355 193.825 33.0767C194.235 33.8024 194.563 34.4736 194.813 35.0862C195.418 36.6079 195.735 37.9696 195.758 39.1714Z" fill="white"/>
<path d="M221.488 39.1714C221.535 42.1446 220.762 44.6887 219.173 46.7996C218.126 48.2316 216.65 49.2382 214.74 49.8313C213.717 50.1474 212.526 50.3074 211.163 50.3074C208.641 50.3074 206.552 49.6831 204.892 48.4345C203.506 47.4122 202.408 46.0231 201.604 44.2634C200.795 42.5036 200.327 40.4902 200.19 38.2194L206.325 37.7785C206.598 40.264 207.254 42.0666 208.301 43.1864C209.074 44.0293 209.961 44.4311 210.96 44.3843C212.37 44.3375 213.495 43.6469 214.334 42.3046C214.764 41.6452 214.983 40.7049 214.983 39.4758C214.983 37.7043 214.174 35.9407 212.561 34.1926C211.288 32.9909 209.379 31.1843 206.837 28.7729C204.701 26.7049 203.189 24.8555 202.303 23.2167C201.35 21.375 200.874 19.3772 200.874 17.2195C200.874 13.3332 202.178 10.3912 204.794 8.39348C206.407 7.1878 208.406 6.58691 210.792 6.58691C213.089 6.58691 215.053 7.09806 216.689 8.12035C217.962 8.91633 218.989 10.0284 219.774 11.4564C220.559 12.8845 221.028 14.5311 221.188 16.3923L215.018 17.516C214.834 15.768 214.334 14.4063 213.518 13.4308C212.928 12.7284 212.073 12.3773 210.964 12.3773C209.781 12.3773 208.887 12.9001 208.274 13.9419C207.774 14.7808 207.524 15.8265 207.524 17.0751C207.524 19.0261 208.363 21.0121 210.047 23.0333C210.683 23.8059 211.636 24.715 212.909 25.7568C214.408 27.0054 215.396 27.8794 215.873 28.3789C217.462 29.9669 218.688 31.5355 219.555 33.0767C219.965 33.8024 220.293 34.4736 220.543 35.0862C221.145 36.6079 221.465 37.9696 221.488 39.1714Z" fill="white"/>
<path d="M78.2584 56.1641H67.6406V64.8731H78.2584V61.9116H72.7172V59.4339H81.5934V64.2488C81.5934 65.5247 81.3434 66.3948 80.8436 66.8592C80.3437 67.3196 79.387 67.5498 77.9695 67.5498H67.8671C66.4495 67.5498 65.4889 67.3196 64.993 66.8592C64.4931 66.3987 64.2432 65.5286 64.2432 64.2488V56.8899C64.2432 55.6218 64.4931 54.7595 64.993 54.299C65.4928 53.8386 66.4495 53.6084 67.8671 53.6084H77.9695C79.3753 53.6084 80.332 53.8347 80.8358 54.2834C81.3395 54.736 81.5934 55.5515 81.5934 56.7299V57.1006L78.2584 57.6624V56.1641Z" fill="white"/>
<path d="M90.8756 67.5459V61.2834L83.2529 53.6045H87.8453L92.8242 58.8057L97.8657 53.6045H101.861L94.273 61.2209V67.5498H90.8756V67.5459Z" fill="white"/>
<path d="M105.168 67.5459V53.6045H107.89L114.72 61.8804L121.519 53.6045H124.256V67.5459H121.097V57.9512L114.861 65.872H114.201L107.886 58.1775V67.5459H105.168Z" fill="white"/>
<path d="M155.489 56.1641H146.32V64.8731H155.489V61.9116L158.921 62.6022V64.2449C158.921 65.513 158.668 66.3792 158.164 66.8435C157.66 67.3118 156.692 67.542 155.262 67.542H146.546C145.14 67.542 144.184 67.3118 143.68 66.8513C143.176 66.3909 142.922 65.5208 142.922 64.241V56.8821C142.922 55.614 143.172 54.7516 143.672 54.2912C144.172 53.8308 145.129 53.6006 146.546 53.6006H155.262C156.703 53.6006 157.672 53.8308 158.172 54.2912C158.671 54.7516 158.921 55.6179 158.921 56.8821V58.236L155.489 58.7354V56.1641Z" fill="white"/>
<path d="M164.513 67.5459V53.6045H167.946V64.9394H178.888V67.5459H164.513Z" fill="white"/>
<path d="M186.718 53.6045V64.9394H196.434V53.6045H199.866V64.2449C199.866 65.513 199.612 66.3792 199.101 66.8435C198.589 67.3118 197.621 67.542 196.191 67.542H186.96C185.542 67.542 184.582 67.3118 184.086 66.8513C183.586 66.3909 183.336 65.5208 183.336 64.241V53.6006H186.718V53.6045Z" fill="white"/>
<path d="M206.067 67.5459V53.6045H218.602C219.774 53.6045 220.617 53.8152 221.133 54.2405C221.648 54.6658 221.906 55.3525 221.906 56.3085V57.9824C221.906 58.6145 221.703 59.1373 221.293 59.5431C220.883 59.9528 220.293 60.226 219.52 60.3625C220.305 60.4913 220.914 60.7878 221.348 61.2561C221.781 61.7243 222 62.3096 222 63.0197V64.8068C222 65.7198 221.641 66.4026 220.922 66.8591C220.203 67.3157 219.118 67.542 217.669 67.542H206.067V67.5459ZM217.04 55.8754H209.418V59.1764H217.04C217.63 59.1764 218.032 59.1022 218.247 58.95C218.462 58.7979 218.567 58.5404 218.567 58.1775V56.8586C218.567 56.4919 218.462 56.2383 218.255 56.0939C218.048 55.9495 217.642 55.8754 217.04 55.8754ZM217.04 61.4785H209.418V65.037H217.04C217.685 65.037 218.122 64.9472 218.353 64.7638C218.583 64.5805 218.7 64.2605 218.7 63.8001V62.7388C218.7 62.2783 218.583 61.9506 218.353 61.7633C218.122 61.5721 217.685 61.4785 217.04 61.4785Z" fill="white"/>
</svg>
