<svg width="228" height="80" viewBox="0 0 228 80" fill="none" xmlns="http://www.w3.org/2000/svg">
<path d="M142.947 14.5252C141.637 10.2045 138.921 6.56407 135.012 3.91919C131.329 1.42697 126.779 0 122.521 0H95.7664C91.5118 0 86.958 1.43029 83.275 3.91919C79.3661 6.56407 76.6504 10.2045 75.3408 14.5252H0V65.4748H81.8624C82.5903 67.0876 83.4877 68.5975 84.5481 69.978C89.6437 76.6284 97.9204 80 109.145 80C120.37 80 128.65 76.6284 133.743 69.978C134.8 68.5975 135.7 67.0876 136.425 65.4748H228V14.5252H142.947ZM225.677 63.1518H134.866C134.215 64.9139 133.267 66.7756 131.894 68.5676C127.264 74.614 119.609 77.677 109.145 77.677C98.6815 77.677 91.0265 74.6107 86.3962 68.5676C85.0234 66.7756 84.0761 64.9139 83.4246 63.1518H2.32677V16.8482H77.1523C79.1699 6.86606 88.7429 2.32298 95.7664 2.32298H122.521C129.548 2.32298 139.117 6.86938 141.135 16.8482H225.677V63.1518Z" fill="white"/>
<path d="M82.4308 50.8895C82.4873 50.5609 82.6236 50.259 82.813 49.9968C82.7366 49.6882 82.7266 49.3596 82.7964 49.0344L82.9559 48.2977C83.275 46.8409 83.5509 45.5798 83.5509 44.4449C83.5443 43.8376 82.6269 41.7801 81.889 40.1241C79.8481 35.5479 76.7601 28.6354 76.7601 20.7837C76.7601 20.2328 76.7867 19.6985 76.8299 19.1709H4.65356V60.8285H82.7033C82.1216 58.5055 82.0153 56.5443 82.0153 55.4425C82.0153 53.9691 82.1482 52.5222 82.4308 50.8895Z" fill="white"/>
<path d="M223.35 19.1709H141.458C141.497 19.6952 141.527 20.2295 141.527 20.7837C141.527 28.6354 138.443 35.5512 136.399 40.1241C135.661 41.7768 134.743 43.8343 134.737 44.4449C134.737 45.5831 135.012 46.8409 135.332 48.2977L135.491 49.0278C135.561 49.353 135.551 49.6815 135.474 49.9902C135.664 50.2523 135.8 50.5543 135.857 50.8828C136.139 52.5156 136.272 53.9624 136.272 55.4392C136.272 56.5409 136.166 58.5022 135.584 60.8252H223.35V19.1709Z" fill="white"/>
<path d="M19.0829 55.3539C17.0221 55.3539 15.2703 54.6305 13.8277 53.1803C12.3851 51.7301 11.6638 49.9945 11.6638 47.9702V31.0789C11.6638 29.0214 12.3885 27.2725 13.841 25.8322C15.2903 24.392 17.0387 23.6719 19.0829 23.6719C21.1438 23.6719 22.8921 24.3953 24.3247 25.8455C25.7607 27.2957 26.4754 29.0413 26.4754 31.0822V34.6131H21.629V30.9826C21.629 30.2426 21.3664 29.6087 20.8379 29.0811C20.3094 28.5534 19.6745 28.2913 18.9333 28.2913C18.1921 28.2913 17.5605 28.5534 17.042 29.0811C16.5235 29.6087 16.2642 30.2426 16.2642 30.9826V47.9204C16.2642 48.6605 16.5235 49.291 17.042 49.8087C17.5605 50.3264 18.1921 50.5852 18.9333 50.5852C19.6745 50.5852 20.3094 50.3264 20.8379 49.8087C21.3664 49.291 21.629 48.6638 21.629 47.9237V41.8409H19.033V37.1485H26.4787V47.9636C26.4787 50.0211 25.7541 51.7666 24.3015 53.2002C22.8489 54.6371 21.1105 55.3539 19.0829 55.3539Z" fill="#F41E1E"/>
<path d="M34.6889 41.9939L28.4299 23.9941H33.5754L37.0389 35.1046L40.4759 23.9941H45.6447L39.3624 41.9939V54.9594H34.6889V41.9939Z" fill="#F41E1E"/>
<path d="M54.0541 54.9594H49.3806V23.9941H56.0884L60.4461 46.2383L64.6276 23.9941H71.0727V54.9594H66.3993V35.5028L62.344 54.9594H58.5847L54.0574 35.5493V54.9594H54.0541Z" fill="#F41E1E"/>
<path d="M152.433 55.3539C150.372 55.3539 148.621 54.6338 147.178 53.1936C145.735 51.7533 145.014 50.0111 145.014 47.9702V31.0789C145.014 29.0214 145.739 27.2725 147.191 25.8322C148.641 24.392 150.389 23.6719 152.433 23.6719C154.494 23.6719 156.242 24.3953 157.675 25.8455C159.111 27.2957 159.826 29.0413 159.826 31.0822V34.6131H154.979V30.9826C154.979 30.2426 154.717 29.6087 154.188 29.0811C153.66 28.5534 153.025 28.2913 152.284 28.2913C151.542 28.2913 150.911 28.5534 150.392 29.0811C149.874 29.6087 149.615 30.2426 149.615 30.9826V47.9204C149.615 48.6605 149.874 49.291 150.392 49.8087C150.911 50.3264 151.542 50.5852 152.284 50.5852C153.025 50.5852 153.66 50.3264 154.188 49.8087C154.717 49.291 154.979 48.6605 154.979 47.9204V43.6495H159.826V47.9702C159.826 50.0277 159.101 51.7733 157.649 53.2069C156.199 54.6372 154.461 55.3539 152.433 55.3539Z" fill="#F41E1E"/>
<path d="M176.399 54.9587H163.662V24.0166H168.335V50.316H176.399V54.9587Z" fill="#F41E1E"/>
<path d="M187.009 55.3044C184.948 55.3044 183.2 54.5876 181.767 53.1573C180.331 51.7237 179.617 49.9881 179.617 47.9472V24.0205H184.194V47.8974C184.194 48.6374 184.456 49.268 184.985 49.7856C185.513 50.3033 186.148 50.5622 186.889 50.5622C187.631 50.5622 188.262 50.3033 188.781 49.7856C189.299 49.268 189.559 48.6374 189.559 47.8974V24.0205H194.432V47.9472C194.432 50.0212 193.707 51.7668 192.254 53.1838C190.802 54.5975 189.053 55.3044 187.009 55.3044Z" fill="#F41E1E"/>
<path d="M198.583 54.9594V23.9941H205.583C207.431 23.9941 209.097 24.4787 210.579 25.451C211.849 26.274 212.756 27.5516 213.301 29.2773C213.597 30.1998 213.747 31.2949 213.747 32.5626C213.747 34.6367 213.195 36.2993 212.092 37.5504C211.629 38.078 211.084 38.4796 210.459 38.7616C211.5 39.1565 212.381 39.9397 213.105 41.1078C213.584 41.8977 213.936 42.9198 214.169 44.1708C214.285 44.8113 214.342 45.5281 214.342 46.318C214.342 48.2759 213.97 49.9385 213.228 51.3057C212.65 52.3743 211.836 53.2305 210.779 53.8743C209.592 54.5977 208.412 54.9594 207.242 54.9594H198.583ZM203.629 36.6378H205.583C207.032 36.6378 208.006 35.9309 208.502 34.5139C208.684 33.9863 208.774 33.3358 208.774 32.5626C208.774 31.2783 208.462 30.306 207.834 29.6489C207.255 29.0416 206.507 28.7363 205.583 28.7363H203.629V36.6378ZM203.629 50.34H205.583C207.165 50.34 208.262 49.5237 208.874 47.8943C209.087 47.3334 209.196 46.693 209.196 45.9695C209.196 44.2406 208.867 42.9828 208.206 42.193C207.611 41.4696 206.737 41.1078 205.583 41.1078H203.629V50.34Z" fill="#F41E1E"/>
<path d="M111.438 60.4749C115.951 59.6581 118.945 55.344 118.127 50.839C117.309 46.3339 112.988 43.344 108.476 44.1608C103.963 44.9775 100.968 49.2917 101.786 53.7967C102.605 58.3017 106.926 61.2917 111.438 60.4749Z" fill="white"/>
<path d="M86.4228 50.442C86.8017 50.442 87.3036 50.2761 87.8354 50.1035C88.9855 49.7252 90.4182 49.254 91.7477 50.14C93.5925 51.3679 94.0113 53.1699 94.4999 55.2539C94.9188 57.0426 95.3941 59.0702 96.8666 61.3434C99.5058 65.412 104.322 68.0435 109.145 68.0435C114.404 68.0435 118.954 64.5558 121.457 61.2937C123.182 59.0437 123.618 56.9264 124.003 55.0548C124.399 53.13 124.771 51.3148 126.54 50.1367C127.869 49.2507 129.302 49.7219 130.452 50.1002C130.984 50.2761 131.486 50.4387 131.865 50.4387C132.543 50.4387 133.154 49.7252 133.33 49.4498L133.377 49.4796C132.981 47.6379 132.573 46.0217 132.573 44.4421C132.573 41.3725 139.363 32.0374 139.363 20.7809C139.363 9.52777 129.564 4.47363 122.518 4.47363H95.7631C88.7163 4.47363 78.9172 9.52445 78.9172 20.7809C78.9172 32.0374 85.7081 41.3725 85.7081 44.4421C85.7081 46.025 85.2992 47.6412 84.9037 49.483L84.9535 49.4498C85.133 49.7285 85.7413 50.442 86.4228 50.442ZM109.936 62.11C104.512 62.11 100.098 57.703 100.098 52.2871C100.098 46.8713 104.512 42.4643 109.936 42.4643C115.361 42.4643 119.775 46.8713 119.775 52.2871C119.775 57.703 115.361 62.11 109.936 62.11ZM138.406 20.7843C138.406 27.9722 135.484 34.523 133.55 38.857C132.43 41.3692 131.619 43.1877 131.619 44.4421C131.619 45.6567 129.917 45.5704 128.78 44.0903C127.404 42.2983 122.647 35.5683 122.647 35.5683L129.95 42.6202C129.95 42.6202 137.299 28.8085 137.299 20.9402C137.299 13.0753 130.744 7.65944 130.744 7.65944C134.939 10.0256 138.406 14.3197 138.406 20.7843ZM131.722 18.2124C131.722 18.2124 135.036 25.3107 127.061 34.3272L125.669 33.1292C132.875 25.4037 131.722 18.2124 131.722 18.2124ZM124.708 6.26897C124.708 6.26897 115.723 7.18157 109.528 7.18157C103.332 7.18157 94.2506 6.26897 94.2506 6.26897H124.708ZM96.0124 13.4304H122.275C125.03 13.4304 130.475 14.5819 130.475 20.7212C130.475 26.8605 125.094 32.2963 122.661 32.2963C119.011 32.2963 116.385 29.8007 109.145 29.8007C101.909 29.8007 99.2798 32.2963 95.6301 32.2963C93.197 32.2963 87.8155 26.8605 87.8155 20.7212C87.8155 14.5819 93.2601 13.4304 96.0124 13.4304ZM92.6186 33.1259L91.2258 34.3239C83.2517 25.3074 86.5657 18.2091 86.5657 18.2091C86.5657 18.2091 85.4123 25.4037 92.6186 33.1259ZM84.7408 38.8603C82.8063 34.5263 79.8845 27.9755 79.8845 20.7876C79.8845 14.3197 83.3514 10.0289 87.5529 7.66606C87.5529 7.66606 80.998 13.0819 80.998 20.9469C80.998 28.8118 88.3473 42.6269 88.3473 42.6269L95.6501 35.575C95.6501 35.575 90.8934 42.305 89.5173 44.097C88.3805 45.5771 86.6787 45.6633 86.6787 44.4487C86.6721 43.1877 85.861 41.3725 84.7408 38.8603Z" fill="white"/>
<path d="M129.973 51.5606C128.843 51.189 128.052 50.9799 127.394 51.4179C126.151 52.2442 125.881 53.5551 125.509 55.367C125.114 57.2984 124.618 59.701 122.677 62.2297C119.948 65.7839 114.962 69.5803 109.145 69.5803C103.817 69.5803 98.492 66.6766 95.5769 62.18C93.9582 59.6844 93.4296 57.4212 93.0042 55.6059C92.5554 53.6911 92.233 52.3106 90.8968 51.4179C90.2387 50.9799 89.4476 51.1922 88.3174 51.5639C87.6958 51.7697 87.051 51.9787 86.4228 51.9787C85.6583 51.9787 85.0267 51.637 84.5614 51.262C84.342 52.5263 84.1758 53.9068 84.1758 55.45C84.1758 60.1822 86.343 75.5304 109.145 75.5304C131.948 75.5304 134.115 60.1822 134.115 55.45C134.115 53.9068 133.949 52.5296 133.729 51.262C133.261 51.6403 132.629 51.9787 131.868 51.9787C131.24 51.9754 130.595 51.7631 129.973 51.5606Z" fill="white"/>
</svg>
